<?xml version="1.0" encoding="utf-8"?>
<!-- Generator: Adobe Illustrator 27.0.0, SVG Export Plug-In . SVG Version: 6.00 Build 0)  -->
<svg version="1.1" xmlns="http://www.w3.org/2000/svg" xmlns:xlink="http://www.w3.org/1999/xlink" x="0px" y="0px"
	 viewBox="0 0 1017.5 223" style="enable-background:new 0 0 1017.5 223;" xml:space="preserve">
<style type="text/css">
	.st0{fill:url(#SVGID_1_);}
	.st1{fill:url(#SVGID_00000137101644648279456070000002235844066974219395_);}
	.st2{fill:url(#SVGID_00000034785632089528861580000010897580770108048575_);}
	.st3{fill:url(#SVGID_00000084529494692750665130000014562842682573542295_);}
	.st4{fill:url(#SVGID_00000127729047328375332140000009694705707302665401_);}
	.st5{fill:#E4E4E4;}
	.st6{fill:#707070;}
</style>
<g id="BACKGROUND">
</g>
<g id="OBJECTS">
	<g>
		<g>
			
				<linearGradient id="SVGID_1_" gradientUnits="userSpaceOnUse" x1="86.5406" y1="5082.0498" x2="179.972" y2="4988.6182" gradientTransform="matrix(1 0 0 -1 0 5178.4814)">
				<stop  offset="0" style="stop-color:#5F96FF"/>
				<stop  offset="0.583" style="stop-color:#4F54D9"/>
				<stop  offset="0.7344" style="stop-color:#4F4FD6"/>
				<stop  offset="0.9146" style="stop-color:#4E40CC"/>
				<stop  offset="1" style="stop-color:#4E37C5"/>
			</linearGradient>
			<path class="st0" d="M132.8,172.6l-55.5-55.5c-3.1-3.1-3.1-8.2,0-11.4l24.3-24.3l93.3,93.6h-56.4
				C136.3,175,134.3,174.2,132.8,172.6z"/>
			
				<linearGradient id="SVGID_00000130605894459859267420000017415309698758890939_" gradientUnits="userSpaceOnUse" x1="116.3298" y1="5081.9741" x2="171.7549" y2="5137.3994" gradientTransform="matrix(1 0 0 -1 0 5178.4814)">
				<stop  offset="0" style="stop-color:#3D56DE"/>
				<stop  offset="0.2691" style="stop-color:#4B79FF"/>
				<stop  offset="1" style="stop-color:#90ECFF"/>
			</linearGradient>
			<path style="fill:url(#SVGID_00000130605894459859267420000017415309698758890939_);" d="M101.4,81.5l25.7-25.7
				c5-5,11.8-7.8,18.9-7.8h29.2c7.2,0,10.8,8.7,5.7,13.8l-49.7,49.7L101.4,81.5z"/>
			
				<linearGradient id="SVGID_00000139281685546753913990000014530366945953335190_" gradientUnits="userSpaceOnUse" x1="179.8012" y1="160.0723" x2="306.861" y2="33.0125">
				<stop  offset="0" style="stop-color:#571EAB"/>
				<stop  offset="9.874516e-03" style="stop-color:#5A20AF"/>
				<stop  offset="8.227914e-02" style="stop-color:#6A2FCB"/>
				<stop  offset="0.1609" style="stop-color:#783AE0"/>
				<stop  offset="0.2477" style="stop-color:#8142EF"/>
				<stop  offset="0.349" style="stop-color:#8647F8"/>
				<stop  offset="0.4998" style="stop-color:#8848FB"/>
				<stop  offset="1" style="stop-color:#A97FFB"/>
			</linearGradient>
			<polygon style="fill:url(#SVGID_00000139281685546753913990000014530366945953335190_);" points="262.1,48 262.1,47.9 
				164.9,145.1 194.7,175 321.8,47.9 			"/>
			
				<linearGradient id="SVGID_00000152963245684112811450000015471726570711185339_" gradientUnits="userSpaceOnUse" x1="306.8661" y1="62.8681" x2="370.5119" y2="126.5138">
				<stop  offset="0" style="stop-color:#702BFF"/>
				<stop  offset="0.43" style="stop-color:#A33AFF"/>
				<stop  offset="0.6547" style="stop-color:#B33DFF"/>
				<stop  offset="1" style="stop-color:#D343FF"/>
			</linearGradient>
			<path style="fill:url(#SVGID_00000152963245684112811450000015471726570711185339_);" d="M379.8,117.2c3.1-3.1,3.1-8.2,0-11.4
				l-57.9-57.9h-0.2L292,77.8l63.5,63.7L379.8,117.2z"/>
			
				<linearGradient id="SVGID_00000078734443529289690530000007071811548459388057_" gradientUnits="userSpaceOnUse" x1="-7687.0205" y1="181.8629" x2="-7742.4453" y2="126.4378" gradientTransform="matrix(-1 0 0 1 -7401.7979 7.590000e-02)">
				<stop  offset="0" style="stop-color:#FFA7FF"/>
				<stop  offset="0.2652" style="stop-color:#F46BFF"/>
				<stop  offset="0.4767" style="stop-color:#ED41FF"/>
				<stop  offset="0.585" style="stop-color:#EA31FF"/>
				<stop  offset="0.6741" style="stop-color:#E42DFA"/>
				<stop  offset="0.7951" style="stop-color:#D320EB"/>
				<stop  offset="0.9339" style="stop-color:#B60CD3"/>
				<stop  offset="1" style="stop-color:#A600C5"/>
			</linearGradient>
			<path style="fill:url(#SVGID_00000078734443529289690530000007071811548459388057_);" d="M355.5,141.5l-27.9,27.9
				c-3.6,3.6-8.6,5.7-13.7,5.7h-32.2c-7.2,0-10.8-8.7-5.7-13.8l49.7-49.7L355.5,141.5z"/>
		</g>
		<g>
			<path class="st5" d="M448.5,93.7V48.6h19.8c4.8,0,9.1,0.9,12.8,2.8c3.7,1.9,6.6,4.5,8.7,7.9c2.1,3.4,3.1,7.4,3.1,11.9
				c0,4.5-1,8.5-3.1,11.9c-2.1,3.4-5,6-8.7,7.9c-3.7,1.9-8,2.8-12.8,2.8H448.5z M456.9,86.6h10.9c3.4,0,6.3-0.6,8.8-1.9
				c2.5-1.3,4.4-3.1,5.8-5.4c1.4-2.3,2.1-5,2.1-8.1c0-3.2-0.7-5.9-2.1-8.2c-1.4-2.3-3.3-4.1-5.8-5.4c-2.5-1.3-5.4-1.9-8.8-1.9h-10.9
				V86.6z"/>
			<path class="st5" d="M501.8,93.7V48.6h8.4v45.2H501.8z"/>
			<path class="st5" d="M543.5,94.4c-3.5,0-6.8-0.6-9.7-1.7c-2.9-1.1-5.5-2.8-7.7-4.9c-2.2-2.1-3.9-4.6-5.1-7.4
				c-1.2-2.8-1.8-5.9-1.8-9.3s0.6-6.5,1.8-9.3c1.2-2.8,2.9-5.2,5.1-7.4c2.2-2.1,4.8-3.7,7.7-4.9c2.9-1.1,6.2-1.7,9.8-1.7
				c3.8,0,7.2,0.6,10.3,1.9c3.1,1.2,5.7,3.1,7.8,5.5l-5.3,5.2c-1.8-1.8-3.7-3.1-5.7-3.9c-2-0.8-4.3-1.3-6.7-1.3
				c-2.4,0-4.6,0.4-6.6,1.2c-2,0.8-3.7,1.9-5.2,3.3c-1.5,1.4-2.6,3.1-3.4,5c-0.8,1.9-1.2,4.1-1.2,6.4c0,2.3,0.4,4.4,1.2,6.4
				c0.8,2,2,3.6,3.4,5.1c1.5,1.4,3.2,2.5,5.2,3.3c2,0.8,4.2,1.2,6.6,1.2c2.2,0,4.4-0.4,6.5-1.1c2.1-0.7,4.1-1.9,6-3.6l4.7,6.3
				c-2.3,1.9-5,3.3-8.1,4.3C549.9,93.9,546.7,94.4,543.5,94.4z M553.3,87.5V70.7h7.9v17.9L553.3,87.5z"/>
			<path class="st5" d="M572.2,93.7V48.6h8.4v45.2H572.2z"/>
			<path class="st5" d="M602,93.7V55.7h-15v-7.1h38.3v7.1h-15v38.1H602z"/>
			<path class="st5" d="M623,93.7l20.3-45.2h8.3L672,93.7h-8.8L645.7,53h3.4l-17.5,40.7H623z M632.4,83.3l2.3-6.6H659l2.3,6.6H632.4
				z"/>
			<path class="st5" d="M677.7,93.7V48.6h8.4v38.1h23.6v7.1H677.7z"/>
			<path class="st5" d="M755.3,94.4c-3.5,0-6.8-0.6-9.7-1.7c-2.9-1.1-5.5-2.8-7.7-4.9c-2.2-2.1-3.9-4.6-5.1-7.4
				c-1.2-2.8-1.8-5.9-1.8-9.3s0.6-6.5,1.8-9.3c1.2-2.8,2.9-5.2,5.1-7.4c2.2-2.1,4.8-3.7,7.7-4.9c2.9-1.1,6.2-1.7,9.8-1.7
				c3.8,0,7.2,0.6,10.3,1.9s5.7,3.1,7.8,5.5l-5.3,5.2c-1.8-1.8-3.7-3.1-5.7-3.9c-2-0.8-4.3-1.3-6.7-1.3c-2.4,0-4.6,0.4-6.6,1.2
				s-3.7,1.9-5.2,3.3c-1.5,1.4-2.6,3.1-3.4,5c-0.8,1.9-1.2,4.1-1.2,6.4c0,2.3,0.4,4.4,1.2,6.4c0.8,2,2,3.6,3.4,5.1
				c1.5,1.4,3.2,2.5,5.2,3.3c2,0.8,4.2,1.2,6.6,1.2c2.2,0,4.4-0.4,6.5-1.1c2.1-0.7,4.1-1.9,6-3.6l4.7,6.3c-2.3,1.9-5,3.3-8.1,4.3
				C761.7,93.9,758.5,94.4,755.3,94.4z M765,87.5V70.7h7.9v17.9L765,87.5z"/>
			<path class="st5" d="M803.3,94.4c-6.2,0-11-1.7-14.5-5.2c-3.5-3.5-5.3-8.5-5.3-15.2V48.6h8.4v25.2c0,4.6,1,8,3,10.1
				c2,2.1,4.8,3.2,8.5,3.2s6.5-1.1,8.5-3.2c2-2.1,3-5.5,3-10.1V48.6h8.3V74c0,6.6-1.8,11.7-5.3,15.2
				C814.4,92.6,809.5,94.4,803.3,94.4z"/>
			<path class="st5" d="M834.9,93.7V48.6h8.4v45.2H834.9z"/>
			<path class="st5" d="M855.5,93.7V48.6h19.8c4.8,0,9.1,0.9,12.8,2.8c3.7,1.9,6.6,4.5,8.7,7.9c2.1,3.4,3.1,7.4,3.1,11.9
				c0,4.5-1,8.5-3.1,11.9c-2.1,3.4-5,6-8.7,7.9c-3.7,1.9-8,2.8-12.8,2.8H855.5z M863.9,86.6h10.9c3.4,0,6.3-0.6,8.8-1.9
				c2.5-1.3,4.4-3.1,5.8-5.4c1.4-2.3,2.1-5,2.1-8.1c0-3.2-0.7-5.9-2.1-8.2c-1.4-2.3-3.3-4.1-5.8-5.4c-2.5-1.3-5.4-1.9-8.8-1.9h-10.9
				V86.6z"/>
			<path class="st5" d="M917.2,86.6h25.5v7.1h-33.9V48.6h33v7.1h-24.6V86.6z M916.5,67.3H939v6.9h-22.5V67.3z"/>
		</g>
		<g>
			<path class="st6" d="M460.6,134.6h-7.5v-0.8c0.7,0,1.3-0.1,1.7-0.2c0.4-0.1,0.6-0.3,0.7-0.7c0.1-0.4,0.2-0.9,0.2-1.7v-3.7
				l-3.2-5.2c-0.5-0.9-1-1.5-1.3-2c-0.4-0.5-0.7-0.9-1-1.1c-0.3-0.2-0.6-0.4-0.8-0.5c-0.3-0.1-0.5-0.1-0.8-0.1V118h6.8v0.8
				c-0.7,0-1.2,0.1-1.4,0.2c-0.2,0.1-0.3,0.2-0.3,0.4c0,0.3,0.1,0.7,0.4,1.2l2.3,3.6l1.1,2h0.2l3.3-5.7c0.1-0.1,0.2-0.3,0.2-0.5
				c0.1-0.2,0.1-0.3,0.1-0.5c0-0.2-0.1-0.4-0.3-0.5c-0.2-0.1-0.6-0.2-1.3-0.2V118h5.5v0.8c-0.5,0-0.9,0.1-1.3,0.3
				c-0.3,0.1-0.7,0.4-1,0.7c-0.3,0.3-0.7,0.9-1.1,1.5l-3.7,6.2v3.8c0,0.7,0.1,1.3,0.2,1.7c0.1,0.4,0.4,0.6,0.8,0.7
				c0.4,0.1,0.9,0.2,1.6,0.2V134.6z"/>
			<path class="st6" d="M469.4,134.9c-1.8,0-3.2-0.6-4.2-1.7c-1-1.1-1.5-2.7-1.5-4.7c0-1.2,0.2-2.3,0.7-3.2c0.5-0.9,1.1-1.6,2-2.1
				c0.9-0.5,1.8-0.8,3-0.8c1.7,0,3.1,0.5,4.1,1.6s1.5,2.6,1.5,4.4c0,1.4-0.2,2.6-0.7,3.6c-0.5,1-1.1,1.7-2,2.2
				C471.4,134.6,470.5,134.9,469.4,134.9z M469.5,133.9c0.7,0,1.3-0.2,1.7-0.5c0.5-0.3,0.8-0.9,1.1-1.6c0.2-0.8,0.4-1.8,0.4-3.2
				c0-1.5-0.3-2.8-0.8-3.8c-0.6-1-1.4-1.4-2.5-1.4c-1,0-1.7,0.4-2.3,1.2c-0.6,0.8-0.9,2-0.9,3.6c0,2,0.3,3.5,0.9,4.4
				C467.6,133.5,468.4,133.9,469.5,133.9z"/>
			<path class="st6" d="M481.5,134.9c-1,0-1.9-0.3-2.4-1c-0.6-0.7-0.9-1.9-0.9-3.6v-5.1c0-0.5,0-0.8-0.1-1c-0.1-0.2-0.3-0.3-0.5-0.4
				c-0.3-0.1-0.6-0.1-1.1-0.1v-0.7l3.3-0.4h0.6v7.4c0,0.9,0.1,1.5,0.3,2c0.2,0.5,0.5,0.8,0.8,1c0.3,0.2,0.7,0.3,1.2,0.3
				c0.6,0,1.2-0.1,1.7-0.4c0.5-0.3,0.9-0.6,1.5-1.1v-6.6c0-0.5-0.1-0.8-0.2-1c-0.1-0.2-0.3-0.3-0.6-0.4c-0.3-0.1-0.7-0.1-1.3-0.1
				v-0.7l3.5-0.4h0.6v9.3c0,0.7,0.1,1.2,0.3,1.4c0.2,0.2,0.6,0.3,1.2,0.3h0.3v0.7l-3.2,0.6h-0.6v-1.9h-0.1c-0.4,0.4-0.9,0.8-1.3,1.1
				c-0.4,0.3-0.9,0.5-1.3,0.7C482.5,134.8,482,134.9,481.5,134.9z"/>
			<path class="st6" d="M497.3,134.6H491v-0.7c0.6,0,1,0,1.2-0.1c0.3-0.1,0.4-0.3,0.5-0.5c0.1-0.2,0.1-0.6,0.1-1.1v-6.9
				c0-0.5,0-0.8-0.1-1c-0.1-0.2-0.3-0.3-0.8-0.3c-0.3,0-0.5,0-0.8,0.1v-0.7l3.1-0.8h0.6v2.6h0.1c0.4-0.6,0.8-1.1,1.2-1.5
				c0.3-0.4,0.7-0.7,1-0.9c0.3-0.2,0.7-0.3,1.1-0.3c0.5,0,0.9,0.1,1.1,0.4c0.2,0.3,0.4,0.6,0.4,1c0,0.5-0.1,0.8-0.3,1
				c-0.2,0.2-0.5,0.3-0.8,0.3c-0.3,0-0.5-0.1-0.7-0.2c-0.2-0.1-0.4-0.3-0.5-0.4c-0.2-0.1-0.3-0.2-0.4-0.2c-0.3,0-0.6,0.2-1,0.7
				c-0.4,0.4-0.7,0.9-1,1.4v5.8c0,0.5,0.1,0.9,0.2,1.2c0.1,0.3,0.4,0.4,0.7,0.5c0.3,0.1,0.8,0.1,1.5,0.1V134.6z"/>
			<path class="st6" d="M512,134.9c-1,0-1.9-0.2-2.7-0.7c-0.8-0.5-1.5-1.2-1.9-2.1c-0.5-0.9-0.7-2.1-0.7-3.4c0-1.4,0.2-2.6,0.7-3.5
				c0.5-0.9,1.1-1.6,1.9-2.1c0.8-0.5,1.7-0.7,2.7-0.7c1.4,0,2.5,0.5,3.3,1.4c0.8,1,1.3,2.3,1.4,4.1h-8.2l0-0.9h5.9
				c0-0.6-0.1-1.2-0.3-1.8c-0.2-0.5-0.5-1-0.9-1.3c-0.4-0.3-0.9-0.5-1.5-0.5c-1,0-1.7,0.4-2.2,1.1c-0.5,0.8-0.7,1.8-0.7,3.2
				c0,1.2,0.2,2.1,0.6,2.9c0.4,0.8,0.9,1.4,1.5,1.7s1.3,0.6,1.9,0.6c0.7,0,1.3-0.1,1.7-0.3c0.4-0.2,0.8-0.4,1.1-0.7
				c0.3-0.3,0.6-0.6,0.9-1l0.5,0.4c-0.2,0.5-0.5,0.9-0.8,1.4c-0.3,0.4-0.6,0.8-1,1.1c-0.4,0.3-0.8,0.6-1.3,0.8
				C513.3,134.8,512.7,134.9,512,134.9z"/>
			<path class="st6" d="M521.4,134.6h-4.2v-0.7c0.4,0,0.8-0.1,1.1-0.3c0.3-0.2,0.6-0.5,1.1-1l3.2-4.1l0.8,1H523l-2.1,3
				c-0.1,0.2-0.2,0.4-0.4,0.6c-0.1,0.2-0.2,0.4-0.2,0.5c0,0.1,0.1,0.2,0.3,0.3c0.2,0.1,0.5,0.1,0.9,0.1V134.6z M529.4,134.6h-5.3
				v-0.7c0.4,0,0.7,0,0.9-0.1c0.2-0.1,0.3-0.2,0.3-0.4c0-0.2-0.1-0.3-0.2-0.5l-1.6-2.5l-0.6-1.1l-0.4-0.4l-2.8-4
				c-0.3-0.4-0.5-0.7-0.7-1c-0.2-0.2-0.4-0.4-0.6-0.4c-0.2-0.1-0.5-0.1-0.9-0.1v-0.7h5.4v0.7c-0.8,0-1.2,0.2-1.2,0.6
				c0,0.1,0.1,0.3,0.2,0.5c0.1,0.2,0.2,0.4,0.4,0.7c0.2,0.3,0.4,0.7,0.7,1.1l0.7,1.3l0.4,0.2l3.2,4.6c0.4,0.5,0.7,0.9,0.9,1.1
				c0.3,0.2,0.6,0.4,1.1,0.4V134.6z M527,124.6l-2.8,3.6l-0.7-0.8h0.3l1.2-1.7c0.3-0.5,0.6-0.8,0.7-1.1c0.1-0.2,0.2-0.5,0.2-0.7
				c0-0.2-0.1-0.3-0.2-0.4c-0.1-0.1-0.4-0.2-0.8-0.2v-0.7h4.2v0.7c-0.4,0-0.8,0.1-1.1,0.3C527.6,124,527.3,124.2,527,124.6z"/>
			<path class="st6" d="M536.3,140.2h-6.4v-0.7c0.8,0,1.3-0.1,1.5-0.4c0.2-0.3,0.3-0.7,0.3-1.5v-12.5c0-0.5-0.1-0.8-0.2-1
				c-0.1-0.2-0.4-0.3-0.8-0.3c-0.2,0-0.4,0-0.8,0.1v-0.7l3.2-0.7h0.6v2.1h0.1c0.6-0.7,1.2-1.3,1.9-1.6c0.6-0.4,1.3-0.6,2.1-0.6
				c0.8,0,1.6,0.2,2.2,0.7c0.6,0.5,1.1,1.1,1.5,2c0.4,0.9,0.5,1.8,0.5,2.9c0,1.4-0.2,2.7-0.7,3.7c-0.5,1-1.2,1.8-2,2.3
				c-0.8,0.5-1.8,0.8-2.8,0.8c-0.5,0-0.9-0.1-1.4-0.2c-0.4-0.1-0.8-0.3-1.2-0.5h-0.1v3.3c0,0.5,0.1,1,0.2,1.2
				c0.1,0.3,0.4,0.5,0.7,0.6c0.4,0.1,0.9,0.2,1.5,0.2V140.2z M536.6,133.9c0.9,0,1.6-0.4,2.2-1.3c0.6-0.8,0.9-2.1,0.9-3.9
				c0-1.6-0.3-2.8-0.8-3.5c-0.5-0.7-1.3-1.1-2.2-1.1c-0.7,0-1.3,0.2-1.8,0.5c-0.5,0.4-0.9,0.7-1.1,1v6.6c0.2,0.2,0.4,0.4,0.6,0.7
				c0.3,0.3,0.6,0.5,0.9,0.7C535.7,133.8,536.2,133.9,536.6,133.9z"/>
			<path class="st6" d="M549.2,134.9c-1,0-1.9-0.2-2.7-0.7c-0.8-0.5-1.5-1.2-1.9-2.1c-0.5-0.9-0.7-2.1-0.7-3.4
				c0-1.4,0.2-2.6,0.7-3.5c0.5-0.9,1.1-1.6,1.9-2.1c0.8-0.5,1.7-0.7,2.7-0.7c1.4,0,2.5,0.5,3.3,1.4c0.8,1,1.3,2.3,1.4,4.1h-8.2
				l0-0.9h5.9c0-0.6-0.1-1.2-0.3-1.8c-0.2-0.5-0.5-1-0.9-1.3c-0.4-0.3-0.9-0.5-1.5-0.5c-1,0-1.7,0.4-2.2,1.1
				c-0.5,0.8-0.7,1.8-0.7,3.2c0,1.2,0.2,2.1,0.6,2.9c0.4,0.8,0.9,1.4,1.5,1.7s1.3,0.6,1.9,0.6s1.3-0.1,1.7-0.3
				c0.4-0.2,0.8-0.4,1.1-0.7c0.3-0.3,0.6-0.6,0.9-1l0.5,0.4c-0.2,0.5-0.5,0.9-0.8,1.4c-0.3,0.4-0.6,0.8-1,1.1
				c-0.4,0.3-0.8,0.6-1.3,0.8C550.4,134.8,549.8,134.9,549.2,134.9z"/>
			<path class="st6" d="M561.7,134.6h-6.3v-0.7c0.6,0,1,0,1.2-0.1c0.3-0.1,0.4-0.3,0.5-0.5c0.1-0.2,0.1-0.6,0.1-1.1v-6.9
				c0-0.5,0-0.8-0.1-1c-0.1-0.2-0.3-0.3-0.8-0.3c-0.3,0-0.5,0-0.8,0.1v-0.7l3.1-0.8h0.6v2.6h0.1c0.4-0.6,0.8-1.1,1.2-1.5
				c0.3-0.4,0.7-0.7,1-0.9c0.3-0.2,0.7-0.3,1.1-0.3c0.5,0,0.9,0.1,1.1,0.4c0.2,0.3,0.4,0.6,0.4,1c0,0.5-0.1,0.8-0.3,1
				c-0.2,0.2-0.5,0.3-0.8,0.3c-0.3,0-0.5-0.1-0.7-0.2c-0.2-0.1-0.4-0.3-0.5-0.4c-0.2-0.1-0.3-0.2-0.4-0.2c-0.3,0-0.6,0.2-1,0.7
				c-0.4,0.4-0.7,0.9-1,1.4v5.8c0,0.5,0.1,0.9,0.2,1.2c0.1,0.3,0.4,0.4,0.7,0.5c0.3,0.1,0.8,0.1,1.5,0.1V134.6z"/>
			<path class="st6" d="M571.6,132.4l0.5,0.4c-0.3,0.5-0.6,0.8-0.9,1.1c-0.3,0.3-0.6,0.6-0.9,0.7c-0.3,0.2-0.8,0.3-1.3,0.3
				c-0.8,0-1.5-0.2-1.8-0.7c-0.4-0.5-0.6-1.3-0.6-2.4v-7.8h-1.4v-0.6c0.6-0.4,1.1-0.9,1.5-1.5c0.4-0.6,0.9-1.5,1.3-2.6h0.6v3.6h2.9
				v1.1h-2.9v7.1c0,0.9,0.1,1.5,0.2,1.9c0.2,0.4,0.5,0.5,1,0.5c0.4,0,0.7-0.1,0.9-0.3C571,133,571.3,132.7,571.6,132.4z"/>
			<path class="st6" d="M585.1,140.2h-6.4v-0.7c0.8,0,1.3-0.1,1.5-0.4c0.2-0.3,0.3-0.7,0.3-1.5v-12.5c0-0.5-0.1-0.8-0.2-1
				c-0.1-0.2-0.4-0.3-0.8-0.3c-0.2,0-0.4,0-0.8,0.1v-0.7l3.2-0.7h0.6v2.1h0.1c0.6-0.7,1.2-1.3,1.9-1.6c0.6-0.4,1.3-0.6,2.1-0.6
				c0.8,0,1.6,0.2,2.2,0.7c0.6,0.5,1.1,1.1,1.5,2c0.4,0.9,0.5,1.8,0.5,2.9c0,1.4-0.2,2.7-0.7,3.7c-0.5,1-1.2,1.8-2,2.3
				c-0.8,0.5-1.8,0.8-2.8,0.8c-0.5,0-0.9-0.1-1.4-0.2c-0.4-0.1-0.8-0.3-1.2-0.5h-0.1v3.3c0,0.5,0.1,1,0.2,1.2
				c0.1,0.3,0.4,0.5,0.7,0.6c0.4,0.1,0.9,0.2,1.5,0.2V140.2z M585.4,133.9c0.9,0,1.6-0.4,2.2-1.3c0.6-0.8,0.9-2.1,0.9-3.9
				c0-1.6-0.3-2.8-0.8-3.5c-0.5-0.7-1.3-1.1-2.2-1.1c-0.7,0-1.3,0.2-1.8,0.5c-0.5,0.4-0.9,0.7-1.1,1v6.6c0.2,0.2,0.4,0.4,0.6,0.7
				c0.3,0.3,0.6,0.5,0.9,0.7C584.5,133.8,584.9,133.9,585.4,133.9z"/>
			<path class="st6" d="M595.7,134.8c-1,0-1.7-0.3-2.2-0.8c-0.5-0.5-0.8-1.2-0.8-2c0-0.7,0.2-1.2,0.5-1.7c0.3-0.5,0.7-0.9,1.2-1.2
				c0.5-0.3,1.1-0.6,1.7-0.8c0.6-0.2,1.2-0.4,1.8-0.6c0.6-0.2,1.1-0.3,1.5-0.4v-1.1c0-1.1-0.2-1.9-0.6-2.3s-0.9-0.7-1.7-0.7
				c-0.7,0-1.2,0.2-1.4,0.5c-0.2,0.3-0.3,0.8-0.3,1.6c0,0.4-0.1,0.7-0.3,0.9c-0.2,0.2-0.5,0.3-0.8,0.3c-0.3,0-0.5-0.1-0.7-0.3
				c-0.2-0.2-0.3-0.5-0.3-0.9c0-0.5,0.2-0.9,0.5-1.3c0.4-0.4,0.9-0.8,1.5-1c0.7-0.3,1.5-0.4,2.4-0.4c1.4,0,2.4,0.3,2.9,1
				c0.6,0.6,0.9,1.6,0.9,2.9v5.7c0,0.5,0.1,0.9,0.2,1c0.1,0.2,0.3,0.2,0.6,0.2c0.2,0,0.4-0.1,0.6-0.2c0.2-0.1,0.4-0.3,0.5-0.5
				l0.4,0.4c-0.4,0.6-0.8,1-1.2,1.3c-0.4,0.3-0.9,0.4-1.5,0.4c-0.6,0-1-0.2-1.1-0.5c-0.2-0.3-0.3-0.8-0.4-1.4l-0.2-0.3v-4.4
				c-0.8,0.2-1.5,0.4-2.1,0.7c-0.7,0.3-1.2,0.6-1.6,1c-0.4,0.4-0.6,0.9-0.6,1.6c0,0.6,0.2,1.1,0.5,1.5c0.3,0.4,0.8,0.6,1.3,0.6
				c0.4,0,0.9-0.1,1.4-0.3c0.5-0.2,0.9-0.5,1.4-0.9l0.2,0.9h-0.3c-0.4,0.3-0.8,0.6-1.1,0.9c-0.4,0.3-0.7,0.5-1.2,0.6
				C596.7,134.7,596.2,134.8,595.7,134.8z"/>
			<path class="st6" d="M610.9,134.6h-6.3v-0.7c0.6,0,1,0,1.2-0.1c0.3-0.1,0.4-0.3,0.5-0.5c0.1-0.2,0.1-0.6,0.1-1.1v-6.9
				c0-0.5,0-0.8-0.1-1c-0.1-0.2-0.3-0.3-0.8-0.3c-0.3,0-0.5,0-0.8,0.1v-0.7l3.1-0.8h0.6v2.6h0.1c0.4-0.6,0.8-1.1,1.2-1.5
				c0.3-0.4,0.7-0.7,1-0.9c0.3-0.2,0.7-0.3,1.1-0.3c0.5,0,0.9,0.1,1.1,0.4c0.2,0.3,0.4,0.6,0.4,1c0,0.5-0.1,0.8-0.3,1
				c-0.2,0.2-0.5,0.3-0.8,0.3c-0.3,0-0.5-0.1-0.7-0.2c-0.2-0.1-0.4-0.3-0.5-0.4c-0.2-0.1-0.3-0.2-0.4-0.2c-0.3,0-0.6,0.2-1,0.7
				c-0.4,0.4-0.7,0.9-1,1.4v5.8c0,0.5,0.1,0.9,0.2,1.2c0.1,0.3,0.4,0.4,0.7,0.5c0.3,0.1,0.8,0.1,1.5,0.1V134.6z"/>
			<path class="st6" d="M620.8,132.4l0.5,0.4c-0.3,0.5-0.6,0.8-0.9,1.1c-0.3,0.3-0.6,0.6-0.9,0.7c-0.3,0.2-0.8,0.3-1.3,0.3
				c-0.8,0-1.5-0.2-1.8-0.7c-0.4-0.5-0.6-1.3-0.6-2.4v-7.8h-1.4v-0.6c0.6-0.4,1.1-0.9,1.5-1.5c0.4-0.6,0.9-1.5,1.3-2.6h0.6v3.6h2.9
				v1.1h-2.9v7.1c0,0.9,0.1,1.5,0.2,1.9c0.2,0.4,0.5,0.5,1,0.5c0.4,0,0.7-0.1,0.9-0.3C620.2,133,620.5,132.7,620.8,132.4z"/>
			<path class="st6" d="M628,134.6h-5.8v-0.7c0.6,0,1-0.1,1.2-0.2c0.2-0.1,0.4-0.3,0.5-0.6c0.1-0.3,0.1-0.6,0.1-1.1V125
				c0-0.5-0.1-0.8-0.3-0.9c-0.2-0.1-0.4-0.2-0.8-0.2c-0.2,0-0.4,0-0.7,0.1v-0.7l3.2-0.7h0.6l0,2.3l0.1,0.5v6.8c0,0.5,0,0.8,0.1,1.1
				c0.1,0.3,0.2,0.5,0.5,0.6c0.3,0.1,0.7,0.2,1.3,0.2V134.6z M635.4,134.6h-5.8v-0.7c0.6,0,1-0.1,1.3-0.2c0.3-0.1,0.4-0.3,0.5-0.6
				c0.1-0.3,0.1-0.6,0.1-1.1v-4.6c0-1-0.1-1.8-0.3-2.3c-0.2-0.5-0.5-0.8-0.9-1c-0.4-0.2-0.7-0.2-1.1-0.2c-0.5,0-0.9,0.1-1.3,0.3
				c-0.4,0.2-0.7,0.4-1,0.7c-0.3,0.3-0.6,0.5-0.9,0.8l-0.2-1.2h0.4c0.7-0.6,1.3-1.1,2-1.5c0.6-0.4,1.3-0.6,2.1-0.6
				c1.1,0,2,0.4,2.6,1.2c0.6,0.8,0.8,1.9,0.8,3.3v5.2c0,0.5,0,0.8,0.1,1.1c0.1,0.3,0.2,0.5,0.5,0.6c0.3,0.1,0.7,0.2,1.2,0.2V134.6z"
				/>
			<path class="st6" d="M642.2,134.9c-1,0-1.9-0.2-2.7-0.7c-0.8-0.5-1.5-1.2-1.9-2.1c-0.5-0.9-0.7-2.1-0.7-3.4
				c0-1.4,0.2-2.6,0.7-3.5c0.5-0.9,1.1-1.6,1.9-2.1c0.8-0.5,1.7-0.7,2.7-0.7c1.4,0,2.5,0.5,3.3,1.4c0.8,1,1.3,2.3,1.4,4.1h-8.2
				l0-0.9h5.9c0-0.6-0.1-1.2-0.3-1.8c-0.2-0.5-0.5-1-0.9-1.3c-0.4-0.3-0.9-0.5-1.5-0.5c-1,0-1.7,0.4-2.2,1.1
				c-0.5,0.8-0.7,1.8-0.7,3.2c0,1.2,0.2,2.1,0.6,2.9c0.4,0.8,0.9,1.4,1.5,1.7s1.3,0.6,1.9,0.6c0.7,0,1.3-0.1,1.7-0.3
				c0.4-0.2,0.8-0.4,1.1-0.7c0.3-0.3,0.6-0.6,0.9-1l0.5,0.4c-0.2,0.5-0.5,0.9-0.8,1.4c-0.3,0.4-0.6,0.8-1,1.1
				c-0.4,0.3-0.8,0.6-1.3,0.8C643.4,134.8,642.8,134.9,642.2,134.9z"/>
			<path class="st6" d="M654.7,134.6h-6.3v-0.7c0.6,0,1,0,1.2-0.1c0.3-0.1,0.4-0.3,0.5-0.5c0.1-0.2,0.1-0.6,0.1-1.1v-6.9
				c0-0.5,0-0.8-0.1-1c-0.1-0.2-0.3-0.3-0.8-0.3c-0.3,0-0.5,0-0.8,0.1v-0.7l3.1-0.8h0.6v2.6h0.1c0.4-0.6,0.8-1.1,1.2-1.5
				c0.3-0.4,0.7-0.7,1-0.9c0.3-0.2,0.7-0.3,1.1-0.3c0.5,0,0.9,0.1,1.1,0.4c0.2,0.3,0.4,0.6,0.4,1c0,0.5-0.1,0.8-0.3,1
				c-0.2,0.2-0.5,0.3-0.8,0.3c-0.3,0-0.5-0.1-0.7-0.2c-0.2-0.1-0.4-0.3-0.5-0.4c-0.2-0.1-0.3-0.2-0.4-0.2c-0.3,0-0.6,0.2-1,0.7
				c-0.4,0.4-0.7,0.9-1,1.4v5.8c0,0.5,0.1,0.9,0.2,1.2c0.1,0.3,0.4,0.4,0.7,0.5c0.3,0.1,0.8,0.1,1.5,0.1V134.6z"/>
			<path class="st6" d="M669.7,134.6H664v-0.7c0.6,0,1-0.1,1.2-0.2c0.2-0.1,0.4-0.3,0.5-0.6c0.1-0.3,0.1-0.6,0.1-1.1v-7
				c0-0.5-0.1-0.9-0.3-1c-0.2-0.1-0.5-0.2-0.8-0.2c-0.2,0-0.4,0-0.6,0.1v-0.7l3.2-0.7h0.7v9.6c0,0.5,0,0.9,0.1,1.1
				c0.1,0.3,0.2,0.5,0.5,0.6c0.3,0.1,0.7,0.2,1.2,0.2V134.6z M666.8,120.5c-0.4,0-0.8-0.1-1-0.4c-0.3-0.3-0.4-0.6-0.4-1
				c0-0.4,0.1-0.7,0.4-1c0.3-0.3,0.6-0.4,1-0.4c0.4,0,0.8,0.1,1,0.4s0.4,0.6,0.4,1c0,0.4-0.1,0.7-0.4,1
				C667.6,120.4,667.3,120.5,666.8,120.5z"/>
			<path class="st6" d="M677,134.6h-5.8v-0.7c0.6,0,1-0.1,1.2-0.2c0.2-0.1,0.4-0.3,0.5-0.6c0.1-0.3,0.1-0.6,0.1-1.1V125
				c0-0.5-0.1-0.8-0.3-0.9c-0.2-0.1-0.4-0.2-0.8-0.2c-0.2,0-0.4,0-0.7,0.1v-0.7l3.2-0.7h0.6l0,2.3l0.1,0.5v6.8c0,0.5,0,0.8,0.1,1.1
				c0.1,0.3,0.2,0.5,0.5,0.6c0.3,0.1,0.7,0.2,1.3,0.2V134.6z M684.4,134.6h-5.8v-0.7c0.6,0,1-0.1,1.3-0.2c0.3-0.1,0.4-0.3,0.5-0.6
				c0.1-0.3,0.1-0.6,0.1-1.1v-4.6c0-1-0.1-1.8-0.3-2.3c-0.2-0.5-0.5-0.8-0.9-1c-0.4-0.2-0.7-0.2-1.1-0.2c-0.5,0-0.9,0.1-1.3,0.3
				c-0.4,0.2-0.7,0.4-1,0.7c-0.3,0.3-0.6,0.5-0.9,0.8l-0.2-1.2h0.4c0.7-0.6,1.3-1.1,2-1.5c0.6-0.4,1.3-0.6,2.1-0.6
				c1.1,0,2,0.4,2.6,1.2c0.6,0.8,0.8,1.9,0.8,3.3v5.2c0,0.5,0,0.8,0.1,1.1c0.1,0.3,0.2,0.5,0.5,0.6c0.3,0.1,0.7,0.2,1.2,0.2V134.6z"
				/>
			<path class="st6" d="M701.2,130.9l0.5,0.4c-0.3,0.7-0.7,1.3-1.1,1.8c-0.4,0.6-0.9,1-1.5,1.3c-0.6,0.3-1.4,0.5-2.3,0.5
				c-1,0-1.9-0.3-2.7-0.8c-0.8-0.5-1.3-1.2-1.7-2.1c-0.4-0.9-0.6-1.9-0.6-3.1c0-1.3,0.2-2.5,0.7-3.5c0.4-1,1.1-1.7,1.9-2.3
				c0.8-0.5,1.9-0.8,3.1-0.8c1.2,0,2.1,0.3,2.8,0.8c0.7,0.5,1,1.2,1,1.9c0,0.4-0.1,0.7-0.3,0.8c-0.2,0.2-0.4,0.3-0.8,0.3
				c-0.4,0-0.7-0.1-0.8-0.3c-0.2-0.2-0.4-0.4-0.5-0.7c-0.1-0.3-0.2-0.6-0.4-0.9c-0.1-0.3-0.3-0.5-0.5-0.7c-0.2-0.2-0.6-0.3-1-0.3
				c-1,0-1.8,0.4-2.4,1.1c-0.6,0.7-0.9,1.8-0.9,3.3c0,1.5,0.3,2.8,0.9,3.8c0.6,1,1.6,1.5,2.9,1.5c0.8,0,1.5-0.2,2-0.5
				C700.1,132.2,700.6,131.6,701.2,130.9z"/>
			<path class="st6" d="M707.7,134.9c-1,0-1.9-0.3-2.4-1c-0.6-0.7-0.9-1.9-0.9-3.6v-5.1c0-0.5,0-0.8-0.1-1c-0.1-0.2-0.3-0.3-0.5-0.4
				c-0.3-0.1-0.6-0.1-1.1-0.1v-0.7l3.3-0.4h0.6v7.4c0,0.9,0.1,1.5,0.3,2c0.2,0.5,0.5,0.8,0.8,1c0.3,0.2,0.7,0.3,1.2,0.3
				c0.6,0,1.2-0.1,1.7-0.4c0.5-0.3,0.9-0.6,1.5-1.1v-6.6c0-0.5-0.1-0.8-0.2-1c-0.1-0.2-0.3-0.3-0.6-0.4c-0.3-0.1-0.7-0.1-1.3-0.1
				v-0.7l3.5-0.4h0.6v9.3c0,0.7,0.1,1.2,0.3,1.4c0.2,0.2,0.6,0.3,1.2,0.3h0.3v0.7l-3.2,0.6H712v-1.9h-0.1c-0.4,0.4-0.9,0.8-1.3,1.1
				c-0.4,0.3-0.9,0.5-1.3,0.7C708.8,134.8,708.3,134.9,707.7,134.9z"/>
			<path class="st6" d="M723.9,132.4l0.5,0.4c-0.3,0.5-0.6,0.8-0.9,1.1c-0.3,0.3-0.6,0.6-0.9,0.7c-0.3,0.2-0.8,0.3-1.3,0.3
				c-0.8,0-1.5-0.2-1.8-0.7c-0.4-0.5-0.6-1.3-0.6-2.4v-7.8h-1.4v-0.6c0.6-0.4,1.1-0.9,1.5-1.5c0.4-0.6,0.9-1.5,1.3-2.6h0.6v3.6h2.9
				v1.1H721v7.1c0,0.9,0.1,1.5,0.2,1.9c0.2,0.4,0.5,0.5,1,0.5c0.4,0,0.7-0.1,0.9-0.3C723.3,133,723.6,132.7,723.9,132.4z"/>
			<path class="st6" d="M731.5,132.4l0.5,0.4c-0.3,0.5-0.6,0.8-0.9,1.1c-0.3,0.3-0.6,0.6-0.9,0.7c-0.3,0.2-0.8,0.3-1.3,0.3
				c-0.8,0-1.5-0.2-1.8-0.7c-0.4-0.5-0.6-1.3-0.6-2.4v-7.8H725v-0.6c0.6-0.4,1.1-0.9,1.5-1.5c0.4-0.6,0.9-1.5,1.3-2.6h0.6v3.6h2.9
				v1.1h-2.9v7.1c0,0.9,0.1,1.5,0.2,1.9c0.2,0.4,0.5,0.5,1,0.5c0.4,0,0.7-0.1,0.9-0.3C730.9,133,731.2,132.7,731.5,132.4z"/>
			<path class="st6" d="M738.6,134.6h-5.7v-0.7c0.6,0,1-0.1,1.2-0.2c0.2-0.1,0.4-0.3,0.5-0.6c0.1-0.3,0.1-0.6,0.1-1.1v-7
				c0-0.5-0.1-0.9-0.3-1c-0.2-0.1-0.5-0.2-0.8-0.2c-0.2,0-0.4,0-0.6,0.1v-0.7l3.2-0.7h0.7v9.6c0,0.5,0,0.9,0.1,1.1
				c0.1,0.3,0.2,0.5,0.5,0.6c0.3,0.1,0.7,0.2,1.2,0.2V134.6z M735.7,120.5c-0.4,0-0.8-0.1-1-0.4c-0.3-0.3-0.4-0.6-0.4-1
				c0-0.4,0.1-0.7,0.4-1s0.6-0.4,1-0.4c0.4,0,0.8,0.1,1,0.4c0.3,0.3,0.4,0.6,0.4,1c0,0.4-0.1,0.7-0.4,1
				C736.5,120.4,736.2,120.5,735.7,120.5z"/>
			<path class="st6" d="M745.9,134.6h-5.8v-0.7c0.6,0,1-0.1,1.2-0.2c0.2-0.1,0.4-0.3,0.5-0.6c0.1-0.3,0.1-0.6,0.1-1.1V125
				c0-0.5-0.1-0.8-0.3-0.9c-0.2-0.1-0.4-0.2-0.8-0.2c-0.2,0-0.4,0-0.7,0.1v-0.7l3.2-0.7h0.6l0,2.3l0.1,0.5v6.8c0,0.5,0,0.8,0.1,1.1
				c0.1,0.3,0.2,0.5,0.5,0.6c0.3,0.1,0.7,0.2,1.3,0.2V134.6z M753.3,134.6h-5.8v-0.7c0.6,0,1-0.1,1.3-0.2c0.3-0.1,0.4-0.3,0.5-0.6
				c0.1-0.3,0.1-0.6,0.1-1.1v-4.6c0-1-0.1-1.8-0.3-2.3c-0.2-0.5-0.5-0.8-0.9-1c-0.4-0.2-0.7-0.2-1.1-0.2c-0.5,0-0.9,0.1-1.3,0.3
				c-0.4,0.2-0.7,0.4-1,0.7c-0.3,0.3-0.6,0.5-0.9,0.8l-0.2-1.2h0.4c0.7-0.6,1.3-1.1,2-1.5c0.6-0.4,1.3-0.6,2.1-0.6
				c1.1,0,2,0.4,2.6,1.2c0.6,0.8,0.8,1.9,0.8,3.3v5.2c0,0.5,0,0.8,0.1,1.1c0.1,0.3,0.2,0.5,0.5,0.6c0.3,0.1,0.7,0.2,1.2,0.2V134.6z"
				/>
			<path class="st6" d="M758.6,140.6c-1.1,0-2-0.1-2.6-0.4c-0.6-0.3-1.1-0.6-1.3-1c-0.3-0.4-0.4-0.9-0.4-1.3c0-0.4,0.2-0.9,0.5-1.3
				c0.3-0.5,0.9-1,1.5-1.7v-0.3l0.8,0.2c-0.3,0.5-0.5,1-0.7,1.3c-0.1,0.3-0.2,0.7-0.2,0.9c0,0.7,0.3,1.3,0.9,1.6
				c0.6,0.4,1.6,0.6,2.9,0.6c1,0,1.8-0.1,2.4-0.4c0.6-0.3,1.1-0.6,1.3-0.9c0.3-0.4,0.4-0.7,0.4-1.1c0-0.5-0.1-0.8-0.4-1
				c-0.3-0.2-0.7-0.4-1.1-0.5c-0.5-0.1-0.9-0.2-1.4-0.2c-0.5,0-1,0-1.4,0c-0.8,0-1.3,0-1.7,0c-0.4,0-0.7,0-0.8,0c-0.2,0-0.3,0-0.5,0
				l-0.3-0.1c-0.3-0.1-0.5-0.2-0.8-0.4c-0.3-0.2-0.5-0.4-0.6-0.7c-0.2-0.3-0.3-0.5-0.3-0.8c0-0.3,0.1-0.6,0.3-0.9
				c0.2-0.3,0.4-0.7,0.7-1c0.3-0.3,0.7-0.6,1.1-0.9v-0.2l0.7,0.5c-0.1,0.1-0.2,0.2-0.3,0.5c-0.1,0.2-0.2,0.5-0.3,0.7
				c-0.1,0.2-0.1,0.5-0.1,0.6c0,0.3,0.1,0.5,0.3,0.6c0.2,0.1,0.5,0.2,0.9,0.3c0.4,0.1,1,0.1,1.8,0.1c1.1,0,2,0.1,2.9,0.2
				c0.8,0.1,1.5,0.4,2,0.8c0.5,0.4,0.7,1.1,0.7,2.1c0,0.8-0.2,1.6-0.6,2.1c-0.4,0.6-1,1-1.6,1.4c-0.7,0.4-1.4,0.6-2.2,0.8
				C760.2,140.5,759.4,140.6,758.6,140.6z M759.8,130.7c-0.4,0-0.8,0-1.2-0.1c-0.4-0.1-0.7-0.2-1.1-0.3l-0.3-0.3
				c-0.4-0.2-0.8-0.5-1.1-0.8c-0.3-0.3-0.6-0.7-0.7-1.1c-0.2-0.4-0.3-1-0.3-1.5c0-0.8,0.2-1.6,0.6-2.2c0.4-0.6,0.9-1.1,1.6-1.4
				c0.7-0.3,1.5-0.5,2.4-0.5c0.5,0,1,0,1.4,0.1c0.4,0.1,0.9,0.2,1.3,0.4c0.4,0.2,0.7,0.4,1,0.7v0.7c0.2,0.3,0.4,0.6,0.6,1
				c0.2,0.4,0.3,1,0.3,1.6c0,0.8-0.2,1.5-0.6,2c-0.4,0.6-0.9,1-1.6,1.3C761.5,130.5,760.7,130.7,759.8,130.7z M759.8,129.8
				c0.6,0,1.2-0.2,1.6-0.7c0.4-0.4,0.6-1.3,0.6-2.5c0-1-0.2-1.9-0.7-2.5c-0.4-0.6-1.1-0.9-1.9-0.9c-0.7,0-1.2,0.3-1.6,0.8
				c-0.4,0.5-0.6,1.3-0.6,2.3c0,1.1,0.2,1.9,0.6,2.5C758.4,129.5,759,129.8,759.8,129.8z M765.7,122.8v1.4l-2.7-0.1l-0.9-1.1
				L765.7,122.8z"/>
			<path class="st6" d="M772.6,129.1h-5.7v-1.6h5.7V129.1z"/>
			<path class="st6" d="M780.2,134.9c-1,0-1.9-0.2-2.7-0.7c-0.8-0.5-1.5-1.2-1.9-2.1c-0.5-0.9-0.7-2.1-0.7-3.4
				c0-1.4,0.2-2.6,0.7-3.5c0.5-0.9,1.1-1.6,1.9-2.1c0.8-0.5,1.7-0.7,2.7-0.7c1.4,0,2.5,0.5,3.3,1.4c0.8,1,1.3,2.3,1.4,4.1h-8.2
				l0-0.9h5.9c0-0.6-0.1-1.2-0.3-1.8c-0.2-0.5-0.5-1-0.9-1.3c-0.4-0.3-0.9-0.5-1.5-0.5c-1,0-1.7,0.4-2.2,1.1
				c-0.5,0.8-0.7,1.8-0.7,3.2c0,1.2,0.2,2.1,0.6,2.9c0.4,0.8,0.9,1.4,1.5,1.7s1.3,0.6,1.9,0.6s1.3-0.1,1.7-0.3
				c0.4-0.2,0.8-0.4,1.1-0.7c0.3-0.3,0.6-0.6,0.9-1l0.5,0.4c-0.2,0.5-0.5,0.9-0.8,1.4c-0.3,0.4-0.6,0.8-1,1.1
				c-0.4,0.3-0.8,0.6-1.3,0.8C781.5,134.8,780.9,134.9,780.2,134.9z"/>
			<path class="st6" d="M790.9,134.8c-0.9,0-1.7-0.3-2.4-0.8c-0.6-0.5-1.1-1.2-1.5-2.1c-0.3-0.9-0.5-1.8-0.5-2.9
				c0-1.4,0.3-2.6,0.8-3.6c0.5-1,1.2-1.8,2.1-2.3c0.9-0.5,1.9-0.8,2.9-0.8c0.4,0,0.8,0.1,1.2,0.2c0.4,0.1,0.8,0.3,1.1,0.5h0.1v-3.3
				c0-0.6-0.1-0.9-0.2-1.1c-0.1-0.2-0.4-0.3-0.9-0.3c-0.1,0-0.3,0-0.7,0.1v-0.7l3.2-0.9h0.7v15.1c0,0.7,0.1,1.1,0.3,1.3
				c0.2,0.2,0.5,0.3,1,0.3h0.5v0.7l-3.2,0.6h-0.6V133h-0.1c-0.5,0.4-1,0.8-1.7,1.2C792.5,134.6,791.7,134.8,790.9,134.8z M792.1,133
				c0.6,0,1.1-0.1,1.5-0.2c0.4-0.2,0.8-0.4,1.3-0.7v-6.7c-0.1-0.5-0.3-1-0.7-1.4c-0.4-0.4-1-0.6-1.8-0.6c-1.1,0-1.9,0.4-2.6,1.2
				c-0.7,0.8-1,2-1,3.6c0,1.7,0.3,3,0.8,3.8C790.2,132.6,791,133,792.1,133z"/>
			<path class="st6" d="M804.2,140.6c-1.1,0-2-0.1-2.6-0.4c-0.6-0.3-1.1-0.6-1.3-1c-0.3-0.4-0.4-0.9-0.4-1.3c0-0.4,0.2-0.9,0.5-1.3
				c0.3-0.5,0.9-1,1.5-1.7v-0.3l0.8,0.2c-0.3,0.5-0.5,1-0.7,1.3c-0.1,0.3-0.2,0.7-0.2,0.9c0,0.7,0.3,1.3,0.9,1.6
				c0.6,0.4,1.6,0.6,2.9,0.6c1,0,1.8-0.1,2.4-0.4c0.6-0.3,1.1-0.6,1.3-0.9c0.3-0.4,0.4-0.7,0.4-1.1c0-0.5-0.1-0.8-0.4-1
				c-0.3-0.2-0.7-0.4-1.1-0.5c-0.5-0.1-0.9-0.2-1.4-0.2c-0.5,0-1,0-1.4,0c-0.8,0-1.3,0-1.7,0c-0.4,0-0.7,0-0.8,0c-0.2,0-0.3,0-0.5,0
				l-0.3-0.1c-0.3-0.1-0.5-0.2-0.8-0.4c-0.3-0.2-0.5-0.4-0.6-0.7c-0.2-0.3-0.3-0.5-0.3-0.8c0-0.3,0.1-0.6,0.3-0.9
				c0.2-0.3,0.4-0.7,0.7-1c0.3-0.3,0.7-0.6,1.1-0.9v-0.2l0.7,0.5c-0.1,0.1-0.2,0.2-0.3,0.5c-0.1,0.2-0.2,0.5-0.3,0.7
				c-0.1,0.2-0.1,0.5-0.1,0.6c0,0.3,0.1,0.5,0.3,0.6c0.2,0.1,0.5,0.2,0.9,0.3c0.4,0.1,1,0.1,1.8,0.1c1.1,0,2,0.1,2.9,0.2
				c0.8,0.1,1.5,0.4,2,0.8c0.5,0.4,0.7,1.1,0.7,2.1c0,0.8-0.2,1.6-0.6,2.1c-0.4,0.6-1,1-1.6,1.4c-0.7,0.4-1.4,0.6-2.2,0.8
				C805.8,140.5,805,140.6,804.2,140.6z M805.3,130.7c-0.4,0-0.8,0-1.2-0.1c-0.4-0.1-0.7-0.2-1.1-0.3l-0.3-0.3
				c-0.4-0.2-0.8-0.5-1.1-0.8c-0.3-0.3-0.6-0.7-0.7-1.1c-0.2-0.4-0.3-1-0.3-1.5c0-0.8,0.2-1.6,0.6-2.2c0.4-0.6,0.9-1.1,1.6-1.4
				c0.7-0.3,1.5-0.5,2.4-0.5c0.5,0,1,0,1.4,0.1c0.4,0.1,0.9,0.2,1.3,0.4c0.4,0.2,0.7,0.4,1,0.7v0.7c0.2,0.3,0.4,0.6,0.6,1
				c0.2,0.4,0.3,1,0.3,1.6c0,0.8-0.2,1.5-0.6,2c-0.4,0.6-0.9,1-1.6,1.3C807,130.5,806.2,130.7,805.3,130.7z M805.4,129.8
				c0.6,0,1.2-0.2,1.6-0.7c0.4-0.4,0.6-1.3,0.6-2.5c0-1-0.2-1.9-0.7-2.5c-0.4-0.6-1.1-0.9-1.9-0.9c-0.7,0-1.2,0.3-1.6,0.8
				c-0.4,0.5-0.6,1.3-0.6,2.3c0,1.1,0.2,1.9,0.6,2.5C803.9,129.5,804.5,129.8,805.4,129.8z M811.3,122.8v1.4l-2.7-0.1l-0.9-1.1
				L811.3,122.8z"/>
			<path class="st6" d="M817.9,134.9c-1,0-1.9-0.2-2.7-0.7c-0.8-0.5-1.5-1.2-1.9-2.1c-0.5-0.9-0.7-2.1-0.7-3.4
				c0-1.4,0.2-2.6,0.7-3.5c0.5-0.9,1.1-1.6,1.9-2.1c0.8-0.5,1.7-0.7,2.7-0.7c1.4,0,2.5,0.5,3.3,1.4c0.8,1,1.3,2.3,1.4,4.1h-8.2
				l0-0.9h5.9c0-0.6-0.1-1.2-0.3-1.8c-0.2-0.5-0.5-1-0.9-1.3c-0.4-0.3-0.9-0.5-1.5-0.5c-1,0-1.7,0.4-2.2,1.1
				c-0.5,0.8-0.7,1.8-0.7,3.2c0,1.2,0.2,2.1,0.6,2.9c0.4,0.8,0.9,1.4,1.5,1.7s1.3,0.6,1.9,0.6s1.3-0.1,1.7-0.3
				c0.4-0.2,0.8-0.4,1.1-0.7c0.3-0.3,0.6-0.6,0.9-1l0.5,0.4c-0.2,0.5-0.5,0.9-0.8,1.4c-0.3,0.4-0.6,0.8-1,1.1
				c-0.4,0.3-0.8,0.6-1.3,0.8C819.2,134.8,818.6,134.9,817.9,134.9z"/>
			<path class="st6" d="M836,134.8h-1.2l-3.8-9.5c-0.2-0.5-0.4-0.9-0.6-1.2c-0.2-0.3-0.4-0.4-0.6-0.5c-0.2-0.1-0.5-0.1-0.9-0.1v-0.7
				h5.4v0.7c-0.5,0-0.9,0.1-1,0.2c-0.2,0.1-0.3,0.3-0.3,0.5c0,0.2,0,0.3,0.1,0.5c0.1,0.2,0.1,0.3,0.2,0.5l2.2,5.6l0.5,1.5h0.2
				l0.5-1.5l1.9-4.9l0.8,1.7H839L836,134.8z M843,134.8h-1.2l-2.8-7.7l-0.4-0.7l-0.4-1.1c-0.2-0.6-0.4-1-0.6-1.2
				c-0.2-0.3-0.4-0.4-0.6-0.5c-0.2-0.1-0.5-0.1-0.9-0.1v-0.7h5.3v0.7c-0.5,0-0.8,0.1-1,0.2c-0.2,0.1-0.3,0.3-0.3,0.5
				c0,0.2,0,0.3,0.1,0.5c0,0.2,0.1,0.4,0.2,0.5l2,5.5l0.5,1.5h0.2l0.5-1.5l2-5.7c0-0.1,0-0.2,0.1-0.3c0-0.2,0.1-0.3,0.1-0.6
				c0-0.2-0.1-0.4-0.4-0.5c-0.2-0.1-0.6-0.1-1.1-0.1v-0.7h4.4v0.7c-0.5,0-0.9,0.1-1.1,0.3c-0.3,0.2-0.5,0.7-0.8,1.3L843,134.8z"/>
			<path class="st6" d="M854.4,134.9c-1,0-1.9-0.2-2.7-0.7c-0.8-0.5-1.5-1.2-1.9-2.1c-0.5-0.9-0.7-2.1-0.7-3.4
				c0-1.4,0.2-2.6,0.7-3.5c0.5-0.9,1.1-1.6,1.9-2.1c0.8-0.5,1.7-0.7,2.7-0.7c1.4,0,2.5,0.5,3.3,1.4c0.8,1,1.3,2.3,1.4,4.1h-8.2
				l0-0.9h5.9c0-0.6-0.1-1.2-0.3-1.8c-0.2-0.5-0.5-1-0.9-1.3c-0.4-0.3-0.9-0.5-1.5-0.5c-1,0-1.7,0.4-2.2,1.1
				c-0.5,0.8-0.7,1.8-0.7,3.2c0,1.2,0.2,2.1,0.6,2.9c0.4,0.8,0.9,1.4,1.5,1.7s1.3,0.6,1.9,0.6s1.3-0.1,1.7-0.3
				c0.4-0.2,0.8-0.4,1.1-0.7c0.3-0.3,0.6-0.6,0.9-1l0.5,0.4c-0.2,0.5-0.5,0.9-0.8,1.4c-0.3,0.4-0.6,0.8-1,1.1
				c-0.4,0.3-0.8,0.6-1.3,0.8C855.6,134.8,855,134.9,854.4,134.9z"/>
			<path class="st6" d="M863.3,116.8h0.7v7.7h0.1c0.4-0.5,1-1,1.6-1.5c0.7-0.4,1.4-0.7,2.2-0.7s1.6,0.2,2.2,0.7
				c0.6,0.5,1.1,1.1,1.5,2c0.4,0.8,0.5,1.8,0.5,2.9c0,1.5-0.3,2.8-0.8,3.8c-0.5,1-1.2,1.8-2.1,2.3c-0.9,0.5-2,0.8-3.1,0.8
				c-1.1,0-2-0.1-2.7-0.4c-0.7-0.3-1.2-0.5-1.5-0.6v-14.2c0-0.6-0.1-0.9-0.2-1.1c-0.1-0.2-0.4-0.2-0.9-0.2c-0.2,0-0.4,0-0.7,0.1
				v-0.7L863.3,116.8z M864,125.6v7c0.2,0.3,0.6,0.6,1,0.8c0.4,0.3,0.9,0.4,1.6,0.4c0.8,0,1.5-0.2,1.9-0.7c0.5-0.5,0.8-1.1,1-1.8
				c0.2-0.8,0.3-1.6,0.3-2.5c0-0.8-0.1-1.6-0.3-2.3c-0.2-0.7-0.5-1.3-0.9-1.7c-0.4-0.4-1.1-0.7-1.9-0.7c-0.6,0-1.2,0.2-1.7,0.5
				C864.6,125,864.2,125.3,864,125.6z"/>
			<path class="st6" d="M453.7,165.2c-0.9,0-1.7-0.3-2.4-0.8c-0.6-0.5-1.1-1.2-1.5-2.1c-0.3-0.9-0.5-1.8-0.5-2.9
				c0-1.4,0.3-2.6,0.8-3.6c0.5-1,1.2-1.8,2.1-2.3c0.9-0.5,1.9-0.8,2.9-0.8c0.4,0,0.8,0.1,1.2,0.2c0.4,0.1,0.8,0.3,1.1,0.5h0.1V150
				c0-0.6-0.1-0.9-0.2-1.1c-0.1-0.2-0.4-0.3-0.9-0.3c-0.1,0-0.3,0-0.7,0.1V148l3.2-0.9h0.7v15.1c0,0.7,0.1,1.1,0.3,1.3
				c0.2,0.2,0.5,0.3,1,0.3h0.5v0.7l-3.2,0.6h-0.6v-1.7h-0.1c-0.5,0.4-1,0.8-1.7,1.2C455.3,165,454.5,165.2,453.7,165.2z
				 M454.9,163.3c0.6,0,1.1-0.1,1.5-0.2c0.4-0.2,0.8-0.4,1.3-0.7v-6.7c-0.1-0.5-0.3-1-0.7-1.4c-0.4-0.4-1-0.6-1.8-0.6
				c-1.1,0-1.9,0.4-2.6,1.2c-0.7,0.8-1,2-1,3.6c0,1.7,0.3,3,0.8,3.8C453,163,453.8,163.3,454.9,163.3z"/>
			<path class="st6" d="M468.4,165.2c-1,0-1.9-0.2-2.7-0.7c-0.8-0.5-1.5-1.2-1.9-2.1c-0.5-0.9-0.7-2.1-0.7-3.4
				c0-1.4,0.2-2.6,0.7-3.5c0.5-0.9,1.1-1.6,1.9-2.1c0.8-0.5,1.7-0.7,2.7-0.7c1.4,0,2.5,0.5,3.3,1.4c0.8,1,1.3,2.3,1.4,4.1h-8.2
				l0-0.9h5.9c0-0.6-0.1-1.2-0.3-1.8c-0.2-0.5-0.5-1-0.9-1.3c-0.4-0.3-0.9-0.5-1.5-0.5c-1,0-1.7,0.4-2.2,1.1
				c-0.5,0.8-0.7,1.8-0.7,3.2c0,1.2,0.2,2.1,0.6,2.9c0.4,0.8,0.9,1.4,1.5,1.7c0.6,0.4,1.3,0.6,1.9,0.6c0.7,0,1.3-0.1,1.7-0.3
				c0.4-0.2,0.8-0.4,1.1-0.7c0.3-0.3,0.6-0.6,0.9-1l0.5,0.4c-0.2,0.5-0.5,0.9-0.8,1.4c-0.3,0.4-0.6,0.8-1,1.1
				c-0.4,0.3-0.8,0.6-1.3,0.8C469.6,165.1,469.1,165.2,468.4,165.2z"/>
			<path class="st6" d="M480.6,165.1h-1.2l-3.8-9.5c-0.2-0.5-0.4-0.9-0.6-1.2c-0.2-0.3-0.4-0.4-0.6-0.5c-0.2-0.1-0.5-0.1-0.9-0.1
				V153h5.3v0.7c-0.5,0-0.8,0.1-1,0.2c-0.2,0.1-0.3,0.3-0.3,0.5c0,0.2,0,0.3,0.1,0.5s0.1,0.3,0.2,0.5l2.1,5.6l0.5,1.5h0.2l0.5-1.5
				l2.2-5.7c0-0.1,0.1-0.2,0.1-0.3c0.1-0.1,0.1-0.3,0.1-0.5c0-0.3-0.1-0.5-0.4-0.6c-0.3-0.1-0.6-0.1-1.1-0.1V153h4.4v0.7
				c-0.5,0-0.9,0.1-1.1,0.3c-0.3,0.2-0.5,0.7-0.8,1.3L480.6,165.1z"/>
			<path class="st6" d="M492.1,165.2c-1,0-1.9-0.2-2.7-0.7s-1.5-1.2-1.9-2.1c-0.5-0.9-0.7-2.1-0.7-3.4c0-1.4,0.2-2.6,0.7-3.5
				c0.5-0.9,1.1-1.6,1.9-2.1c0.8-0.5,1.7-0.7,2.7-0.7c1.4,0,2.5,0.5,3.3,1.4c0.8,1,1.3,2.3,1.4,4.1h-8.2l0-0.9h5.9
				c0-0.6-0.1-1.2-0.3-1.8c-0.2-0.5-0.5-1-0.9-1.3c-0.4-0.3-0.9-0.5-1.5-0.5c-1,0-1.7,0.4-2.2,1.1c-0.5,0.8-0.7,1.8-0.7,3.2
				c0,1.2,0.2,2.1,0.6,2.9c0.4,0.8,0.9,1.4,1.5,1.7c0.6,0.4,1.3,0.6,1.9,0.6c0.7,0,1.3-0.1,1.7-0.3c0.4-0.2,0.8-0.4,1.1-0.7
				c0.3-0.3,0.6-0.6,0.9-1l0.5,0.4c-0.2,0.5-0.5,0.9-0.8,1.4c-0.3,0.4-0.6,0.8-1,1.1s-0.8,0.6-1.3,0.8
				C493.4,165.1,492.8,165.2,492.1,165.2z"/>
			<path class="st6" d="M504.2,165h-5.8v-0.7c0.6,0,1-0.1,1.2-0.2c0.3-0.1,0.4-0.3,0.5-0.6c0.1-0.3,0.1-0.6,0.1-1.1v-12.7
				c0-0.5-0.1-0.8-0.3-0.9c-0.2-0.1-0.5-0.2-0.8-0.2c-0.2,0-0.5,0-0.8,0.1V148l3.3-0.9h0.6v15.3c0,0.5,0,0.9,0.1,1.1
				c0.1,0.3,0.2,0.4,0.5,0.5s0.7,0.2,1.3,0.2V165z"/>
			<path class="st6" d="M511.3,165.2c-1.8,0-3.2-0.6-4.2-1.7c-1-1.1-1.5-2.7-1.5-4.7c0-1.2,0.2-2.3,0.7-3.2c0.5-0.9,1.1-1.6,2-2.1
				c0.9-0.5,1.8-0.8,3-0.8c1.7,0,3.1,0.5,4.1,1.6c1,1.1,1.5,2.6,1.5,4.4c0,1.4-0.2,2.6-0.7,3.6c-0.5,1-1.1,1.7-2,2.2
				C513.4,165,512.4,165.2,511.3,165.2z M511.4,164.2c0.7,0,1.3-0.2,1.7-0.5c0.5-0.3,0.8-0.9,1.1-1.6c0.2-0.8,0.4-1.8,0.4-3.2
				c0-1.5-0.3-2.8-0.8-3.8c-0.6-1-1.4-1.4-2.5-1.4c-1,0-1.7,0.4-2.3,1.2c-0.6,0.8-0.9,2-0.9,3.6c0,2,0.3,3.5,0.9,4.4
				C509.5,163.8,510.3,164.2,511.4,164.2z"/>
			<path class="st6" d="M524.7,170.5h-6.4v-0.7c0.8,0,1.3-0.1,1.5-0.4c0.2-0.3,0.3-0.7,0.3-1.5v-12.5c0-0.5-0.1-0.8-0.2-1
				c-0.1-0.2-0.4-0.3-0.8-0.3c-0.2,0-0.4,0-0.8,0.1v-0.7l3.2-0.7h0.6v2.1h0.1c0.6-0.7,1.2-1.3,1.9-1.6c0.6-0.4,1.3-0.6,2.1-0.6
				c0.8,0,1.6,0.2,2.2,0.7c0.6,0.5,1.1,1.1,1.5,2c0.4,0.9,0.5,1.8,0.5,2.9c0,1.4-0.2,2.7-0.7,3.7c-0.5,1-1.2,1.8-2,2.3
				c-0.8,0.5-1.8,0.8-2.8,0.8c-0.5,0-0.9-0.1-1.4-0.2c-0.4-0.1-0.8-0.3-1.2-0.5h-0.1v3.3c0,0.5,0.1,1,0.2,1.2
				c0.1,0.3,0.4,0.5,0.7,0.6c0.4,0.1,0.9,0.2,1.5,0.2V170.5z M525,164.2c0.9,0,1.6-0.4,2.2-1.3c0.6-0.8,0.9-2.1,0.9-3.9
				c0-1.6-0.3-2.8-0.8-3.5c-0.5-0.7-1.3-1.1-2.2-1.1c-0.7,0-1.3,0.2-1.8,0.5c-0.5,0.4-0.9,0.7-1.1,1v6.6c0.2,0.2,0.4,0.4,0.6,0.7
				c0.3,0.3,0.6,0.5,0.9,0.7C524.2,164.1,524.6,164.2,525,164.2z"/>
			<path class="st6" d="M537.9,165h-5.8v-0.7c0.5,0,0.9,0,1.2-0.1c0.2-0.1,0.4-0.3,0.5-0.5c0.1-0.3,0.1-0.6,0.1-1.1v-7.1
				c0-0.5-0.1-0.8-0.3-0.9c-0.2-0.2-0.4-0.2-0.8-0.2c-0.2,0-0.4,0-0.7,0.1v-0.7l3.2-0.7h0.6v2.3l0.1,0.6v6.8c0,0.5,0.1,0.8,0.2,1.1
				c0.1,0.2,0.3,0.4,0.6,0.5c0.3,0.1,0.7,0.1,1.2,0.1V165z M545.2,165h-6v-0.7c0.6,0,1-0.1,1.3-0.2c0.3-0.1,0.4-0.3,0.5-0.7
				c0.1-0.3,0.1-0.8,0.1-1.4v-5c0-1.1-0.2-1.8-0.6-2.2c-0.4-0.4-0.9-0.5-1.5-0.5c-0.5,0-0.9,0.1-1.3,0.3c-0.4,0.2-0.8,0.4-1.1,0.7
				c-0.3,0.3-0.6,0.5-0.9,0.8l-0.2-1.3h0.4c0.7-0.6,1.4-1.1,2-1.5c0.6-0.4,1.4-0.6,2.2-0.6c0.8,0,1.4,0.2,1.8,0.7
				c0.5,0.4,0.8,1,1,1.6c0,0.1,0.1,0.1,0.1,0.2c0,0.1,0,0.1,0.1,0.2v6.7c0,0.6,0,1,0.1,1.3c0.1,0.3,0.2,0.5,0.5,0.7
				c0.3,0.1,0.7,0.2,1.3,0.2V165z M552.3,165h-5.7v-0.7c0.6,0,1-0.1,1.2-0.2c0.3-0.2,0.4-0.4,0.5-0.7c0.1-0.3,0.1-0.7,0.1-1.3v-4.9
				c0-0.8-0.1-1.4-0.3-1.8c-0.2-0.4-0.5-0.7-0.8-0.8c-0.3-0.2-0.7-0.2-1.1-0.2c-0.6,0-1.1,0.2-1.6,0.6c-0.5,0.4-1,0.8-1.5,1.1
				l-0.3-1.3h0.4c0.7-0.7,1.4-1.2,2-1.6c0.7-0.4,1.3-0.5,2-0.5c1,0,1.8,0.3,2.4,0.9c0.6,0.6,0.9,1.7,0.9,3.2v5.2
				c0,0.5,0,0.9,0.1,1.3c0.1,0.3,0.2,0.6,0.5,0.7s0.7,0.2,1.3,0.2V165z"/>
			<path class="st6" d="M559.1,165.2c-1,0-1.9-0.2-2.7-0.7s-1.5-1.2-1.9-2.1c-0.5-0.9-0.7-2.1-0.7-3.4c0-1.4,0.2-2.6,0.7-3.5
				c0.5-0.9,1.1-1.6,1.9-2.1c0.8-0.5,1.7-0.7,2.7-0.7c1.4,0,2.5,0.5,3.3,1.4c0.8,1,1.3,2.3,1.4,4.1h-8.2l0-0.9h5.9
				c0-0.6-0.1-1.2-0.3-1.8c-0.2-0.5-0.5-1-0.9-1.3c-0.4-0.3-0.9-0.5-1.5-0.5c-1,0-1.7,0.4-2.2,1.1c-0.5,0.8-0.7,1.8-0.7,3.2
				c0,1.2,0.2,2.1,0.6,2.9c0.4,0.8,0.9,1.4,1.5,1.7c0.6,0.4,1.3,0.6,1.9,0.6c0.7,0,1.3-0.1,1.7-0.3c0.4-0.2,0.8-0.4,1.1-0.7
				c0.3-0.3,0.6-0.6,0.9-1l0.5,0.4c-0.2,0.5-0.5,0.9-0.8,1.4c-0.3,0.4-0.6,0.8-1,1.1c-0.4,0.3-0.8,0.6-1.3,0.8
				C560.3,165.1,559.7,165.2,559.1,165.2z"/>
			<path class="st6" d="M571.2,165h-5.8v-0.7c0.6,0,1-0.1,1.2-0.2c0.2-0.1,0.4-0.3,0.5-0.6c0.1-0.3,0.1-0.6,0.1-1.1v-7.1
				c0-0.5-0.1-0.8-0.3-0.9c-0.2-0.1-0.4-0.2-0.8-0.2c-0.2,0-0.4,0-0.7,0.1v-0.7l3.2-0.7h0.6l0,2.3l0.1,0.5v6.8c0,0.5,0,0.8,0.1,1.1
				c0.1,0.3,0.2,0.5,0.5,0.6c0.3,0.1,0.7,0.2,1.3,0.2V165z M578.6,165h-5.8v-0.7c0.6,0,1-0.1,1.3-0.2c0.3-0.1,0.4-0.3,0.5-0.6
				c0.1-0.3,0.1-0.6,0.1-1.1v-4.6c0-1-0.1-1.8-0.3-2.3c-0.2-0.5-0.5-0.8-0.9-1c-0.4-0.2-0.7-0.2-1.1-0.2c-0.5,0-0.9,0.1-1.3,0.3
				c-0.4,0.2-0.7,0.4-1,0.7c-0.3,0.3-0.6,0.5-0.9,0.8l-0.2-1.2h0.4c0.7-0.6,1.3-1.1,2-1.5c0.6-0.4,1.3-0.6,2.1-0.6
				c1.1,0,2,0.4,2.6,1.2c0.6,0.8,0.8,1.9,0.8,3.3v5.2c0,0.5,0,0.8,0.1,1.1c0.1,0.3,0.2,0.5,0.5,0.6c0.3,0.1,0.7,0.2,1.2,0.2V165z"/>
			<path class="st6" d="M586.5,162.7l0.5,0.4c-0.3,0.5-0.6,0.8-0.9,1.1c-0.3,0.3-0.6,0.6-0.9,0.7c-0.3,0.2-0.8,0.3-1.3,0.3
				c-0.8,0-1.5-0.2-1.8-0.7c-0.4-0.5-0.6-1.3-0.6-2.4v-7.8h-1.4v-0.6c0.6-0.4,1.1-0.9,1.5-1.5c0.4-0.6,0.9-1.5,1.3-2.6h0.6v3.6h2.9
				v1.1h-2.9v7.1c0,0.9,0.1,1.5,0.2,1.9c0.2,0.4,0.5,0.5,1,0.5c0.4,0,0.7-0.1,0.9-0.3C585.9,163.3,586.2,163,586.5,162.7z"/>
			<path class="st6" d="M597,165.1c-1,0-1.7-0.3-2.2-0.8c-0.5-0.5-0.8-1.2-0.8-2c0-0.7,0.2-1.2,0.5-1.7c0.3-0.5,0.7-0.9,1.2-1.2
				c0.5-0.3,1.1-0.6,1.7-0.8c0.6-0.2,1.2-0.4,1.8-0.6c0.6-0.2,1.1-0.3,1.5-0.4v-1.1c0-1.1-0.2-1.9-0.6-2.3c-0.4-0.5-0.9-0.7-1.7-0.7
				c-0.7,0-1.2,0.2-1.4,0.5c-0.2,0.3-0.3,0.8-0.3,1.6c0,0.4-0.1,0.7-0.3,0.9c-0.2,0.2-0.5,0.3-0.8,0.3c-0.3,0-0.5-0.1-0.7-0.3
				s-0.3-0.5-0.3-0.9c0-0.5,0.2-0.9,0.5-1.3c0.4-0.4,0.9-0.8,1.5-1c0.7-0.3,1.5-0.4,2.4-0.4c1.4,0,2.4,0.3,2.9,1
				c0.6,0.6,0.9,1.6,0.9,2.9v5.7c0,0.5,0.1,0.9,0.2,1c0.1,0.2,0.3,0.2,0.6,0.2c0.2,0,0.4-0.1,0.6-0.2c0.2-0.1,0.4-0.3,0.5-0.5
				l0.4,0.4c-0.4,0.6-0.8,1-1.2,1.3c-0.4,0.3-0.9,0.4-1.5,0.4c-0.6,0-1-0.2-1.1-0.5c-0.2-0.3-0.3-0.8-0.4-1.4l-0.2-0.3v-4.4
				c-0.8,0.2-1.5,0.4-2.1,0.7c-0.7,0.3-1.2,0.6-1.6,1c-0.4,0.4-0.6,0.9-0.6,1.6c0,0.6,0.2,1.1,0.5,1.5c0.3,0.4,0.8,0.6,1.3,0.6
				c0.4,0,0.9-0.1,1.4-0.3c0.5-0.2,0.9-0.5,1.4-0.9l0.2,0.9h-0.3c-0.4,0.3-0.8,0.6-1.1,0.9c-0.4,0.3-0.7,0.5-1.2,0.6
				C598,165.1,597.5,165.1,597,165.1z"/>
			<path class="st6" d="M611.7,165h-5.8v-0.7c0.6,0,1-0.1,1.2-0.2c0.2-0.1,0.4-0.3,0.5-0.6c0.1-0.3,0.1-0.6,0.1-1.1v-7.1
				c0-0.5-0.1-0.8-0.3-0.9c-0.2-0.1-0.4-0.2-0.8-0.2c-0.2,0-0.4,0-0.7,0.1v-0.7l3.2-0.7h0.6l0,2.3l0.1,0.5v6.8c0,0.5,0,0.8,0.1,1.1
				c0.1,0.3,0.2,0.5,0.5,0.6c0.3,0.1,0.7,0.2,1.3,0.2V165z M619.2,165h-5.8v-0.7c0.6,0,1-0.1,1.3-0.2c0.3-0.1,0.4-0.3,0.5-0.6
				c0.1-0.3,0.1-0.6,0.1-1.1v-4.6c0-1-0.1-1.8-0.3-2.3c-0.2-0.5-0.5-0.8-0.9-1c-0.4-0.2-0.7-0.2-1.1-0.2c-0.5,0-0.9,0.1-1.3,0.3
				c-0.4,0.2-0.7,0.4-1,0.7c-0.3,0.3-0.6,0.5-0.9,0.8l-0.2-1.2h0.4c0.7-0.6,1.3-1.1,2-1.5c0.6-0.4,1.3-0.6,2.1-0.6
				c1.1,0,2,0.4,2.6,1.2c0.6,0.8,0.8,1.9,0.8,3.3v5.2c0,0.5,0,0.8,0.1,1.1c0.1,0.3,0.2,0.5,0.5,0.6c0.3,0.1,0.7,0.2,1.2,0.2V165z"/>
			<path class="st6" d="M624.8,165.2c-0.9,0-1.7-0.3-2.4-0.8c-0.6-0.5-1.1-1.2-1.5-2.1c-0.3-0.9-0.5-1.8-0.5-2.9
				c0-1.4,0.3-2.6,0.8-3.6c0.5-1,1.2-1.8,2.1-2.3c0.9-0.5,1.9-0.8,2.9-0.8c0.4,0,0.8,0.1,1.2,0.2c0.4,0.1,0.8,0.3,1.1,0.5h0.1V150
				c0-0.6-0.1-0.9-0.2-1.1c-0.1-0.2-0.4-0.3-0.9-0.3c-0.1,0-0.3,0-0.7,0.1V148l3.2-0.9h0.7v15.1c0,0.7,0.1,1.1,0.3,1.3
				c0.2,0.2,0.5,0.3,1,0.3h0.5v0.7l-3.2,0.6h-0.6v-1.7h-0.1c-0.5,0.4-1,0.8-1.7,1.2C626.4,165,625.7,165.2,624.8,165.2z M626,163.3
				c0.6,0,1.1-0.1,1.5-0.2c0.4-0.2,0.8-0.4,1.3-0.7v-6.7c-0.1-0.5-0.3-1-0.7-1.4c-0.4-0.4-1-0.6-1.8-0.6c-1.1,0-1.9,0.4-2.6,1.2
				c-0.7,0.8-1,2-1,3.6c0,1.7,0.3,3,0.8,3.8C624.1,163,625,163.3,626,163.3z"/>
			<path class="st6" d="M645.7,165H640v-0.7c0.6,0,1-0.1,1.2-0.2c0.2-0.1,0.4-0.3,0.5-0.6c0.1-0.3,0.1-0.6,0.1-1.1v-7
				c0-0.5-0.1-0.9-0.3-1c-0.2-0.1-0.5-0.2-0.8-0.2c-0.2,0-0.4,0-0.6,0.1v-0.7l3.2-0.7h0.7v9.6c0,0.5,0,0.9,0.1,1.1
				c0.1,0.3,0.2,0.5,0.5,0.6c0.3,0.1,0.7,0.2,1.2,0.2V165z M642.9,150.8c-0.4,0-0.8-0.1-1-0.4c-0.3-0.3-0.4-0.6-0.4-1
				c0-0.4,0.1-0.7,0.4-1c0.3-0.3,0.6-0.4,1-0.4c0.4,0,0.8,0.1,1,0.4c0.3,0.3,0.4,0.6,0.4,1c0,0.4-0.1,0.7-0.4,1
				C643.7,150.7,643.3,150.8,642.9,150.8z"/>
			<path class="st6" d="M653,165h-5.8v-0.7c0.6,0,1-0.1,1.2-0.2c0.2-0.1,0.4-0.3,0.5-0.6c0.1-0.3,0.1-0.6,0.1-1.1v-7.1
				c0-0.5-0.1-0.8-0.3-0.9c-0.2-0.1-0.4-0.2-0.8-0.2c-0.2,0-0.4,0-0.7,0.1v-0.7l3.2-0.7h0.6l0,2.3l0.1,0.5v6.8c0,0.5,0,0.8,0.1,1.1
				c0.1,0.3,0.2,0.5,0.5,0.6c0.3,0.1,0.7,0.2,1.3,0.2V165z M660.5,165h-5.8v-0.7c0.6,0,1-0.1,1.3-0.2c0.3-0.1,0.4-0.3,0.5-0.6
				c0.1-0.3,0.1-0.6,0.1-1.1v-4.6c0-1-0.1-1.8-0.3-2.3c-0.2-0.5-0.5-0.8-0.9-1c-0.4-0.2-0.7-0.2-1.1-0.2c-0.5,0-0.9,0.1-1.3,0.3
				c-0.4,0.2-0.7,0.4-1,0.7c-0.3,0.3-0.6,0.5-0.9,0.8l-0.2-1.2h0.4c0.7-0.6,1.3-1.1,2-1.5c0.6-0.4,1.3-0.6,2.1-0.6
				c1.1,0,2,0.4,2.6,1.2c0.6,0.8,0.8,1.9,0.8,3.3v5.2c0,0.5,0,0.8,0.1,1.1c0.1,0.3,0.2,0.5,0.5,0.6c0.3,0.1,0.7,0.2,1.2,0.2V165z"/>
			<path class="st6" d="M667.6,165h-5.8v-0.7c0.6,0,1-0.1,1.2-0.2c0.2-0.1,0.4-0.3,0.5-0.6c0.1-0.3,0.1-0.6,0.1-1.1v-7.1
				c0-0.5-0.1-0.8-0.3-0.9c-0.2-0.1-0.4-0.2-0.8-0.2c-0.2,0-0.4,0-0.7,0.1v-0.7l3.2-0.7h0.6l0,2.3l0.1,0.5v6.8c0,0.5,0,0.8,0.1,1.1
				c0.1,0.3,0.2,0.5,0.5,0.6c0.3,0.1,0.7,0.2,1.3,0.2V165z M675,165h-5.8v-0.7c0.6,0,1-0.1,1.3-0.2c0.3-0.1,0.4-0.3,0.5-0.6
				c0.1-0.3,0.1-0.6,0.1-1.1v-4.6c0-1-0.1-1.8-0.3-2.3c-0.2-0.5-0.5-0.8-0.9-1c-0.4-0.2-0.7-0.2-1.1-0.2c-0.5,0-0.9,0.1-1.3,0.3
				c-0.4,0.2-0.7,0.4-1,0.7c-0.3,0.3-0.6,0.5-0.9,0.8l-0.2-1.2h0.4c0.7-0.6,1.3-1.1,2-1.5c0.6-0.4,1.3-0.6,2.1-0.6
				c1.1,0,2,0.4,2.6,1.2c0.6,0.8,0.8,1.9,0.8,3.3v5.2c0,0.5,0,0.8,0.1,1.1c0.1,0.3,0.2,0.5,0.5,0.6c0.3,0.1,0.7,0.2,1.2,0.2V165z"/>
			<path class="st6" d="M682.1,165.2c-1.8,0-3.2-0.6-4.2-1.7c-1-1.1-1.5-2.7-1.5-4.7c0-1.2,0.2-2.3,0.7-3.2c0.5-0.9,1.1-1.6,2-2.1
				c0.9-0.5,1.8-0.8,3-0.8c1.7,0,3.1,0.5,4.1,1.6s1.5,2.6,1.5,4.4c0,1.4-0.2,2.6-0.7,3.6c-0.5,1-1.1,1.7-2,2.2
				C684.1,165,683.1,165.2,682.1,165.2z M682.2,164.2c0.7,0,1.3-0.2,1.7-0.5c0.5-0.3,0.8-0.9,1.1-1.6c0.2-0.8,0.4-1.8,0.4-3.2
				c0-1.5-0.3-2.8-0.8-3.8c-0.6-1-1.4-1.4-2.5-1.4c-1,0-1.7,0.4-2.3,1.2c-0.6,0.8-0.9,2-0.9,3.6c0,2,0.3,3.5,0.9,4.4
				C680.2,163.8,681.1,164.2,682.2,164.2z"/>
			<path class="st6" d="M695.2,165.1H694l-3.8-9.5c-0.2-0.5-0.4-0.9-0.6-1.2c-0.2-0.3-0.4-0.4-0.6-0.5c-0.2-0.1-0.5-0.1-0.9-0.1V153
				h5.3v0.7c-0.5,0-0.8,0.1-1,0.2c-0.2,0.1-0.3,0.3-0.3,0.5c0,0.2,0,0.3,0.1,0.5c0.1,0.2,0.1,0.3,0.2,0.5l2.1,5.6l0.5,1.5h0.2
				l0.5-1.5l2.2-5.7c0-0.1,0.1-0.2,0.1-0.3c0.1-0.1,0.1-0.3,0.1-0.5c0-0.3-0.1-0.5-0.4-0.6s-0.6-0.1-1.1-0.1V153h4.4v0.7
				c-0.5,0-0.9,0.1-1.1,0.3c-0.3,0.2-0.5,0.7-0.8,1.3L695.2,165.1z"/>
			<path class="st6" d="M704.3,165.1c-1,0-1.7-0.3-2.2-0.8c-0.5-0.5-0.8-1.2-0.8-2c0-0.7,0.2-1.2,0.5-1.7c0.3-0.5,0.7-0.9,1.2-1.2
				c0.5-0.3,1.1-0.6,1.7-0.8c0.6-0.2,1.2-0.4,1.8-0.6c0.6-0.2,1.1-0.3,1.5-0.4v-1.1c0-1.1-0.2-1.9-0.6-2.3s-0.9-0.7-1.7-0.7
				c-0.7,0-1.2,0.2-1.4,0.5c-0.2,0.3-0.3,0.8-0.3,1.6c0,0.4-0.1,0.7-0.3,0.9c-0.2,0.2-0.5,0.3-0.8,0.3c-0.3,0-0.5-0.1-0.7-0.3
				s-0.3-0.5-0.3-0.9c0-0.5,0.2-0.9,0.5-1.3c0.4-0.4,0.9-0.8,1.5-1c0.7-0.3,1.5-0.4,2.4-0.4c1.4,0,2.4,0.3,2.9,1
				c0.6,0.6,0.9,1.6,0.9,2.9v5.7c0,0.5,0.1,0.9,0.2,1c0.1,0.2,0.3,0.2,0.6,0.2c0.2,0,0.4-0.1,0.6-0.2c0.2-0.1,0.4-0.3,0.5-0.5
				l0.4,0.4c-0.4,0.6-0.8,1-1.2,1.3c-0.4,0.3-0.9,0.4-1.5,0.4c-0.6,0-1-0.2-1.1-0.5c-0.2-0.3-0.3-0.8-0.4-1.4l-0.2-0.3v-4.4
				c-0.8,0.2-1.5,0.4-2.1,0.7c-0.7,0.3-1.2,0.6-1.6,1c-0.4,0.4-0.6,0.9-0.6,1.6c0,0.6,0.2,1.1,0.5,1.5c0.3,0.4,0.8,0.6,1.3,0.6
				c0.4,0,0.9-0.1,1.4-0.3c0.5-0.2,0.9-0.5,1.4-0.9l0.2,0.9H708c-0.4,0.3-0.8,0.6-1.1,0.9c-0.4,0.3-0.7,0.5-1.2,0.6
				C705.3,165.1,704.8,165.1,704.3,165.1z"/>
			<path class="st6" d="M719.8,162.7l0.5,0.4c-0.3,0.5-0.6,0.8-0.9,1.1c-0.3,0.3-0.6,0.6-0.9,0.7c-0.3,0.2-0.8,0.3-1.3,0.3
				c-0.8,0-1.5-0.2-1.8-0.7c-0.4-0.5-0.6-1.3-0.6-2.4v-7.8h-1.4v-0.6c0.6-0.4,1.1-0.9,1.5-1.5c0.4-0.6,0.9-1.5,1.3-2.6h0.6v3.6h2.9
				v1.1h-2.9v7.1c0,0.9,0.1,1.5,0.2,1.9c0.2,0.4,0.5,0.5,1,0.5c0.4,0,0.7-0.1,0.9-0.3C719.2,163.3,719.5,163,719.8,162.7z"/>
			<path class="st6" d="M726.9,165h-5.7v-0.7c0.6,0,1-0.1,1.2-0.2c0.2-0.1,0.4-0.3,0.5-0.6c0.1-0.3,0.1-0.6,0.1-1.1v-7
				c0-0.5-0.1-0.9-0.3-1c-0.2-0.1-0.5-0.2-0.8-0.2c-0.2,0-0.4,0-0.6,0.1v-0.7l3.2-0.7h0.7v9.6c0,0.5,0,0.9,0.1,1.1
				c0.1,0.3,0.2,0.5,0.5,0.6c0.3,0.1,0.7,0.2,1.2,0.2V165z M724,150.8c-0.4,0-0.8-0.1-1-0.4c-0.3-0.3-0.4-0.6-0.4-1
				c0-0.4,0.1-0.7,0.4-1c0.3-0.3,0.6-0.4,1-0.4c0.4,0,0.8,0.1,1,0.4c0.3,0.3,0.4,0.6,0.4,1c0,0.4-0.1,0.7-0.4,1
				C724.8,150.7,724.5,150.8,724,150.8z"/>
			<path class="st6" d="M734.3,165.1h-1.2l-3.8-9.5c-0.2-0.5-0.4-0.9-0.6-1.2c-0.2-0.3-0.4-0.4-0.6-0.5c-0.2-0.1-0.5-0.1-0.9-0.1
				V153h5.3v0.7c-0.5,0-0.8,0.1-1,0.2c-0.2,0.1-0.3,0.3-0.3,0.5c0,0.2,0,0.3,0.1,0.5s0.1,0.3,0.2,0.5l2.1,5.6l0.5,1.5h0.2l0.5-1.5
				l2.2-5.7c0-0.1,0.1-0.2,0.1-0.3c0.1-0.1,0.1-0.3,0.1-0.5c0-0.3-0.1-0.5-0.4-0.6s-0.6-0.1-1.1-0.1V153h4.4v0.7
				c-0.5,0-0.9,0.1-1.1,0.3c-0.3,0.2-0.5,0.7-0.8,1.3L734.3,165.1z"/>
			<path class="st6" d="M745.8,165.2c-1,0-1.9-0.2-2.7-0.7s-1.5-1.2-1.9-2.1c-0.5-0.9-0.7-2.1-0.7-3.4c0-1.4,0.2-2.6,0.7-3.5
				c0.5-0.9,1.1-1.6,1.9-2.1c0.8-0.5,1.7-0.7,2.7-0.7c1.4,0,2.5,0.5,3.3,1.4c0.8,1,1.3,2.3,1.4,4.1h-8.2l0-0.9h5.9
				c0-0.6-0.1-1.2-0.3-1.8c-0.2-0.5-0.5-1-0.9-1.3c-0.4-0.3-0.9-0.5-1.5-0.5c-1,0-1.7,0.4-2.2,1.1c-0.5,0.8-0.7,1.8-0.7,3.2
				c0,1.2,0.2,2.1,0.6,2.9c0.4,0.8,0.9,1.4,1.5,1.7c0.6,0.4,1.3,0.6,1.9,0.6s1.3-0.1,1.7-0.3c0.4-0.2,0.8-0.4,1.1-0.7
				c0.3-0.3,0.6-0.6,0.9-1l0.5,0.4c-0.2,0.5-0.5,0.9-0.8,1.4c-0.3,0.4-0.6,0.8-1,1.1c-0.4,0.3-0.8,0.6-1.3,0.8
				C747.1,165.1,746.5,165.2,745.8,165.2z"/>
			<path class="st6" d="M762.4,165.2c-0.9,0-1.7-0.3-2.4-0.8c-0.6-0.5-1.1-1.2-1.5-2.1c-0.3-0.9-0.5-1.8-0.5-2.9
				c0-1.4,0.3-2.6,0.8-3.6c0.5-1,1.2-1.8,2.1-2.3c0.9-0.5,1.9-0.8,2.9-0.8c0.4,0,0.8,0.1,1.2,0.2c0.4,0.1,0.8,0.3,1.1,0.5h0.1V150
				c0-0.6-0.1-0.9-0.2-1.1c-0.1-0.2-0.4-0.3-0.9-0.3c-0.1,0-0.3,0-0.7,0.1V148l3.2-0.9h0.7v15.1c0,0.7,0.1,1.1,0.3,1.3
				c0.2,0.2,0.5,0.3,1,0.3h0.5v0.7l-3.2,0.6h-0.6v-1.7h-0.1c-0.5,0.4-1,0.8-1.7,1.2C764,165,763.3,165.2,762.4,165.2z M763.6,163.3
				c0.6,0,1.1-0.1,1.5-0.2c0.4-0.2,0.8-0.4,1.3-0.7v-6.7c-0.1-0.5-0.3-1-0.7-1.4c-0.4-0.4-1-0.6-1.8-0.6c-1.1,0-1.9,0.4-2.6,1.2
				c-0.7,0.8-1,2-1,3.6c0,1.7,0.3,3,0.8,3.8C761.7,163,762.5,163.3,763.6,163.3z"/>
			<path class="st6" d="M777.4,165h-5.7v-0.7c0.6,0,1-0.1,1.2-0.2c0.2-0.1,0.4-0.3,0.5-0.6c0.1-0.3,0.1-0.6,0.1-1.1v-7
				c0-0.5-0.1-0.9-0.3-1c-0.2-0.1-0.5-0.2-0.8-0.2c-0.2,0-0.4,0-0.6,0.1v-0.7l3.2-0.7h0.7v9.6c0,0.5,0,0.9,0.1,1.1
				c0.1,0.3,0.2,0.5,0.5,0.6c0.3,0.1,0.7,0.2,1.2,0.2V165z M774.5,150.8c-0.4,0-0.8-0.1-1-0.4c-0.3-0.3-0.4-0.6-0.4-1
				c0-0.4,0.1-0.7,0.4-1c0.3-0.3,0.6-0.4,1-0.4c0.4,0,0.8,0.1,1,0.4c0.3,0.3,0.4,0.6,0.4,1c0,0.4-0.1,0.7-0.4,1
				C775.3,150.7,775,150.8,774.5,150.8z"/>
			<path class="st6" d="M782.9,170.9c-1.1,0-2-0.1-2.6-0.4c-0.6-0.3-1.1-0.6-1.3-1c-0.3-0.4-0.4-0.9-0.4-1.3c0-0.4,0.2-0.9,0.5-1.3
				c0.3-0.5,0.9-1,1.5-1.7v-0.3l0.8,0.2c-0.3,0.5-0.5,1-0.7,1.3c-0.1,0.3-0.2,0.7-0.2,0.9c0,0.7,0.3,1.3,0.9,1.6
				c0.6,0.4,1.6,0.6,2.9,0.6c1,0,1.8-0.1,2.4-0.4c0.6-0.3,1.1-0.6,1.3-0.9c0.3-0.4,0.4-0.7,0.4-1.1c0-0.5-0.1-0.8-0.4-1
				c-0.3-0.2-0.7-0.4-1.1-0.5c-0.5-0.1-0.9-0.2-1.4-0.2c-0.5,0-1,0-1.4,0c-0.8,0-1.3,0-1.7,0c-0.4,0-0.7,0-0.8,0c-0.2,0-0.3,0-0.5,0
				l-0.3-0.1c-0.3-0.1-0.5-0.2-0.8-0.4c-0.3-0.2-0.5-0.4-0.6-0.7c-0.2-0.3-0.3-0.5-0.3-0.8c0-0.3,0.1-0.6,0.3-0.9
				c0.2-0.3,0.4-0.7,0.7-1c0.3-0.3,0.7-0.6,1.1-0.9v-0.2l0.7,0.5c-0.1,0.1-0.2,0.2-0.3,0.5c-0.1,0.2-0.2,0.5-0.3,0.7
				c-0.1,0.2-0.1,0.5-0.1,0.6c0,0.3,0.1,0.5,0.3,0.6c0.2,0.1,0.5,0.2,0.9,0.3c0.4,0.1,1,0.1,1.8,0.1c1.1,0,2,0.1,2.9,0.2
				c0.8,0.1,1.5,0.4,2,0.8c0.5,0.4,0.7,1.1,0.7,2.1c0,0.8-0.2,1.6-0.6,2.1c-0.4,0.6-1,1-1.6,1.4c-0.7,0.4-1.4,0.6-2.2,0.8
				C784.5,170.8,783.7,170.9,782.9,170.9z M784.1,161c-0.4,0-0.8,0-1.2-0.1c-0.4-0.1-0.7-0.2-1.1-0.3l-0.3-0.3
				c-0.4-0.2-0.8-0.5-1.1-0.8c-0.3-0.3-0.6-0.7-0.7-1.1c-0.2-0.4-0.3-1-0.3-1.5c0-0.8,0.2-1.6,0.6-2.2c0.4-0.6,0.9-1.1,1.6-1.4
				c0.7-0.3,1.5-0.5,2.4-0.5c0.5,0,1,0,1.4,0.1c0.4,0.1,0.9,0.2,1.3,0.4c0.4,0.2,0.7,0.4,1,0.7v0.7c0.2,0.3,0.4,0.6,0.6,1
				c0.2,0.4,0.3,1,0.3,1.6c0,0.8-0.2,1.5-0.6,2c-0.4,0.6-0.9,1-1.6,1.3C785.7,160.9,784.9,161,784.1,161z M784.1,160.1
				c0.6,0,1.2-0.2,1.6-0.7c0.4-0.4,0.6-1.3,0.6-2.5c0-1-0.2-1.9-0.7-2.5c-0.4-0.6-1.1-0.9-1.9-0.9c-0.7,0-1.2,0.3-1.6,0.8
				c-0.4,0.5-0.6,1.3-0.6,2.3c0,1.1,0.2,1.9,0.6,2.5C782.6,159.8,783.3,160.1,784.1,160.1z M790,153.2v1.4l-2.7-0.1l-0.9-1.1
				L790,153.2z"/>
			<path class="st6" d="M796.8,165h-5.7v-0.7c0.6,0,1-0.1,1.2-0.2c0.2-0.1,0.4-0.3,0.5-0.6c0.1-0.3,0.1-0.6,0.1-1.1v-7
				c0-0.5-0.1-0.9-0.3-1c-0.2-0.1-0.5-0.2-0.8-0.2c-0.2,0-0.4,0-0.6,0.1v-0.7l3.2-0.7h0.7v9.6c0,0.5,0,0.9,0.1,1.1
				c0.1,0.3,0.2,0.5,0.5,0.6c0.3,0.1,0.7,0.2,1.2,0.2V165z M794,150.8c-0.4,0-0.8-0.1-1-0.4c-0.3-0.3-0.4-0.6-0.4-1
				c0-0.4,0.1-0.7,0.4-1c0.3-0.3,0.6-0.4,1-0.4c0.4,0,0.8,0.1,1,0.4c0.3,0.3,0.4,0.6,0.4,1c0,0.4-0.1,0.7-0.4,1
				C794.7,150.7,794.4,150.8,794,150.8z"/>
			<path class="st6" d="M804.9,162.7l0.5,0.4c-0.3,0.5-0.6,0.8-0.9,1.1c-0.3,0.3-0.6,0.6-0.9,0.7c-0.3,0.2-0.8,0.3-1.3,0.3
				c-0.8,0-1.5-0.2-1.8-0.7c-0.4-0.5-0.6-1.3-0.6-2.4v-7.8h-1.4v-0.6c0.6-0.4,1.1-0.9,1.5-1.5c0.4-0.6,0.9-1.5,1.3-2.6h0.6v3.6h2.9
				v1.1h-2.9v7.1c0,0.9,0.1,1.5,0.2,1.9c0.2,0.4,0.5,0.5,1,0.5c0.4,0,0.7-0.1,0.9-0.3C804.3,163.3,804.6,163,804.9,162.7z"/>
			<path class="st6" d="M809.4,165.1c-1,0-1.7-0.3-2.2-0.8c-0.5-0.5-0.8-1.2-0.8-2c0-0.7,0.2-1.2,0.5-1.7c0.3-0.5,0.7-0.9,1.2-1.2
				c0.5-0.3,1.1-0.6,1.7-0.8c0.6-0.2,1.2-0.4,1.8-0.6c0.6-0.2,1.1-0.3,1.5-0.4v-1.1c0-1.1-0.2-1.9-0.6-2.3c-0.4-0.5-0.9-0.7-1.7-0.7
				c-0.7,0-1.2,0.2-1.4,0.5c-0.2,0.3-0.3,0.8-0.3,1.6c0,0.4-0.1,0.7-0.3,0.9c-0.2,0.2-0.5,0.3-0.8,0.3c-0.3,0-0.5-0.1-0.7-0.3
				s-0.3-0.5-0.3-0.9c0-0.5,0.2-0.9,0.5-1.3c0.4-0.4,0.9-0.8,1.5-1c0.7-0.3,1.5-0.4,2.4-0.4c1.4,0,2.4,0.3,2.9,1
				c0.6,0.6,0.9,1.6,0.9,2.9v5.7c0,0.5,0.1,0.9,0.2,1c0.1,0.2,0.3,0.2,0.6,0.2c0.2,0,0.4-0.1,0.6-0.2c0.2-0.1,0.4-0.3,0.5-0.5
				l0.4,0.4c-0.4,0.6-0.8,1-1.2,1.3c-0.4,0.3-0.9,0.4-1.5,0.4c-0.6,0-1-0.2-1.1-0.5c-0.2-0.3-0.3-0.8-0.4-1.4l-0.2-0.3v-4.4
				c-0.8,0.2-1.5,0.4-2.1,0.7c-0.7,0.3-1.2,0.6-1.6,1c-0.4,0.4-0.6,0.9-0.6,1.6c0,0.6,0.2,1.1,0.5,1.5c0.3,0.4,0.8,0.6,1.3,0.6
				c0.4,0,0.9-0.1,1.4-0.3c0.5-0.2,0.9-0.5,1.4-0.9l0.2,0.9h-0.3c-0.4,0.3-0.8,0.6-1.1,0.9c-0.4,0.3-0.7,0.5-1.2,0.6
				C810.4,165.1,810,165.1,809.4,165.1z"/>
			<path class="st6" d="M824.1,165h-5.8v-0.7c0.6,0,1-0.1,1.2-0.2c0.3-0.1,0.4-0.3,0.5-0.6c0.1-0.3,0.1-0.6,0.1-1.1v-12.7
				c0-0.5-0.1-0.8-0.3-0.9c-0.2-0.1-0.5-0.2-0.8-0.2c-0.2,0-0.5,0-0.8,0.1V148l3.3-0.9h0.6v15.3c0,0.5,0,0.9,0.1,1.1
				c0.1,0.3,0.2,0.4,0.5,0.5s0.7,0.2,1.3,0.2V165z"/>
			<path class="st6" d="M831.7,165.2l-0.1-4.3h0.7c0.3,1.3,0.7,2.2,1.2,2.7c0.5,0.5,1.2,0.8,2.2,0.8c0.6,0,1.2-0.1,1.6-0.4
				c0.4-0.3,0.6-0.7,0.6-1.3c0-0.4-0.1-0.7-0.2-1c-0.1-0.3-0.4-0.5-0.8-0.8c-0.4-0.3-1-0.6-1.8-1c-0.8-0.4-1.4-0.8-1.9-1.1
				c-0.5-0.4-0.9-0.8-1.1-1.2c-0.2-0.4-0.4-1-0.4-1.6c0-1,0.4-1.8,1.1-2.4c0.7-0.5,1.7-0.8,2.7-0.8c0.6,0,1.2,0.1,1.6,0.2
				c0.4,0.1,0.8,0.3,1.1,0.4h0l0.4-0.5h0.5l0.1,3.9h-0.7c-0.3-1.2-0.6-2-1.1-2.5c-0.5-0.4-1.1-0.7-1.9-0.7c-0.6,0-1.1,0.1-1.5,0.4
				c-0.4,0.3-0.6,0.7-0.6,1.3c0,0.5,0.2,0.9,0.7,1.3c0.5,0.4,1.2,0.9,2.3,1.4c0.8,0.4,1.4,0.8,1.9,1.2c0.5,0.4,0.9,0.8,1.2,1.2
				c0.3,0.4,0.4,1,0.4,1.6c0,0.8-0.2,1.4-0.6,1.9c-0.4,0.5-0.9,0.8-1.6,1c-0.6,0.2-1.4,0.3-2.1,0.3c-0.7,0-1.3-0.1-1.7-0.2
				c-0.4-0.2-0.8-0.3-1.1-0.4h-0.1l-0.5,0.6H831.7z"/>
			<path class="st6" d="M847.2,165.2c-1.8,0-3.2-0.6-4.2-1.7c-1-1.1-1.5-2.7-1.5-4.7c0-1.2,0.2-2.3,0.7-3.2c0.5-0.9,1.1-1.6,2-2.1
				c0.9-0.5,1.8-0.8,3-0.8c1.7,0,3.1,0.5,4.1,1.6c1,1.1,1.5,2.6,1.5,4.4c0,1.4-0.2,2.6-0.7,3.6c-0.5,1-1.1,1.7-2,2.2
				C849.2,165,848.3,165.2,847.2,165.2z M847.3,164.2c0.7,0,1.3-0.2,1.7-0.5c0.5-0.3,0.8-0.9,1.1-1.6c0.2-0.8,0.4-1.8,0.4-3.2
				c0-1.5-0.3-2.8-0.8-3.8c-0.6-1-1.4-1.4-2.5-1.4c-1,0-1.7,0.4-2.3,1.2c-0.6,0.8-0.9,2-0.9,3.6c0,2,0.3,3.5,0.9,4.4
				C845.3,163.8,846.2,164.2,847.3,164.2z"/>
			<path class="st6" d="M860.2,165h-5.8v-0.7c0.6,0,1-0.1,1.2-0.2c0.3-0.1,0.4-0.3,0.5-0.6c0.1-0.3,0.1-0.6,0.1-1.1v-12.7
				c0-0.5-0.1-0.8-0.3-0.9c-0.2-0.1-0.5-0.2-0.8-0.2c-0.2,0-0.5,0-0.8,0.1V148l3.3-0.9h0.6v15.3c0,0.5,0,0.9,0.1,1.1
				c0.1,0.3,0.2,0.4,0.5,0.5s0.7,0.2,1.3,0.2V165z"/>
			<path class="st6" d="M866.4,165.2c-1,0-1.9-0.3-2.4-1c-0.6-0.7-0.9-1.9-0.9-3.6v-5.1c0-0.5,0-0.8-0.1-1c-0.1-0.2-0.3-0.3-0.5-0.4
				c-0.3-0.1-0.6-0.1-1.1-0.1v-0.7l3.3-0.4h0.6v7.4c0,0.9,0.1,1.5,0.3,2c0.2,0.5,0.5,0.8,0.8,1c0.3,0.2,0.7,0.3,1.2,0.3
				c0.6,0,1.2-0.1,1.7-0.4s0.9-0.6,1.5-1.1v-6.6c0-0.5-0.1-0.8-0.2-1c-0.1-0.2-0.3-0.3-0.6-0.4c-0.3-0.1-0.7-0.1-1.3-0.1v-0.7
				l3.5-0.4h0.6v9.3c0,0.7,0.1,1.2,0.3,1.4c0.2,0.2,0.6,0.3,1.2,0.3h0.3v0.7l-3.2,0.6h-0.6v-1.9h-0.1c-0.4,0.4-0.9,0.8-1.3,1.1
				c-0.4,0.3-0.9,0.5-1.3,0.7S866.9,165.2,866.4,165.2z"/>
			<path class="st6" d="M882.6,162.7l0.5,0.4c-0.3,0.5-0.6,0.8-0.9,1.1c-0.3,0.3-0.6,0.6-0.9,0.7c-0.3,0.2-0.8,0.3-1.3,0.3
				c-0.8,0-1.5-0.2-1.8-0.7c-0.4-0.5-0.6-1.3-0.6-2.4v-7.8h-1.4v-0.6c0.6-0.4,1.1-0.9,1.5-1.5c0.4-0.6,0.9-1.5,1.3-2.6h0.6v3.6h2.9
				v1.1h-2.9v7.1c0,0.9,0.1,1.5,0.2,1.9c0.2,0.4,0.5,0.5,1,0.5c0.4,0,0.7-0.1,0.9-0.3C882,163.3,882.3,163,882.6,162.7z"/>
			<path class="st6" d="M889.6,165h-5.7v-0.7c0.6,0,1-0.1,1.2-0.2c0.2-0.1,0.4-0.3,0.5-0.6c0.1-0.3,0.1-0.6,0.1-1.1v-7
				c0-0.5-0.1-0.9-0.3-1c-0.2-0.1-0.5-0.2-0.8-0.2c-0.2,0-0.4,0-0.6,0.1v-0.7l3.2-0.7h0.7v9.6c0,0.5,0,0.9,0.1,1.1
				c0.1,0.3,0.2,0.5,0.5,0.6s0.7,0.2,1.2,0.2V165z M886.8,150.8c-0.4,0-0.8-0.1-1-0.4c-0.3-0.3-0.4-0.6-0.4-1c0-0.4,0.1-0.7,0.4-1
				c0.3-0.3,0.6-0.4,1-0.4c0.4,0,0.8,0.1,1,0.4c0.3,0.3,0.4,0.6,0.4,1c0,0.4-0.1,0.7-0.4,1C887.6,150.7,887.2,150.8,886.8,150.8z"/>
			<path class="st6" d="M896.8,165.2c-1.8,0-3.2-0.6-4.2-1.7c-1-1.1-1.5-2.7-1.5-4.7c0-1.2,0.2-2.3,0.7-3.2c0.5-0.9,1.1-1.6,2-2.1
				c0.9-0.5,1.8-0.8,3-0.8c1.7,0,3.1,0.5,4.1,1.6s1.5,2.6,1.5,4.4c0,1.4-0.2,2.6-0.7,3.6c-0.5,1-1.1,1.7-2,2.2
				C898.9,165,897.9,165.2,896.8,165.2z M896.9,164.2c0.7,0,1.3-0.2,1.7-0.5c0.5-0.3,0.8-0.9,1.1-1.6c0.2-0.8,0.4-1.8,0.4-3.2
				c0-1.5-0.3-2.8-0.8-3.8c-0.6-1-1.4-1.4-2.5-1.4c-1,0-1.7,0.4-2.3,1.2c-0.6,0.8-0.9,2-0.9,3.6c0,2,0.3,3.5,0.9,4.4
				C895,163.8,895.9,164.2,896.9,164.2z"/>
			<path class="st6" d="M909.9,165h-5.8v-0.7c0.6,0,1-0.1,1.2-0.2c0.2-0.1,0.4-0.3,0.5-0.6c0.1-0.3,0.1-0.6,0.1-1.1v-7.1
				c0-0.5-0.1-0.8-0.3-0.9c-0.2-0.1-0.4-0.2-0.8-0.2c-0.2,0-0.4,0-0.7,0.1v-0.7l3.2-0.7h0.6l0,2.3l0.1,0.5v6.8c0,0.5,0,0.8,0.1,1.1
				c0.1,0.3,0.2,0.5,0.5,0.6c0.3,0.1,0.7,0.2,1.3,0.2V165z M917.3,165h-5.8v-0.7c0.6,0,1-0.1,1.3-0.2c0.3-0.1,0.4-0.3,0.5-0.6
				c0.1-0.3,0.1-0.6,0.1-1.1v-4.6c0-1-0.1-1.8-0.3-2.3c-0.2-0.5-0.5-0.8-0.9-1c-0.4-0.2-0.7-0.2-1.1-0.2c-0.5,0-0.9,0.1-1.3,0.3
				c-0.4,0.2-0.7,0.4-1,0.7c-0.3,0.3-0.6,0.5-0.9,0.8l-0.2-1.2h0.4c0.7-0.6,1.3-1.1,2-1.5c0.6-0.4,1.3-0.6,2.1-0.6
				c1.1,0,2,0.4,2.6,1.2c0.6,0.8,0.8,1.9,0.8,3.3v5.2c0,0.5,0,0.8,0.1,1.1c0.1,0.3,0.2,0.5,0.5,0.6c0.3,0.1,0.7,0.2,1.2,0.2V165z"/>
			<path class="st6" d="M918.9,165.2l-0.1-4.3h0.7c0.3,1.3,0.7,2.2,1.2,2.7c0.5,0.5,1.2,0.8,2.2,0.8c0.6,0,1.2-0.1,1.6-0.4
				c0.4-0.3,0.6-0.7,0.6-1.3c0-0.4-0.1-0.7-0.2-1c-0.1-0.3-0.4-0.5-0.8-0.8c-0.4-0.3-1-0.6-1.8-1c-0.8-0.4-1.4-0.8-1.9-1.1
				c-0.5-0.4-0.9-0.8-1.1-1.2c-0.2-0.4-0.4-1-0.4-1.6c0-1,0.4-1.8,1.1-2.4c0.7-0.5,1.7-0.8,2.7-0.8c0.6,0,1.2,0.1,1.6,0.2
				c0.4,0.1,0.8,0.3,1.1,0.4h0l0.4-0.5h0.5l0.1,3.9h-0.7c-0.3-1.2-0.6-2-1.1-2.5c-0.5-0.4-1.1-0.7-1.9-0.7c-0.6,0-1.1,0.1-1.5,0.4
				c-0.4,0.3-0.6,0.7-0.6,1.3c0,0.5,0.2,0.9,0.7,1.3c0.5,0.4,1.2,0.9,2.3,1.4c0.8,0.4,1.4,0.8,1.9,1.2c0.5,0.4,0.9,0.8,1.2,1.2
				c0.3,0.4,0.4,1,0.4,1.6c0,0.8-0.2,1.4-0.6,1.9c-0.4,0.5-0.9,0.8-1.6,1s-1.4,0.3-2.1,0.3c-0.7,0-1.3-0.1-1.7-0.2
				c-0.4-0.2-0.8-0.3-1.1-0.4H920l-0.5,0.6H918.9z"/>
			<path class="st6" d="M930.9,165.2c-0.5,0-0.9-0.1-1.1-0.4c-0.2-0.3-0.4-0.6-0.4-1.1c0-0.4,0.1-0.8,0.4-1.1
				c0.3-0.3,0.6-0.5,1.1-0.5c0.5,0,0.9,0.2,1.1,0.5s0.4,0.7,0.4,1.1c0,0.4-0.1,0.7-0.4,1C931.8,165,931.4,165.2,930.9,165.2z"/>
		</g>
	</g>
</g>
</svg>
