<?xml version="1.0" encoding="utf-8"?>
<!-- Generator: Adobe Illustrator 27.0.0, SVG Export Plug-In . SVG Version: 6.00 Build 0)  -->
<svg version="1.1" xmlns="http://www.w3.org/2000/svg" xmlns:xlink="http://www.w3.org/1999/xlink" x="0px" y="0px"
	 viewBox="0 0 1017.5 223" style="enable-background:new 0 0 1017.5 223;" xml:space="preserve">
<style type="text/css">
	.st0{fill:url(#SVGID_1_);}
	.st1{fill:url(#SVGID_00000036965036671105166030000016215115331290692783_);}
	.st2{fill:url(#SVGID_00000155144344547326383060000001950245627722430884_);}
	.st3{fill:url(#SVGID_00000041291192676648767330000001453091171820737457_);}
	.st4{fill:url(#SVGID_00000007393486137715962100000014602051060878920876_);}
	.st5{fill:#474747;}
	.st6{fill:#707070;}
</style>
<g id="BACKGROUND">
</g>
<g id="OBJECTS">
	<g>
		<g>
			
				<linearGradient id="SVGID_1_" gradientUnits="userSpaceOnUse" x1="58.8685" y1="5083.0361" x2="158.4234" y2="4983.4814" gradientTransform="matrix(1 0 0 -1 0 5178.4814)">
				<stop  offset="0" style="stop-color:#5F96FF"/>
				<stop  offset="0.583" style="stop-color:#4F54D9"/>
				<stop  offset="0.7344" style="stop-color:#4F4FD6"/>
				<stop  offset="0.9146" style="stop-color:#4E40CC"/>
				<stop  offset="1" style="stop-color:#4E37C5"/>
			</linearGradient>
			<path class="st0" d="M108.1,176.7L49,117.5c-3.4-3.4-3.4-8.8,0-12.1l25.9-25.9l99.4,99.7h-60.1
				C111.9,179.2,109.7,178.3,108.1,176.7z"/>
			
				<linearGradient id="SVGID_00000008833308937790070690000014196225466390202242_" gradientUnits="userSpaceOnUse" x1="90.61" y1="5082.9561" x2="149.6677" y2="5142.0137" gradientTransform="matrix(1 0 0 -1 0 5178.4814)">
				<stop  offset="0" style="stop-color:#3D56DE"/>
				<stop  offset="0.2691" style="stop-color:#4B79FF"/>
				<stop  offset="1" style="stop-color:#90ECFF"/>
			</linearGradient>
			<path style="fill:url(#SVGID_00000008833308937790070690000014196225466390202242_);" d="M74.7,79.6l27.4-27.4
				c5.4-5.4,12.6-8.4,20.2-8.4h31.1c7.6,0,11.5,9.2,6.1,14.7l-53,53L74.7,79.6z"/>
			
				<linearGradient id="SVGID_00000106839324456979694050000015639314163556583854_" gradientUnits="userSpaceOnUse" x1="158.2413" y1="163.2567" x2="293.6287" y2="27.8693">
				<stop  offset="0" style="stop-color:#571EAB"/>
				<stop  offset="9.874516e-03" style="stop-color:#5A20AF"/>
				<stop  offset="8.227914e-02" style="stop-color:#6A2FCB"/>
				<stop  offset="0.1609" style="stop-color:#783AE0"/>
				<stop  offset="0.2477" style="stop-color:#8142EF"/>
				<stop  offset="0.349" style="stop-color:#8647F8"/>
				<stop  offset="0.4998" style="stop-color:#8848FB"/>
				<stop  offset="1" style="stop-color:#A97FFB"/>
			</linearGradient>
			<polygon style="fill:url(#SVGID_00000106839324456979694050000015639314163556583854_);" points="246,43.9 245.9,43.8 
				142.4,147.3 174.2,179.2 309.5,43.8 			"/>
			
				<linearGradient id="SVGID_00000043445654855144381900000003592405297285197230_" gradientUnits="userSpaceOnUse" x1="293.6341" y1="59.6817" x2="361.4512" y2="127.4988">
				<stop  offset="0" style="stop-color:#702BFF"/>
				<stop  offset="0.43" style="stop-color:#A33AFF"/>
				<stop  offset="0.6547" style="stop-color:#B33DFF"/>
				<stop  offset="1" style="stop-color:#D343FF"/>
			</linearGradient>
			<path style="fill:url(#SVGID_00000043445654855144381900000003592405297285197230_);" d="M371.4,117.6c3.4-3.4,3.4-8.8,0-12.1
				l-61.7-61.7h-0.2l-31.8,31.8l67.7,67.9L371.4,117.6z"/>
			
				<linearGradient id="SVGID_00000052079463637541750930000004949713826582700980_" gradientUnits="userSpaceOnUse" x1="-7672.3696" y1="186.4804" x2="-7731.4277" y2="127.4227" gradientTransform="matrix(-1 0 0 1 -7401.7979 7.590000e-02)">
				<stop  offset="0" style="stop-color:#FFA7FF"/>
				<stop  offset="0.2652" style="stop-color:#F46BFF"/>
				<stop  offset="0.4767" style="stop-color:#ED41FF"/>
				<stop  offset="0.585" style="stop-color:#EA31FF"/>
				<stop  offset="0.6741" style="stop-color:#E42DFA"/>
				<stop  offset="0.7951" style="stop-color:#D320EB"/>
				<stop  offset="0.9339" style="stop-color:#B60CD3"/>
				<stop  offset="1" style="stop-color:#A600C5"/>
			</linearGradient>
			<path style="fill:url(#SVGID_00000052079463637541750930000004949713826582700980_);" d="M345.5,143.5l-29.7,29.7
				c-3.9,3.9-9.1,6-14.6,6h-34.4c-7.6,0-11.5-9.2-6.1-14.7l53-53L345.5,143.5z"/>
		</g>
		<g>
			<path class="st5" d="M444.6,92.6V44.4h21.1c5.1,0,9.7,1,13.6,3c4,2,7,4.8,9.2,8.4c2.2,3.6,3.3,7.8,3.3,12.7c0,4.8-1.1,9-3.3,12.7
				c-2.2,3.6-5.3,6.4-9.2,8.4c-4,2-8.5,3-13.6,3H444.6z M453.5,85h11.6c3.6,0,6.7-0.7,9.4-2.1c2.6-1.4,4.7-3.3,6.2-5.8
				c1.5-2.5,2.2-5.4,2.2-8.7c0-3.4-0.7-6.3-2.2-8.7c-1.5-2.4-3.6-4.3-6.2-5.7c-2.6-1.4-5.8-2.1-9.4-2.1h-11.6V85z"/>
			<path class="st5" d="M501.4,92.6V44.4h8.9v48.1H501.4z"/>
			<path class="st5" d="M545.8,93.3c-3.8,0-7.2-0.6-10.3-1.8c-3.1-1.2-5.9-2.9-8.2-5.2c-2.3-2.2-4.1-4.9-5.4-7.8
				c-1.3-3-1.9-6.3-1.9-9.9c0-3.6,0.6-6.9,1.9-9.9c1.3-3,3.1-5.6,5.5-7.8c2.4-2.2,5.1-4,8.2-5.2c3.1-1.2,6.6-1.8,10.5-1.8
				c4,0,7.7,0.7,11,2c3.3,1.3,6,3.3,8.3,5.8l-5.6,5.5c-1.9-1.9-3.9-3.3-6.1-4.2c-2.2-0.9-4.6-1.3-7.2-1.3c-2.6,0-4.9,0.4-7,1.2
				c-2.1,0.8-4,2-5.5,3.5c-1.6,1.5-2.8,3.3-3.6,5.4c-0.9,2.1-1.3,4.3-1.3,6.8c0,2.4,0.4,4.7,1.3,6.8c0.9,2.1,2.1,3.9,3.6,5.4
				c1.6,1.5,3.4,2.7,5.5,3.5c2.1,0.8,4.4,1.2,7,1.2c2.4,0,4.7-0.4,6.9-1.1c2.2-0.8,4.3-2,6.4-3.8l5,6.7c-2.5,2-5.4,3.5-8.7,4.6
				C552.6,92.7,549.2,93.3,545.8,93.3z M556.2,86V68h8.4v19.1L556.2,86z"/>
			<path class="st5" d="M576.4,92.6V44.4h8.9v48.1H576.4z"/>
			<path class="st5" d="M608.1,92.6V52h-16v-7.6H633V52h-16v40.6H608.1z"/>
			<path class="st5" d="M630.5,92.6l21.7-48.1h8.8l21.7,48.1h-9.4l-18.6-43.4h3.6l-18.6,43.4H630.5z M640.5,81.4l2.5-7h25.9l2.4,7
				H640.5z"/>
			<path class="st5" d="M688.8,92.6V44.4h8.9V85h25.2v7.6H688.8z"/>
			<path class="st5" d="M771.4,93.3c-3.8,0-7.2-0.6-10.3-1.8c-3.1-1.2-5.9-2.9-8.2-5.2c-2.3-2.2-4.1-4.9-5.4-7.8
				c-1.3-3-1.9-6.3-1.9-9.9c0-3.6,0.6-6.9,1.9-9.9c1.3-3,3.1-5.6,5.5-7.8c2.4-2.2,5.1-4,8.3-5.2c3.1-1.2,6.6-1.8,10.5-1.8
				c4,0,7.7,0.7,11,2c3.3,1.3,6,3.3,8.3,5.8l-5.6,5.5c-1.9-1.9-3.9-3.3-6.1-4.2c-2.2-0.9-4.6-1.3-7.2-1.3c-2.6,0-4.9,0.4-7,1.2
				c-2.1,0.8-4,2-5.5,3.5c-1.6,1.5-2.8,3.3-3.6,5.4c-0.9,2.1-1.3,4.3-1.3,6.8c0,2.4,0.4,4.7,1.3,6.8c0.9,2.1,2.1,3.9,3.6,5.4
				c1.6,1.5,3.4,2.7,5.5,3.5c2.1,0.8,4.4,1.2,7,1.2c2.4,0,4.7-0.4,6.9-1.1c2.2-0.8,4.3-2,6.4-3.8l5,6.7c-2.5,2-5.4,3.5-8.7,4.6
				C778.2,92.7,774.9,93.3,771.4,93.3z M781.8,86V68h8.4v19.1L781.8,86z"/>
			<path class="st5" d="M822.6,93.3c-6.6,0-11.7-1.9-15.4-5.6c-3.7-3.7-5.6-9.1-5.6-16.2V44.4h8.9v26.8c0,5,1.1,8.5,3.2,10.8
				c2.1,2.2,5.1,3.4,9,3.4c3.9,0,6.9-1.1,9-3.4c2.1-2.2,3.2-5.8,3.2-10.8V44.4h8.8v27.1c0,7.1-1.9,12.4-5.6,16.2
				C834.4,91.4,829.2,93.3,822.6,93.3z"/>
			<path class="st5" d="M856.3,92.6V44.4h8.9v48.1H856.3z"/>
			<path class="st5" d="M878.2,92.6V44.4h21.1c5.1,0,9.7,1,13.6,3c4,2,7,4.8,9.2,8.4c2.2,3.6,3.3,7.8,3.3,12.7c0,4.8-1.1,9-3.3,12.7
				c-2.2,3.6-5.3,6.4-9.2,8.4c-4,2-8.5,3-13.6,3H878.2z M887.1,85h11.6c3.6,0,6.7-0.7,9.4-2.1c2.6-1.4,4.7-3.3,6.2-5.8
				c1.5-2.5,2.2-5.4,2.2-8.7c0-3.4-0.7-6.3-2.2-8.7c-1.5-2.4-3.6-4.3-6.2-5.7c-2.6-1.4-5.8-2.1-9.4-2.1h-11.6V85z"/>
			<path class="st5" d="M943.9,85h27.2v7.6H935V44.4h35.1V52h-26.2V85z M943.2,64.4h23.9v7.4h-23.9V64.4z"/>
		</g>
		<g>
			<path class="st6" d="M457.4,136.2h-8v-0.8c0.8,0,1.4-0.1,1.8-0.2c0.4-0.1,0.6-0.4,0.8-0.8c0.1-0.4,0.2-1,0.2-1.8v-3.9l-3.4-5.5
				c-0.6-0.9-1-1.6-1.4-2.2c-0.4-0.5-0.7-0.9-1.1-1.2c-0.3-0.3-0.6-0.4-0.9-0.5c-0.3-0.1-0.6-0.1-0.9-0.1v-0.8h7.2v0.8
				c-0.8,0-1.2,0.1-1.5,0.2c-0.2,0.1-0.3,0.3-0.3,0.5c0,0.4,0.2,0.8,0.5,1.2l2.4,3.9l1.2,2.1h0.2l3.6-6.1c0.1-0.1,0.2-0.3,0.2-0.5
				c0.1-0.2,0.1-0.4,0.1-0.6c0-0.3-0.1-0.4-0.3-0.6c-0.2-0.1-0.7-0.2-1.4-0.2v-0.8h5.9v0.8c-0.5,0-1,0.1-1.3,0.3
				c-0.4,0.1-0.7,0.4-1.1,0.8c-0.3,0.4-0.7,0.9-1.2,1.6l-4,6.6v4c0,0.8,0.1,1.4,0.2,1.8c0.2,0.4,0.4,0.6,0.8,0.8
				c0.4,0.1,1,0.2,1.7,0.2V136.2z"/>
			<path class="st6" d="M466.8,136.4c-1.9,0-3.4-0.6-4.4-1.8c-1.1-1.2-1.6-2.8-1.6-5c0-1.3,0.3-2.5,0.8-3.4c0.5-1,1.2-1.7,2.1-2.3
				c0.9-0.5,2-0.8,3.2-0.8c1.8,0,3.3,0.6,4.4,1.7c1.1,1.1,1.6,2.7,1.6,4.7c0,1.5-0.3,2.8-0.8,3.8c-0.5,1-1.2,1.8-2.1,2.3
				C469,136.2,468,136.4,466.8,136.4z M466.9,135.3c0.7,0,1.4-0.2,1.9-0.5c0.5-0.3,0.9-0.9,1.1-1.8c0.3-0.8,0.4-2,0.4-3.4
				c0-1.7-0.3-3-0.9-4c-0.6-1-1.5-1.5-2.7-1.5c-1,0-1.8,0.4-2.5,1.3c-0.6,0.9-0.9,2.2-0.9,3.9c0,2.1,0.3,3.7,1,4.6
				S465.8,135.4,466.9,135.3z"/>
			<path class="st6" d="M479.7,136.4c-1.1,0-2-0.4-2.6-1.1c-0.6-0.7-0.9-2-0.9-3.8V126c0-0.5-0.1-0.8-0.1-1.1
				c-0.1-0.2-0.3-0.4-0.6-0.4c-0.3-0.1-0.6-0.1-1.1-0.1v-0.8l3.5-0.4h0.6v7.9c0,0.9,0.1,1.6,0.3,2.1c0.2,0.5,0.5,0.9,0.9,1.1
				c0.4,0.2,0.8,0.3,1.3,0.3c0.7,0,1.3-0.2,1.8-0.5s1-0.7,1.5-1.2V126c0-0.5-0.1-0.8-0.2-1c-0.1-0.2-0.3-0.4-0.7-0.4
				c-0.3-0.1-0.8-0.1-1.3-0.1v-0.8l3.8-0.4h0.6v9.9c0,0.8,0.1,1.3,0.3,1.5c0.2,0.2,0.6,0.3,1.3,0.3h0.3v0.7l-3.4,0.6h-0.6v-2.1h-0.1
				c-0.5,0.5-0.9,0.9-1.4,1.2c-0.5,0.3-0.9,0.6-1.4,0.8S480.2,136.4,479.7,136.4z"/>
			<path class="st6" d="M496.5,136.2h-6.7v-0.8c0.6,0,1,0,1.3-0.1c0.3-0.1,0.5-0.3,0.5-0.5c0.1-0.3,0.1-0.6,0.1-1.1v-7.4
				c0-0.5,0-0.8-0.1-1.1c-0.1-0.2-0.4-0.4-0.8-0.4c-0.3,0-0.5,0-0.8,0.1V124l3.3-0.8h0.6v2.8h0.1c0.5-0.7,0.9-1.2,1.2-1.6
				c0.4-0.4,0.7-0.8,1.1-1c0.3-0.2,0.7-0.3,1.2-0.3c0.5,0,0.9,0.1,1.2,0.4c0.3,0.3,0.4,0.6,0.4,1.1c0,0.5-0.1,0.9-0.4,1.1
				c-0.2,0.2-0.5,0.3-0.8,0.3c-0.3,0-0.5-0.1-0.8-0.2c-0.2-0.2-0.4-0.3-0.6-0.5c-0.2-0.2-0.3-0.2-0.4-0.2c-0.3,0-0.7,0.2-1.1,0.7
				s-0.8,1-1.1,1.5v6.1c0,0.6,0.1,1,0.2,1.3c0.1,0.3,0.4,0.5,0.8,0.6c0.4,0.1,0.9,0.1,1.5,0.1V136.2z"/>
			<path class="st6" d="M512.2,136.4c-1.1,0-2-0.3-2.9-0.8c-0.9-0.5-1.6-1.3-2.1-2.3c-0.5-1-0.8-2.2-0.8-3.6c0-1.5,0.3-2.7,0.8-3.7
				c0.5-1,1.2-1.7,2.1-2.2c0.9-0.5,1.8-0.7,2.9-0.7c1.5,0,2.7,0.5,3.6,1.5c0.9,1,1.4,2.5,1.5,4.4h-8.7l0-1h6.2
				c0-0.7-0.1-1.3-0.3-1.9c-0.2-0.6-0.5-1.1-0.9-1.4c-0.4-0.4-0.9-0.5-1.6-0.5c-1,0-1.8,0.4-2.3,1.2c-0.5,0.8-0.8,2-0.8,3.5
				c0,1.2,0.2,2.3,0.6,3.1c0.4,0.8,0.9,1.4,1.6,1.8c0.6,0.4,1.3,0.6,2.1,0.6s1.3-0.1,1.8-0.3c0.5-0.2,0.8-0.5,1.2-0.8
				c0.3-0.3,0.6-0.7,0.9-1l0.5,0.4c-0.2,0.5-0.5,1-0.8,1.4c-0.3,0.5-0.7,0.9-1,1.2c-0.4,0.3-0.8,0.6-1.4,0.8
				C513.5,136.3,512.9,136.4,512.2,136.4z"/>
			<path class="st6" d="M522.3,136.2h-4.5v-0.8c0.5,0,0.9-0.1,1.2-0.3c0.3-0.2,0.7-0.5,1.1-1.1l3.4-4.4l0.8,1h-0.4l-2.2,3.2
				c-0.1,0.2-0.3,0.4-0.4,0.6c-0.2,0.2-0.2,0.4-0.2,0.5c0,0.1,0.1,0.2,0.3,0.3c0.2,0.1,0.5,0.1,0.9,0.1V136.2z M530.8,136.2h-5.6
				v-0.8c0.5,0,0.8,0,1-0.1c0.2-0.1,0.3-0.2,0.3-0.5c0-0.2-0.1-0.4-0.2-0.6l-1.7-2.6l-0.7-1.2l-0.4-0.4l-3-4.2
				c-0.3-0.4-0.6-0.8-0.8-1c-0.2-0.2-0.4-0.4-0.7-0.5c-0.2-0.1-0.5-0.1-0.9-0.1v-0.8h5.8v0.8c-0.9,0-1.3,0.2-1.3,0.6
				c0,0.1,0.1,0.3,0.2,0.5c0.1,0.2,0.3,0.5,0.5,0.8c0.2,0.3,0.5,0.7,0.8,1.2l0.8,1.4l0.4,0.2l3.4,4.9c0.4,0.5,0.7,0.9,1,1.2
				c0.3,0.3,0.7,0.4,1.2,0.4V136.2z M528.2,125.5l-3,3.8l-0.8-0.8h0.3l1.3-1.8c0.4-0.5,0.6-0.9,0.8-1.1c0.1-0.3,0.2-0.5,0.2-0.7
				c0-0.2-0.1-0.4-0.2-0.5c-0.2-0.1-0.4-0.2-0.9-0.2v-0.8h4.4v0.8c-0.4,0-0.8,0.1-1.2,0.3C528.8,124.8,528.5,125.1,528.2,125.5z"/>
			<path class="st6" d="M538.1,142.1h-6.8v-0.8c0.8,0,1.4-0.1,1.6-0.4c0.2-0.3,0.3-0.8,0.3-1.5V126c0-0.5-0.1-0.9-0.2-1.1
				c-0.1-0.2-0.4-0.3-0.8-0.3c-0.2,0-0.5,0-0.9,0.1v-0.8l3.4-0.8h0.7v2.3h0.1c0.6-0.8,1.3-1.3,2-1.7c0.7-0.4,1.4-0.6,2.2-0.6
				c0.9,0,1.7,0.3,2.4,0.8c0.7,0.5,1.2,1.2,1.6,2.1c0.4,0.9,0.6,2,0.6,3.1c0,1.5-0.3,2.8-0.8,3.9c-0.5,1.1-1.2,1.9-2.1,2.5
				c-0.9,0.6-1.9,0.9-3,0.9c-0.5,0-1-0.1-1.4-0.2c-0.5-0.1-0.9-0.3-1.3-0.6h-0.1v3.5c0,0.6,0.1,1,0.2,1.3c0.1,0.3,0.4,0.5,0.8,0.6
				c0.4,0.1,0.9,0.2,1.6,0.2V142.1z M538.5,135.4c1,0,1.7-0.4,2.4-1.3c0.6-0.9,0.9-2.3,0.9-4.1c0-1.7-0.3-3-0.8-3.8
				c-0.6-0.8-1.3-1.2-2.3-1.2c-0.7,0-1.3,0.2-1.9,0.6c-0.5,0.4-0.9,0.7-1.2,1.1v7c0.2,0.2,0.4,0.4,0.7,0.7c0.3,0.3,0.6,0.5,1,0.8
				C537.5,135.3,538,135.4,538.5,135.4z"/>
			<path class="st6" d="M551.8,136.4c-1.1,0-2-0.3-2.9-0.8s-1.6-1.3-2.1-2.3c-0.5-1-0.8-2.2-0.8-3.6c0-1.5,0.3-2.7,0.8-3.7
				c0.5-1,1.2-1.7,2.1-2.2c0.9-0.5,1.8-0.7,2.9-0.7c1.5,0,2.7,0.5,3.6,1.5c0.9,1,1.4,2.5,1.5,4.4H548l0-1h6.2c0-0.7-0.1-1.3-0.3-1.9
				c-0.2-0.6-0.5-1.1-0.9-1.4c-0.4-0.4-0.9-0.5-1.6-0.5c-1,0-1.8,0.4-2.3,1.2c-0.5,0.8-0.8,2-0.8,3.5c0,1.2,0.2,2.3,0.6,3.1
				c0.4,0.8,0.9,1.4,1.6,1.8c0.6,0.4,1.3,0.6,2.1,0.6s1.3-0.1,1.8-0.3c0.5-0.2,0.8-0.5,1.2-0.8c0.3-0.3,0.6-0.7,0.9-1l0.5,0.4
				c-0.2,0.5-0.5,1-0.8,1.4c-0.3,0.5-0.7,0.9-1,1.2s-0.8,0.6-1.4,0.8C553.1,136.3,552.5,136.4,551.8,136.4z"/>
			<path class="st6" d="M565.2,136.2h-6.7v-0.8c0.6,0,1,0,1.3-0.1c0.3-0.1,0.5-0.3,0.5-0.5c0.1-0.3,0.1-0.6,0.1-1.1v-7.4
				c0-0.5,0-0.8-0.1-1.1c-0.1-0.2-0.4-0.4-0.8-0.4c-0.3,0-0.5,0-0.8,0.1V124l3.3-0.8h0.6v2.8h0.1c0.5-0.7,0.9-1.2,1.2-1.6
				c0.4-0.4,0.7-0.8,1.1-1c0.3-0.2,0.7-0.3,1.2-0.3c0.5,0,0.9,0.1,1.2,0.4c0.3,0.3,0.4,0.6,0.4,1.1c0,0.5-0.1,0.9-0.4,1.1
				c-0.2,0.2-0.5,0.3-0.8,0.3c-0.3,0-0.5-0.1-0.8-0.2c-0.2-0.2-0.4-0.3-0.6-0.5c-0.2-0.2-0.3-0.2-0.4-0.2c-0.3,0-0.7,0.2-1.1,0.7
				s-0.8,1-1.1,1.5v6.1c0,0.6,0.1,1,0.2,1.3c0.1,0.3,0.4,0.5,0.8,0.6c0.4,0.1,0.9,0.1,1.5,0.1V136.2z"/>
			<path class="st6" d="M575.8,133.7l0.5,0.4c-0.3,0.5-0.7,0.9-1,1.2c-0.3,0.3-0.6,0.6-1,0.8c-0.4,0.2-0.8,0.3-1.4,0.3
				c-0.9,0-1.6-0.3-2-0.8c-0.4-0.5-0.6-1.4-0.6-2.6v-8.3h-1.5v-0.6c0.6-0.4,1.2-0.9,1.6-1.6c0.5-0.7,0.9-1.6,1.4-2.7h0.7v3.8h3v1.1
				h-3v7.6c0,1,0.1,1.6,0.3,2c0.2,0.4,0.5,0.6,1,0.6c0.4,0,0.8-0.1,1-0.3C575.1,134.4,575.4,134.1,575.8,133.7z"/>
			<path class="st6" d="M590.1,142.1h-6.8v-0.8c0.8,0,1.4-0.1,1.6-0.4c0.2-0.3,0.3-0.8,0.3-1.5V126c0-0.5-0.1-0.9-0.2-1.1
				c-0.1-0.2-0.4-0.3-0.8-0.3c-0.2,0-0.5,0-0.9,0.1v-0.8l3.4-0.8h0.7v2.3h0.1c0.6-0.8,1.3-1.3,2-1.7c0.7-0.4,1.4-0.6,2.2-0.6
				c0.9,0,1.7,0.3,2.4,0.8c0.7,0.5,1.2,1.2,1.6,2.1c0.4,0.9,0.6,2,0.6,3.1c0,1.5-0.3,2.8-0.8,3.9c-0.5,1.1-1.2,1.9-2.1,2.5
				c-0.9,0.6-1.9,0.9-3,0.9c-0.5,0-1-0.1-1.4-0.2c-0.5-0.1-0.9-0.3-1.3-0.6h-0.1v3.5c0,0.6,0.1,1,0.2,1.3c0.1,0.3,0.4,0.5,0.8,0.6
				c0.4,0.1,0.9,0.2,1.6,0.2V142.1z M590.4,135.4c1,0,1.7-0.4,2.4-1.3c0.6-0.9,0.9-2.3,0.9-4.1c0-1.7-0.3-3-0.8-3.8
				c-0.6-0.8-1.3-1.2-2.3-1.2c-0.7,0-1.3,0.2-1.9,0.6c-0.5,0.4-0.9,0.7-1.2,1.1v7c0.2,0.2,0.4,0.4,0.7,0.7c0.3,0.3,0.6,0.5,1,0.8
				C589.5,135.3,589.9,135.4,590.4,135.4z"/>
			<path class="st6" d="M601.4,136.3c-1,0-1.8-0.3-2.4-0.9c-0.5-0.6-0.8-1.3-0.8-2.2c0-0.7,0.2-1.3,0.5-1.8c0.3-0.5,0.8-0.9,1.3-1.3
				c0.5-0.3,1.1-0.6,1.8-0.9c0.6-0.2,1.3-0.4,1.9-0.6c0.6-0.2,1.1-0.3,1.6-0.5v-1.2c0-1.2-0.2-2-0.6-2.5c-0.4-0.5-1-0.7-1.8-0.7
				c-0.8,0-1.3,0.2-1.5,0.5c-0.2,0.3-0.3,0.9-0.3,1.7c0,0.4-0.1,0.7-0.3,0.9c-0.2,0.2-0.5,0.3-0.9,0.3c-0.3,0-0.5-0.1-0.8-0.3
				c-0.2-0.2-0.4-0.5-0.4-1c0-0.5,0.2-1,0.6-1.4c0.4-0.4,0.9-0.8,1.6-1.1s1.5-0.4,2.5-0.4c1.5,0,2.5,0.3,3.1,1
				c0.6,0.7,0.9,1.7,0.9,3.1v6.1c0,0.6,0.1,0.9,0.2,1.1c0.1,0.2,0.3,0.2,0.6,0.2c0.3,0,0.5-0.1,0.7-0.2c0.2-0.1,0.4-0.3,0.6-0.5
				l0.4,0.4c-0.4,0.6-0.9,1.1-1.3,1.4c-0.4,0.3-0.9,0.4-1.6,0.4c-0.6,0-1-0.2-1.2-0.5c-0.2-0.4-0.3-0.9-0.4-1.5l-0.2-0.3v-4.7
				c-0.8,0.2-1.6,0.4-2.3,0.7c-0.7,0.3-1.3,0.6-1.8,1c-0.4,0.4-0.7,1-0.7,1.7c0,0.7,0.2,1.2,0.5,1.6c0.4,0.4,0.8,0.6,1.4,0.6
				c0.5,0,1-0.1,1.5-0.3c0.5-0.2,1-0.6,1.5-1l0.2,1h-0.3c-0.4,0.4-0.8,0.7-1.2,1c-0.4,0.3-0.8,0.5-1.2,0.7
				C602.4,136.3,601.9,136.3,601.4,136.3z"/>
			<path class="st6" d="M617.6,136.2h-6.7v-0.8c0.6,0,1,0,1.3-0.1c0.3-0.1,0.5-0.3,0.5-0.5c0.1-0.3,0.1-0.6,0.1-1.1v-7.4
				c0-0.5,0-0.8-0.1-1.1c-0.1-0.2-0.4-0.4-0.8-0.4c-0.3,0-0.5,0-0.8,0.1V124l3.3-0.8h0.6v2.8h0.1c0.5-0.7,0.9-1.2,1.2-1.6
				c0.4-0.4,0.7-0.8,1.1-1c0.3-0.2,0.7-0.3,1.2-0.3c0.5,0,0.9,0.1,1.2,0.4c0.3,0.3,0.4,0.6,0.4,1.1c0,0.5-0.1,0.9-0.4,1.1
				c-0.2,0.2-0.5,0.3-0.8,0.3c-0.3,0-0.5-0.1-0.8-0.2c-0.2-0.2-0.4-0.3-0.6-0.5c-0.2-0.2-0.3-0.2-0.4-0.2c-0.3,0-0.7,0.2-1.1,0.7
				c-0.4,0.5-0.8,1-1.1,1.5v6.1c0,0.6,0.1,1,0.2,1.3c0.1,0.3,0.4,0.5,0.8,0.6c0.4,0.1,0.9,0.1,1.5,0.1V136.2z"/>
			<path class="st6" d="M628.2,133.7l0.5,0.4c-0.3,0.5-0.7,0.9-1,1.2c-0.3,0.3-0.6,0.6-1,0.8c-0.4,0.2-0.8,0.3-1.4,0.3
				c-0.9,0-1.6-0.3-2-0.8c-0.4-0.5-0.6-1.4-0.6-2.6v-8.3h-1.5v-0.6c0.6-0.4,1.2-0.9,1.6-1.6c0.5-0.7,0.9-1.6,1.4-2.7h0.7v3.8h3v1.1
				h-3v7.6c0,1,0.1,1.6,0.3,2c0.2,0.4,0.5,0.6,1,0.6c0.4,0,0.8-0.1,1-0.3C627.5,134.4,627.8,134.1,628.2,133.7z"/>
			<path class="st6" d="M635.8,136.2h-6.2v-0.8c0.6,0,1-0.1,1.3-0.2c0.3-0.1,0.4-0.3,0.5-0.6c0.1-0.3,0.1-0.7,0.1-1.2v-7.6
				c0-0.5-0.1-0.8-0.3-1c-0.2-0.2-0.5-0.2-0.8-0.2c-0.2,0-0.5,0-0.7,0.1V124l3.4-0.8h0.6l0,2.5l0.1,0.6v7.2c0,0.5,0,0.9,0.1,1.2
				c0.1,0.3,0.3,0.5,0.5,0.6c0.3,0.1,0.8,0.2,1.4,0.2V136.2z M643.7,136.2h-6.2v-0.8c0.6,0,1.1-0.1,1.4-0.2c0.3-0.1,0.4-0.3,0.5-0.6
				c0.1-0.3,0.1-0.7,0.1-1.2v-4.9c0-1.1-0.1-1.9-0.4-2.4c-0.2-0.5-0.6-0.9-0.9-1.1c-0.4-0.2-0.8-0.3-1.2-0.3c-0.5,0-1,0.1-1.4,0.3
				c-0.4,0.2-0.8,0.5-1.1,0.7c-0.3,0.3-0.6,0.6-0.9,0.8l-0.2-1.3h0.4c0.7-0.6,1.4-1.2,2.1-1.6c0.7-0.4,1.4-0.6,2.2-0.6
				c1.2,0,2.1,0.4,2.7,1.2c0.6,0.8,0.9,2,0.9,3.6v5.5c0,0.5,0,0.9,0.1,1.2c0.1,0.3,0.3,0.5,0.6,0.6c0.3,0.1,0.7,0.2,1.3,0.2V136.2z"
				/>
			<path class="st6" d="M650.9,136.4c-1.1,0-2-0.3-2.9-0.8s-1.6-1.3-2.1-2.3c-0.5-1-0.8-2.2-0.8-3.6c0-1.5,0.3-2.7,0.8-3.7
				c0.5-1,1.2-1.7,2.1-2.2c0.9-0.5,1.8-0.7,2.9-0.7c1.5,0,2.7,0.5,3.6,1.5c0.9,1,1.4,2.5,1.5,4.4h-8.7l0-1h6.2
				c0-0.7-0.1-1.3-0.3-1.9c-0.2-0.6-0.5-1.1-0.9-1.4c-0.4-0.4-0.9-0.5-1.6-0.5c-1,0-1.8,0.4-2.3,1.2c-0.5,0.8-0.8,2-0.8,3.5
				c0,1.2,0.2,2.3,0.6,3.1c0.4,0.8,0.9,1.4,1.6,1.8c0.6,0.4,1.3,0.6,2.1,0.6s1.3-0.1,1.8-0.3c0.5-0.2,0.8-0.5,1.2-0.8
				c0.3-0.3,0.6-0.7,0.9-1l0.5,0.4c-0.2,0.5-0.5,1-0.8,1.4c-0.3,0.5-0.7,0.9-1,1.2s-0.8,0.6-1.4,0.8
				C652.2,136.3,651.6,136.4,650.9,136.4z"/>
			<path class="st6" d="M664.3,136.2h-6.7v-0.8c0.6,0,1,0,1.3-0.1c0.3-0.1,0.5-0.3,0.5-0.5c0.1-0.3,0.1-0.6,0.1-1.1v-7.4
				c0-0.5,0-0.8-0.1-1.1c-0.1-0.2-0.4-0.4-0.8-0.4c-0.3,0-0.5,0-0.8,0.1V124l3.3-0.8h0.6v2.8h0.1c0.5-0.7,0.9-1.2,1.2-1.6
				c0.4-0.4,0.7-0.8,1.1-1c0.3-0.2,0.7-0.3,1.2-0.3c0.5,0,0.9,0.1,1.2,0.4c0.3,0.3,0.4,0.6,0.4,1.1c0,0.5-0.1,0.9-0.4,1.1
				c-0.2,0.2-0.5,0.3-0.8,0.3c-0.3,0-0.5-0.1-0.8-0.2c-0.2-0.2-0.4-0.3-0.6-0.5c-0.2-0.2-0.3-0.2-0.4-0.2c-0.3,0-0.7,0.2-1.1,0.7
				c-0.4,0.5-0.8,1-1.1,1.5v6.1c0,0.6,0.1,1,0.2,1.3c0.1,0.3,0.4,0.5,0.8,0.6c0.4,0.1,0.9,0.1,1.5,0.1V136.2z"/>
			<path class="st6" d="M680.2,136.2h-6.1v-0.8c0.6,0,1-0.1,1.3-0.2c0.3-0.1,0.4-0.3,0.5-0.6c0.1-0.3,0.1-0.7,0.1-1.2v-7.5
				c0-0.6-0.1-0.9-0.3-1.1c-0.2-0.1-0.5-0.2-0.9-0.2c-0.2,0-0.4,0-0.7,0.1v-0.8l3.4-0.8h0.7v10.3c0,0.5,0,0.9,0.1,1.2
				c0.1,0.3,0.2,0.5,0.5,0.6c0.3,0.1,0.7,0.2,1.3,0.2V136.2z M677.2,121.1c-0.4,0-0.8-0.2-1.1-0.5c-0.3-0.3-0.4-0.7-0.4-1.1
				c0-0.4,0.1-0.8,0.4-1.1c0.3-0.3,0.7-0.4,1.1-0.4c0.5,0,0.8,0.1,1.1,0.4c0.3,0.3,0.4,0.7,0.4,1.1c0,0.4-0.1,0.8-0.4,1.1
				C678,120.9,677.7,121.1,677.2,121.1z"/>
			<path class="st6" d="M688,136.2h-6.2v-0.8c0.6,0,1-0.1,1.3-0.2c0.3-0.1,0.4-0.3,0.5-0.6c0.1-0.3,0.1-0.7,0.1-1.2v-7.6
				c0-0.5-0.1-0.8-0.3-1c-0.2-0.2-0.5-0.2-0.8-0.2c-0.2,0-0.5,0-0.7,0.1V124l3.4-0.8h0.6l0,2.5l0.1,0.6v7.2c0,0.5,0,0.9,0.1,1.2
				c0.1,0.3,0.3,0.5,0.5,0.6c0.3,0.1,0.8,0.2,1.4,0.2V136.2z M695.9,136.2h-6.2v-0.8c0.6,0,1.1-0.1,1.4-0.2c0.3-0.1,0.4-0.3,0.5-0.6
				c0.1-0.3,0.1-0.7,0.1-1.2v-4.9c0-1.1-0.1-1.9-0.4-2.4c-0.2-0.5-0.6-0.9-0.9-1.1c-0.4-0.2-0.8-0.3-1.2-0.3c-0.5,0-1,0.1-1.4,0.3
				c-0.4,0.2-0.8,0.5-1.1,0.7c-0.3,0.3-0.6,0.6-0.9,0.8l-0.2-1.3h0.4c0.7-0.6,1.4-1.2,2.1-1.6c0.7-0.4,1.4-0.6,2.2-0.6
				c1.2,0,2.1,0.4,2.7,1.2c0.6,0.8,0.9,2,0.9,3.6v5.5c0,0.5,0,0.9,0.1,1.2c0.1,0.3,0.3,0.5,0.6,0.6c0.3,0.1,0.7,0.2,1.3,0.2V136.2z"
				/>
			<path class="st6" d="M713.8,132.2l0.5,0.4c-0.3,0.7-0.7,1.4-1.2,2c-0.4,0.6-1,1.1-1.6,1.4c-0.6,0.3-1.5,0.5-2.4,0.5
				c-1.1,0-2.1-0.3-2.9-0.8c-0.8-0.5-1.4-1.3-1.9-2.2c-0.4-1-0.6-2.1-0.6-3.3c0-1.4,0.2-2.6,0.7-3.7c0.5-1,1.2-1.8,2.1-2.4
				c0.9-0.6,2-0.9,3.3-0.9c1.3,0,2.3,0.3,3,0.8c0.7,0.6,1.1,1.2,1.1,2c0,0.4-0.1,0.7-0.3,0.9c-0.2,0.2-0.5,0.3-0.8,0.3
				c-0.4,0-0.7-0.1-0.9-0.3c-0.2-0.2-0.4-0.5-0.5-0.8s-0.3-0.6-0.4-0.9c-0.1-0.3-0.3-0.6-0.6-0.8c-0.2-0.2-0.6-0.3-1.1-0.3
				c-1.1,0-2,0.4-2.6,1.2c-0.6,0.8-0.9,2-0.9,3.5c0,1.6,0.3,3,1,4c0.7,1,1.7,1.6,3.1,1.6c0.9,0,1.6-0.2,2.1-0.5
				C712.6,133.5,713.2,132.9,713.8,132.2z"/>
			<path class="st6" d="M720.8,136.4c-1.1,0-2-0.4-2.6-1.1c-0.6-0.7-0.9-2-0.9-3.8V126c0-0.5-0.1-0.8-0.1-1.1
				c-0.1-0.2-0.3-0.4-0.6-0.4c-0.3-0.1-0.6-0.1-1.1-0.1v-0.8l3.5-0.4h0.6v7.9c0,0.9,0.1,1.6,0.3,2.1c0.2,0.5,0.5,0.9,0.9,1.1
				c0.4,0.2,0.8,0.3,1.3,0.3c0.7,0,1.3-0.2,1.8-0.5c0.5-0.3,1-0.7,1.5-1.2V126c0-0.5-0.1-0.8-0.2-1c-0.1-0.2-0.3-0.4-0.7-0.4
				c-0.3-0.1-0.8-0.1-1.3-0.1v-0.8l3.8-0.4h0.6v9.9c0,0.8,0.1,1.3,0.3,1.5c0.2,0.2,0.6,0.3,1.3,0.3h0.3v0.7l-3.4,0.6h-0.6v-2.1h-0.1
				c-0.5,0.5-0.9,0.9-1.4,1.2c-0.5,0.3-0.9,0.6-1.4,0.8C721.9,136.3,721.4,136.4,720.8,136.4z"/>
			<path class="st6" d="M738,133.7l0.5,0.4c-0.3,0.5-0.7,0.9-1,1.2c-0.3,0.3-0.6,0.6-1,0.8c-0.4,0.2-0.8,0.3-1.4,0.3
				c-0.9,0-1.6-0.3-2-0.8c-0.4-0.5-0.6-1.4-0.6-2.6v-8.3h-1.5v-0.6c0.6-0.4,1.2-0.9,1.6-1.6c0.5-0.7,0.9-1.6,1.4-2.7h0.7v3.8h3v1.1
				h-3v7.6c0,1,0.1,1.6,0.3,2c0.2,0.4,0.5,0.6,1,0.6c0.4,0,0.8-0.1,1-0.3C737.4,134.4,737.7,134.1,738,133.7z"/>
			<path class="st6" d="M746.1,133.7l0.5,0.4c-0.3,0.5-0.7,0.9-1,1.2c-0.3,0.3-0.6,0.6-1,0.8c-0.4,0.2-0.8,0.3-1.4,0.3
				c-0.9,0-1.6-0.3-2-0.8c-0.4-0.5-0.6-1.4-0.6-2.6v-8.3h-1.5v-0.6c0.6-0.4,1.2-0.9,1.6-1.6c0.5-0.7,0.9-1.6,1.4-2.7h0.7v3.8h3v1.1
				h-3v7.6c0,1,0.1,1.6,0.3,2c0.2,0.4,0.5,0.6,1,0.6c0.4,0,0.8-0.1,1-0.3C745.5,134.4,745.8,134.1,746.1,133.7z"/>
			<path class="st6" d="M753.6,136.2h-6.1v-0.8c0.6,0,1-0.1,1.3-0.2c0.3-0.1,0.4-0.3,0.5-0.6c0.1-0.3,0.1-0.7,0.1-1.2v-7.5
				c0-0.6-0.1-0.9-0.3-1.1c-0.2-0.1-0.5-0.2-0.9-0.2c-0.2,0-0.4,0-0.7,0.1v-0.8l3.4-0.8h0.7v10.3c0,0.5,0,0.9,0.1,1.2
				c0.1,0.3,0.2,0.5,0.5,0.6c0.3,0.1,0.7,0.2,1.3,0.2V136.2z M750.6,121.1c-0.4,0-0.8-0.2-1.1-0.5c-0.3-0.3-0.4-0.7-0.4-1.1
				c0-0.4,0.1-0.8,0.4-1.1c0.3-0.3,0.7-0.4,1.1-0.4c0.5,0,0.8,0.1,1.1,0.4c0.3,0.3,0.4,0.7,0.4,1.1c0,0.4-0.1,0.8-0.4,1.1
				C751.4,120.9,751.1,121.1,750.6,121.1z"/>
			<path class="st6" d="M761.4,136.2h-6.2v-0.8c0.6,0,1-0.1,1.3-0.2c0.3-0.1,0.4-0.3,0.5-0.6c0.1-0.3,0.1-0.7,0.1-1.2v-7.6
				c0-0.5-0.1-0.8-0.3-1c-0.2-0.2-0.5-0.2-0.8-0.2c-0.2,0-0.5,0-0.7,0.1V124l3.4-0.8h0.6l0,2.5l0.1,0.6v7.2c0,0.5,0,0.9,0.1,1.2
				c0.1,0.3,0.3,0.5,0.5,0.6c0.3,0.1,0.8,0.2,1.4,0.2V136.2z M769.3,136.2h-6.2v-0.8c0.6,0,1.1-0.1,1.4-0.2c0.3-0.1,0.4-0.3,0.5-0.6
				c0.1-0.3,0.1-0.7,0.1-1.2v-4.9c0-1.1-0.1-1.9-0.4-2.4c-0.2-0.5-0.6-0.9-0.9-1.1c-0.4-0.2-0.8-0.3-1.2-0.3c-0.5,0-1,0.1-1.4,0.3
				c-0.4,0.2-0.8,0.5-1.1,0.7c-0.3,0.3-0.6,0.6-0.9,0.8l-0.2-1.3h0.4c0.7-0.6,1.4-1.2,2.1-1.6c0.7-0.4,1.4-0.6,2.2-0.6
				c1.2,0,2.1,0.4,2.7,1.2c0.6,0.8,0.9,2,0.9,3.6v5.5c0,0.5,0,0.9,0.1,1.2c0.1,0.3,0.3,0.5,0.6,0.6c0.3,0.1,0.7,0.2,1.3,0.2V136.2z"
				/>
			<path class="st6" d="M775,142.5c-1.2,0-2.1-0.1-2.8-0.4c-0.7-0.3-1.1-0.7-1.4-1.1c-0.3-0.5-0.4-0.9-0.4-1.4
				c0-0.4,0.2-0.9,0.6-1.4c0.4-0.5,0.9-1.1,1.6-1.8V136l0.8,0.2c-0.3,0.6-0.6,1-0.7,1.4c-0.1,0.4-0.2,0.7-0.2,1c0,0.8,0.3,1.4,1,1.7
				c0.7,0.4,1.7,0.6,3,0.6c1.1,0,1.9-0.1,2.6-0.4c0.7-0.3,1.1-0.6,1.4-1c0.3-0.4,0.4-0.8,0.4-1.2c0-0.5-0.2-0.9-0.5-1.1
				c-0.3-0.3-0.7-0.4-1.2-0.6c-0.5-0.1-1-0.2-1.5-0.2c-0.5,0-1,0-1.5,0c-0.8,0-1.4,0-1.8,0c-0.4,0-0.7,0-0.9,0c-0.2,0-0.3,0-0.5,0
				l-0.3-0.1c-0.3-0.1-0.5-0.2-0.8-0.4c-0.3-0.2-0.5-0.4-0.7-0.7c-0.2-0.3-0.3-0.6-0.3-0.9c0-0.3,0.1-0.7,0.3-1
				c0.2-0.4,0.5-0.7,0.8-1c0.3-0.3,0.7-0.7,1.1-1V131l0.7,0.5c-0.1,0.1-0.2,0.3-0.3,0.5c-0.1,0.2-0.2,0.5-0.3,0.7
				c-0.1,0.3-0.1,0.5-0.1,0.7c0,0.3,0.1,0.5,0.3,0.6c0.2,0.2,0.5,0.3,1,0.3c0.5,0.1,1.1,0.1,1.9,0.1c1.1,0,2.1,0.1,3.1,0.2
				c0.9,0.1,1.6,0.4,2.1,0.8c0.5,0.4,0.8,1.2,0.8,2.2c0,0.9-0.2,1.7-0.7,2.3c-0.4,0.6-1,1.1-1.8,1.5c-0.7,0.4-1.5,0.7-2.4,0.8
				C776.7,142.4,775.9,142.5,775,142.5z M776.3,132c-0.5,0-0.9,0-1.3-0.1c-0.4-0.1-0.8-0.2-1.2-0.3l-0.3-0.3
				c-0.5-0.3-0.9-0.5-1.2-0.9c-0.3-0.3-0.6-0.7-0.8-1.2c-0.2-0.5-0.3-1-0.3-1.6c0-0.9,0.2-1.7,0.6-2.3c0.4-0.7,1-1.2,1.7-1.5
				c0.7-0.4,1.6-0.5,2.5-0.5c0.5,0,1,0,1.5,0.1c0.5,0.1,0.9,0.2,1.3,0.4c0.4,0.2,0.8,0.4,1.1,0.7v0.7c0.2,0.3,0.4,0.6,0.6,1.1
				c0.2,0.4,0.3,1,0.3,1.7c0,0.8-0.2,1.5-0.6,2.2c-0.4,0.6-1,1.1-1.7,1.4C778,131.8,777.2,132,776.3,132z M776.3,131
				c0.7,0,1.2-0.2,1.7-0.7c0.4-0.5,0.7-1.3,0.7-2.6c0-1.1-0.2-2-0.7-2.6c-0.5-0.7-1.1-1-2-1c-0.7,0-1.3,0.3-1.7,0.8
				c-0.4,0.5-0.6,1.4-0.6,2.5c0,1.1,0.2,2,0.7,2.7C774.7,130.7,775.4,131,776.3,131z M782.6,123.6v1.5l-2.9-0.1l-0.9-1.2
				L782.6,123.6z"/>
			<path class="st6" d="M789.9,130.3h-6.1v-1.8h6.1V130.3z"/>
			<path class="st6" d="M798,136.4c-1.1,0-2-0.3-2.9-0.8s-1.6-1.3-2.1-2.3c-0.5-1-0.8-2.2-0.8-3.6c0-1.5,0.3-2.7,0.8-3.7
				c0.5-1,1.2-1.7,2.1-2.2c0.9-0.5,1.8-0.7,2.9-0.7c1.5,0,2.7,0.5,3.6,1.5c0.9,1,1.4,2.5,1.5,4.4h-8.7l0-1h6.2
				c0-0.7-0.1-1.3-0.3-1.9c-0.2-0.6-0.5-1.1-0.9-1.4c-0.4-0.4-0.9-0.5-1.6-0.5c-1,0-1.8,0.4-2.3,1.2c-0.5,0.8-0.8,2-0.8,3.5
				c0,1.2,0.2,2.3,0.6,3.1c0.4,0.8,0.9,1.4,1.6,1.8c0.6,0.4,1.3,0.6,2.1,0.6s1.3-0.1,1.8-0.3c0.5-0.2,0.8-0.5,1.2-0.8
				c0.3-0.3,0.6-0.7,0.9-1l0.5,0.4c-0.2,0.5-0.5,1-0.8,1.4c-0.3,0.5-0.7,0.9-1,1.2s-0.8,0.6-1.4,0.8
				C799.3,136.3,798.7,136.4,798,136.4z"/>
			<path class="st6" d="M809.4,136.4c-1,0-1.9-0.3-2.5-0.8c-0.7-0.5-1.2-1.3-1.5-2.2c-0.3-0.9-0.5-2-0.5-3.1c0-1.5,0.3-2.8,0.8-3.8
				c0.6-1.1,1.3-1.9,2.2-2.5c0.9-0.6,2-0.9,3.1-0.9c0.4,0,0.9,0.1,1.3,0.2c0.4,0.1,0.8,0.3,1.2,0.5h0.1v-3.5c0-0.6-0.1-1-0.2-1.2
				c-0.1-0.2-0.5-0.3-1-0.3c-0.1,0-0.4,0-0.7,0.1v-0.8l3.4-0.9h0.7v16.1c0,0.7,0.1,1.2,0.3,1.4c0.2,0.2,0.5,0.3,1,0.3h0.6v0.7
				l-3.4,0.6h-0.6v-1.9h-0.1c-0.5,0.4-1.1,0.9-1.8,1.3C811.1,136.2,810.3,136.4,809.4,136.4z M810.6,134.4c0.6,0,1.2-0.1,1.6-0.3
				c0.4-0.2,0.9-0.4,1.3-0.7v-7.1c-0.1-0.6-0.4-1.1-0.8-1.5c-0.4-0.4-1-0.7-1.9-0.7c-1.1,0-2,0.4-2.7,1.2c-0.7,0.8-1.1,2.1-1.1,3.8
				c0,1.8,0.3,3.2,0.9,4C808.6,134,809.5,134.4,810.6,134.4z"/>
			<path class="st6" d="M823.5,142.5c-1.2,0-2.1-0.1-2.8-0.4c-0.7-0.3-1.1-0.7-1.4-1.1c-0.3-0.5-0.4-0.9-0.4-1.4
				c0-0.4,0.2-0.9,0.6-1.4c0.4-0.5,0.9-1.1,1.6-1.8V136l0.8,0.2c-0.3,0.6-0.6,1-0.7,1.4c-0.1,0.4-0.2,0.7-0.2,1c0,0.8,0.3,1.4,1,1.7
				c0.7,0.4,1.7,0.6,3,0.6c1.1,0,1.9-0.1,2.6-0.4c0.7-0.3,1.1-0.6,1.4-1c0.3-0.4,0.4-0.8,0.4-1.2c0-0.5-0.2-0.9-0.5-1.1
				c-0.3-0.3-0.7-0.4-1.2-0.6c-0.5-0.1-1-0.2-1.5-0.2c-0.5,0-1,0-1.5,0c-0.8,0-1.4,0-1.8,0c-0.4,0-0.7,0-0.9,0c-0.2,0-0.3,0-0.5,0
				l-0.3-0.1c-0.3-0.1-0.5-0.2-0.8-0.4c-0.3-0.2-0.5-0.4-0.7-0.7c-0.2-0.3-0.3-0.6-0.3-0.9c0-0.3,0.1-0.7,0.3-1
				c0.2-0.4,0.5-0.7,0.8-1c0.3-0.3,0.7-0.7,1.1-1V131l0.7,0.5c-0.1,0.1-0.2,0.3-0.3,0.5c-0.1,0.2-0.2,0.5-0.3,0.7
				c-0.1,0.3-0.1,0.5-0.1,0.7c0,0.3,0.1,0.5,0.3,0.6c0.2,0.2,0.5,0.3,1,0.3c0.5,0.1,1.1,0.1,1.9,0.1c1.1,0,2.1,0.1,3.1,0.2
				c0.9,0.1,1.6,0.4,2.1,0.8c0.5,0.4,0.8,1.2,0.8,2.2c0,0.9-0.2,1.7-0.7,2.3c-0.4,0.6-1,1.1-1.8,1.5c-0.7,0.4-1.5,0.7-2.4,0.8
				C825.2,142.4,824.4,142.5,823.5,142.5z M824.8,132c-0.5,0-0.9,0-1.3-0.1c-0.4-0.1-0.8-0.2-1.2-0.3l-0.3-0.3
				c-0.5-0.3-0.9-0.5-1.2-0.9c-0.3-0.3-0.6-0.7-0.8-1.2c-0.2-0.5-0.3-1-0.3-1.6c0-0.9,0.2-1.7,0.6-2.3c0.4-0.7,1-1.2,1.7-1.5
				c0.7-0.4,1.6-0.5,2.5-0.5c0.5,0,1,0,1.5,0.1c0.5,0.1,0.9,0.2,1.3,0.4c0.4,0.2,0.8,0.4,1.1,0.7v0.7c0.2,0.3,0.4,0.6,0.6,1.1
				c0.2,0.4,0.3,1,0.3,1.7c0,0.8-0.2,1.5-0.6,2.2c-0.4,0.6-1,1.1-1.7,1.4C826.5,131.8,825.7,132,824.8,132z M824.8,131
				c0.7,0,1.2-0.2,1.7-0.7c0.4-0.5,0.7-1.3,0.7-2.6c0-1.1-0.2-2-0.7-2.6c-0.5-0.7-1.1-1-2-1c-0.7,0-1.3,0.3-1.7,0.8
				c-0.4,0.5-0.6,1.4-0.6,2.5c0,1.1,0.2,2,0.7,2.7C823.2,130.7,823.9,131,824.8,131z M831.1,123.6v1.5l-2.9-0.1l-0.9-1.2
				L831.1,123.6z"/>
			<path class="st6" d="M838.2,136.4c-1.1,0-2-0.3-2.9-0.8s-1.6-1.3-2.1-2.3c-0.5-1-0.8-2.2-0.8-3.6c0-1.5,0.3-2.7,0.8-3.7
				c0.5-1,1.2-1.7,2.1-2.2c0.9-0.5,1.8-0.7,2.9-0.7c1.5,0,2.7,0.5,3.6,1.5c0.9,1,1.4,2.5,1.5,4.4h-8.7l0-1h6.2
				c0-0.7-0.1-1.3-0.3-1.9c-0.2-0.6-0.5-1.1-0.9-1.4c-0.4-0.4-0.9-0.5-1.6-0.5c-1,0-1.8,0.4-2.3,1.2c-0.5,0.8-0.8,2-0.8,3.5
				c0,1.2,0.2,2.3,0.6,3.1c0.4,0.8,0.9,1.4,1.6,1.8c0.6,0.4,1.3,0.6,2.1,0.6s1.3-0.1,1.8-0.3c0.5-0.2,0.8-0.5,1.2-0.8
				c0.3-0.3,0.6-0.7,0.9-1l0.5,0.4c-0.2,0.5-0.5,1-0.8,1.4c-0.3,0.5-0.7,0.9-1,1.2s-0.8,0.6-1.4,0.8
				C839.5,136.3,838.9,136.4,838.2,136.4z"/>
			<path class="st6" d="M857.5,136.3h-1.2l-4-10.1c-0.2-0.6-0.4-1-0.6-1.3c-0.2-0.3-0.4-0.5-0.7-0.6c-0.3-0.1-0.6-0.1-1-0.1v-0.8
				h5.8v0.8c-0.5,0-0.9,0.1-1.1,0.2c-0.2,0.1-0.3,0.3-0.3,0.5c0,0.2,0,0.3,0.1,0.5c0.1,0.2,0.1,0.3,0.2,0.5l2.3,5.9l0.5,1.6h0.2
				l0.6-1.6l2-5.2l0.9,1.8h-0.5L857.5,136.3z M864.9,136.3h-1.3l-3-8.2l-0.4-0.8l-0.4-1.2c-0.2-0.6-0.4-1-0.6-1.3
				c-0.2-0.3-0.4-0.5-0.7-0.5c-0.3-0.1-0.6-0.1-1-0.1v-0.8h5.6v0.8c-0.5,0-0.9,0.1-1.1,0.2c-0.2,0.1-0.3,0.3-0.3,0.5
				c0,0.2,0,0.3,0.1,0.5c0,0.2,0.1,0.4,0.2,0.6l2.2,5.9l0.5,1.6h0.2l0.5-1.6l2.1-6c0-0.1,0-0.2,0.1-0.4c0-0.2,0.1-0.4,0.1-0.6
				c0-0.3-0.1-0.4-0.4-0.5c-0.3-0.1-0.6-0.1-1.1-0.1v-0.8h4.7v0.8c-0.5,0-0.9,0.1-1.2,0.4c-0.3,0.2-0.5,0.7-0.8,1.4L864.9,136.3z"/>
			<path class="st6" d="M877,136.4c-1.1,0-2-0.3-2.9-0.8c-0.9-0.5-1.6-1.3-2.1-2.3c-0.5-1-0.8-2.2-0.8-3.6c0-1.5,0.3-2.7,0.8-3.7
				c0.5-1,1.2-1.7,2.1-2.2c0.9-0.5,1.8-0.7,2.9-0.7c1.5,0,2.7,0.5,3.6,1.5c0.9,1,1.4,2.5,1.5,4.4h-8.7l0-1h6.2
				c0-0.7-0.1-1.3-0.3-1.9c-0.2-0.6-0.5-1.1-0.9-1.4c-0.4-0.4-0.9-0.5-1.6-0.5c-1,0-1.8,0.4-2.3,1.2c-0.5,0.8-0.8,2-0.8,3.5
				c0,1.2,0.2,2.3,0.6,3.1c0.4,0.8,0.9,1.4,1.6,1.8c0.6,0.4,1.3,0.6,2.1,0.6c0.7,0,1.3-0.1,1.8-0.3c0.5-0.2,0.8-0.5,1.2-0.8
				c0.3-0.3,0.6-0.7,0.9-1l0.5,0.4c-0.2,0.5-0.5,1-0.8,1.4c-0.3,0.5-0.7,0.9-1,1.2c-0.4,0.3-0.8,0.6-1.4,0.8
				C878.3,136.3,877.7,136.4,877,136.4z"/>
			<path class="st6" d="M886.6,117.2h0.7v8.2h0.1c0.5-0.6,1.1-1.1,1.8-1.6c0.7-0.5,1.5-0.7,2.4-0.7s1.7,0.3,2.4,0.8
				c0.7,0.5,1.2,1.2,1.6,2.1c0.4,0.9,0.6,1.9,0.6,3.1c0,1.6-0.3,2.9-0.8,4c-0.6,1.1-1.3,1.9-2.3,2.5c-1,0.6-2.1,0.8-3.3,0.8
				c-1.1,0-2.1-0.1-2.9-0.4c-0.8-0.3-1.3-0.5-1.6-0.7v-15.1c0-0.6-0.1-1-0.2-1.2c-0.1-0.2-0.5-0.3-1-0.3c-0.2,0-0.5,0-0.8,0.1v-0.8
				L886.6,117.2z M887.3,126.6v7.5c0.3,0.3,0.6,0.6,1,0.9c0.4,0.3,1,0.4,1.7,0.4c0.9,0,1.5-0.2,2.1-0.7c0.5-0.5,0.9-1.1,1.1-2
				c0.2-0.8,0.3-1.7,0.3-2.7c0-0.9-0.1-1.7-0.3-2.4c-0.2-0.8-0.5-1.4-1-1.9c-0.5-0.5-1.1-0.7-2-0.7c-0.7,0-1.3,0.2-1.8,0.6
				C887.9,125.9,887.5,126.3,887.3,126.6z"/>
			<path class="st6" d="M450.1,168.7c-1,0-1.9-0.3-2.5-0.8c-0.7-0.5-1.2-1.3-1.5-2.2c-0.3-0.9-0.5-2-0.5-3.1c0-1.5,0.3-2.8,0.8-3.8
				c0.6-1.1,1.3-1.9,2.2-2.5c0.9-0.6,2-0.9,3.1-0.9c0.4,0,0.9,0.1,1.3,0.2c0.4,0.1,0.8,0.3,1.2,0.5h0.1v-3.5c0-0.6-0.1-1-0.2-1.2
				c-0.1-0.2-0.5-0.3-1-0.3c-0.1,0-0.4,0-0.7,0.1v-0.8l3.4-0.9h0.7v16.1c0,0.7,0.1,1.2,0.3,1.4c0.2,0.2,0.5,0.3,1,0.3h0.6v0.7
				l-3.4,0.6h-0.6v-1.9h-0.1c-0.5,0.4-1.1,0.9-1.8,1.3C451.8,168.5,451,168.7,450.1,168.7z M451.4,166.7c0.6,0,1.2-0.1,1.6-0.3
				c0.4-0.2,0.9-0.4,1.3-0.7v-7.1c-0.1-0.6-0.4-1.1-0.8-1.5c-0.4-0.4-1-0.7-1.9-0.7c-1.1,0-2,0.4-2.7,1.2c-0.7,0.8-1.1,2.1-1.1,3.8
				c0,1.8,0.3,3.2,0.9,4C449.3,166.3,450.2,166.7,451.4,166.7z"/>
			<path class="st6" d="M465.8,168.7c-1.1,0-2-0.3-2.9-0.8c-0.9-0.5-1.6-1.3-2.1-2.3c-0.5-1-0.8-2.2-0.8-3.6c0-1.5,0.3-2.7,0.8-3.7
				c0.5-1,1.2-1.7,2.1-2.2c0.9-0.5,1.8-0.7,2.9-0.7c1.5,0,2.7,0.5,3.6,1.5c0.9,1,1.4,2.5,1.5,4.4H462l0-1h6.2c0-0.7-0.1-1.3-0.3-1.9
				c-0.2-0.6-0.5-1.1-0.9-1.4c-0.4-0.4-0.9-0.5-1.6-0.5c-1,0-1.8,0.4-2.3,1.2c-0.5,0.8-0.8,2-0.8,3.5c0,1.2,0.2,2.3,0.6,3.1
				c0.4,0.8,0.9,1.4,1.6,1.8c0.6,0.4,1.3,0.6,2.1,0.6c0.7,0,1.3-0.1,1.8-0.3c0.5-0.2,0.8-0.5,1.2-0.8c0.3-0.3,0.6-0.7,0.9-1l0.5,0.4
				c-0.2,0.5-0.5,1-0.8,1.4c-0.3,0.5-0.7,0.9-1,1.2c-0.4,0.3-0.8,0.6-1.4,0.8C467.1,168.6,466.5,168.7,465.8,168.7z"/>
			<path class="st6" d="M478.7,168.6h-1.3l-4-10.1c-0.2-0.6-0.4-1-0.6-1.3c-0.2-0.3-0.4-0.5-0.6-0.6c-0.2-0.1-0.5-0.1-0.9-0.1v-0.8
				h5.7v0.8c-0.5,0-0.9,0.1-1.1,0.2c-0.2,0.1-0.3,0.3-0.3,0.5c0,0.2,0,0.3,0.1,0.5c0.1,0.2,0.1,0.3,0.2,0.5l2.3,6l0.5,1.6h0.2
				l0.6-1.6l2.3-6.1c0-0.1,0.1-0.2,0.1-0.3c0.1-0.2,0.1-0.3,0.1-0.6c0-0.3-0.1-0.5-0.4-0.6c-0.3-0.1-0.6-0.1-1.1-0.1v-0.8h4.7v0.8
				c-0.5,0-0.9,0.1-1.2,0.4c-0.3,0.2-0.6,0.7-0.8,1.4L478.7,168.6z"/>
			<path class="st6" d="M491.1,168.7c-1.1,0-2-0.3-2.9-0.8c-0.9-0.5-1.6-1.3-2.1-2.3c-0.5-1-0.8-2.2-0.8-3.6c0-1.5,0.3-2.7,0.8-3.7
				c0.5-1,1.2-1.7,2.1-2.2c0.9-0.5,1.8-0.7,2.9-0.7c1.5,0,2.7,0.5,3.6,1.5c0.9,1,1.4,2.5,1.5,4.4h-8.7l0-1h6.2
				c0-0.7-0.1-1.3-0.3-1.9c-0.2-0.6-0.5-1.1-0.9-1.4c-0.4-0.4-0.9-0.5-1.6-0.5c-1,0-1.8,0.4-2.3,1.2c-0.5,0.8-0.8,2-0.8,3.5
				c0,1.2,0.2,2.3,0.6,3.1c0.4,0.8,0.9,1.4,1.6,1.8c0.6,0.4,1.3,0.6,2.1,0.6c0.7,0,1.3-0.1,1.8-0.3c0.5-0.2,0.8-0.5,1.2-0.8
				c0.3-0.3,0.6-0.7,0.9-1l0.5,0.4c-0.2,0.5-0.5,1-0.8,1.4c-0.3,0.5-0.7,0.9-1,1.2c-0.4,0.3-0.8,0.6-1.4,0.8
				C492.4,168.6,491.8,168.7,491.1,168.7z"/>
			<path class="st6" d="M503.9,168.5h-6.2v-0.8c0.6,0,1-0.1,1.3-0.2s0.4-0.3,0.5-0.6c0.1-0.3,0.1-0.7,0.1-1.2v-13.5
				c0-0.6-0.1-0.9-0.3-1c-0.2-0.1-0.5-0.2-0.8-0.2c-0.2,0-0.5,0-0.9,0.1v-0.7l3.6-0.9h0.7v16.3c0,0.5,0,0.9,0.1,1.2
				c0.1,0.3,0.3,0.5,0.6,0.6c0.3,0.1,0.8,0.2,1.4,0.2V168.5z"/>
			<path class="st6" d="M511.5,168.7c-1.9,0-3.4-0.6-4.4-1.8c-1.1-1.2-1.6-2.8-1.6-5c0-1.3,0.3-2.5,0.8-3.4c0.5-1,1.2-1.7,2.1-2.3
				c0.9-0.5,2-0.8,3.2-0.8c1.8,0,3.3,0.6,4.4,1.7s1.6,2.7,1.6,4.7c0,1.5-0.3,2.8-0.8,3.8c-0.5,1-1.2,1.8-2.1,2.3
				C513.7,168.5,512.6,168.7,511.5,168.7z M511.6,167.6c0.7,0,1.4-0.2,1.9-0.5c0.5-0.3,0.9-0.9,1.1-1.8c0.3-0.8,0.4-2,0.4-3.4
				c0-1.7-0.3-3-0.9-4c-0.6-1-1.5-1.5-2.7-1.5c-1,0-1.8,0.4-2.5,1.3c-0.6,0.9-0.9,2.2-0.9,3.9c0,2.1,0.3,3.7,1,4.6
				S510.4,167.7,511.6,167.6z"/>
			<path class="st6" d="M525.8,174.4h-6.8v-0.8c0.8,0,1.4-0.1,1.6-0.4c0.2-0.3,0.3-0.8,0.3-1.5v-13.3c0-0.5-0.1-0.9-0.2-1.1
				c-0.1-0.2-0.4-0.3-0.8-0.3c-0.2,0-0.5,0-0.9,0.1v-0.8l3.4-0.8h0.7v2.3h0.1c0.6-0.8,1.3-1.3,2-1.7c0.7-0.4,1.4-0.6,2.2-0.6
				c0.9,0,1.7,0.3,2.4,0.8c0.7,0.5,1.2,1.2,1.6,2.1c0.4,0.9,0.6,2,0.6,3.1c0,1.5-0.3,2.8-0.8,3.9c-0.5,1.1-1.2,1.9-2.1,2.5
				c-0.9,0.6-1.9,0.9-3,0.9c-0.5,0-1-0.1-1.4-0.2c-0.5-0.1-0.9-0.3-1.3-0.6h-0.1v3.5c0,0.6,0.1,1,0.2,1.3c0.1,0.3,0.4,0.5,0.8,0.6
				c0.4,0.1,0.9,0.2,1.6,0.2V174.4z M526.1,167.7c1,0,1.7-0.4,2.4-1.3c0.6-0.9,0.9-2.3,0.9-4.1c0-1.7-0.3-3-0.8-3.8
				c-0.6-0.8-1.3-1.2-2.3-1.2c-0.7,0-1.3,0.2-1.9,0.6c-0.5,0.4-0.9,0.7-1.2,1.1v7c0.2,0.2,0.4,0.4,0.7,0.7c0.3,0.3,0.6,0.5,1,0.8
				C525.2,167.6,525.6,167.7,526.1,167.7z"/>
			<path class="st6" d="M539.8,168.5h-6.1v-0.8c0.6,0,1,0,1.3-0.1c0.3-0.1,0.4-0.3,0.5-0.6c0.1-0.3,0.1-0.7,0.1-1.2v-7.5
				c0-0.5-0.1-0.8-0.3-1c-0.2-0.2-0.5-0.2-0.8-0.2c-0.2,0-0.4,0-0.7,0.1v-0.8l3.4-0.8h0.6v2.5l0.1,0.6v7.3c0,0.5,0.1,0.9,0.2,1.1
				c0.1,0.3,0.3,0.4,0.6,0.5c0.3,0.1,0.7,0.1,1.3,0.1V168.5z M547.6,168.5h-6.4v-0.8c0.6,0,1.1-0.1,1.4-0.2c0.3-0.1,0.5-0.4,0.6-0.7
				c0.1-0.3,0.1-0.8,0.1-1.5V160c0-1.1-0.2-1.9-0.6-2.3c-0.4-0.4-0.9-0.6-1.5-0.6c-0.5,0-1,0.1-1.4,0.3c-0.4,0.2-0.8,0.5-1.2,0.8
				c-0.4,0.3-0.7,0.6-0.9,0.8l-0.2-1.3h0.4c0.7-0.6,1.4-1.2,2.1-1.6c0.7-0.4,1.5-0.7,2.4-0.7c0.8,0,1.5,0.2,2,0.7
				c0.5,0.5,0.9,1,1.1,1.7c0,0.1,0.1,0.1,0.1,0.2c0,0.1,0,0.1,0.1,0.2v7.1c0,0.6,0,1.1,0.1,1.4c0.1,0.3,0.3,0.6,0.6,0.7
				c0.3,0.1,0.8,0.2,1.4,0.2V168.5z M555.1,168.5H549v-0.8c0.6,0,1-0.1,1.3-0.2c0.3-0.2,0.4-0.4,0.5-0.8c0.1-0.4,0.1-0.8,0.1-1.3
				v-5.2c0-0.8-0.1-1.5-0.3-1.9c-0.2-0.4-0.5-0.7-0.8-0.9c-0.3-0.2-0.7-0.3-1.2-0.3c-0.6,0-1.2,0.2-1.7,0.6
				c-0.6,0.4-1.1,0.8-1.6,1.2l-0.3-1.3h0.4c0.7-0.7,1.5-1.3,2.2-1.7c0.7-0.4,1.4-0.6,2.1-0.6c1.1,0,1.9,0.3,2.5,1
				c0.6,0.7,0.9,1.8,0.9,3.4v5.5c0,0.6,0,1,0.1,1.4c0.1,0.3,0.2,0.6,0.5,0.8c0.3,0.2,0.7,0.2,1.3,0.2V168.5z"/>
			<path class="st6" d="M562.4,168.7c-1.1,0-2-0.3-2.9-0.8c-0.9-0.5-1.6-1.3-2.1-2.3c-0.5-1-0.8-2.2-0.8-3.6c0-1.5,0.3-2.7,0.8-3.7
				c0.5-1,1.2-1.7,2.1-2.2c0.9-0.5,1.8-0.7,2.9-0.7c1.5,0,2.7,0.5,3.6,1.5c0.9,1,1.4,2.5,1.5,4.4h-8.7l0-1h6.2
				c0-0.7-0.1-1.3-0.3-1.9c-0.2-0.6-0.5-1.1-0.9-1.4c-0.4-0.4-0.9-0.5-1.6-0.5c-1,0-1.8,0.4-2.3,1.2c-0.5,0.8-0.8,2-0.8,3.5
				c0,1.2,0.2,2.3,0.6,3.1c0.4,0.8,0.9,1.4,1.6,1.8c0.6,0.4,1.3,0.6,2.1,0.6c0.7,0,1.3-0.1,1.8-0.3c0.5-0.2,0.8-0.5,1.2-0.8
				c0.3-0.3,0.6-0.7,0.9-1l0.5,0.4c-0.2,0.5-0.5,1-0.8,1.4c-0.3,0.5-0.7,0.9-1,1.2c-0.4,0.3-0.8,0.6-1.4,0.8
				C563.7,168.6,563.1,168.7,562.4,168.7z"/>
			<path class="st6" d="M575.3,168.5h-6.2v-0.8c0.6,0,1-0.1,1.3-0.2c0.3-0.1,0.4-0.3,0.5-0.6c0.1-0.3,0.1-0.7,0.1-1.2v-7.6
				c0-0.5-0.1-0.8-0.3-1c-0.2-0.2-0.5-0.2-0.8-0.2c-0.2,0-0.5,0-0.7,0.1v-0.8l3.4-0.8h0.6l0,2.5l0.1,0.6v7.2c0,0.5,0,0.9,0.1,1.2
				c0.1,0.3,0.3,0.5,0.5,0.6c0.3,0.1,0.8,0.2,1.4,0.2V168.5z M583.2,168.5h-6.2v-0.8c0.6,0,1.1-0.1,1.4-0.2c0.3-0.1,0.4-0.3,0.5-0.6
				c0.1-0.3,0.1-0.7,0.1-1.2v-4.9c0-1.1-0.1-1.9-0.4-2.4c-0.2-0.5-0.6-0.9-0.9-1.1c-0.4-0.2-0.8-0.3-1.2-0.3c-0.5,0-1,0.1-1.4,0.3
				c-0.4,0.2-0.8,0.5-1.1,0.7c-0.3,0.3-0.6,0.6-0.9,0.8l-0.2-1.3h0.4c0.7-0.6,1.4-1.2,2.1-1.6c0.7-0.4,1.4-0.6,2.2-0.6
				c1.2,0,2.1,0.4,2.7,1.2c0.6,0.8,0.9,2,0.9,3.6v5.5c0,0.5,0,0.9,0.1,1.2c0.1,0.3,0.3,0.5,0.6,0.6c0.3,0.1,0.7,0.2,1.3,0.2V168.5z"
				/>
			<path class="st6" d="M591.6,166l0.5,0.4c-0.3,0.5-0.7,0.9-1,1.2c-0.3,0.3-0.6,0.6-1,0.8c-0.4,0.2-0.8,0.3-1.4,0.3
				c-0.9,0-1.6-0.3-2-0.8c-0.4-0.5-0.6-1.4-0.6-2.6V157h-1.5v-0.6c0.6-0.4,1.2-0.9,1.6-1.6c0.5-0.7,0.9-1.6,1.4-2.7h0.7v3.8h3v1.1
				h-3v7.6c0,1,0.1,1.6,0.3,2c0.2,0.4,0.5,0.6,1,0.6c0.4,0,0.8-0.1,1-0.3C591,166.7,591.3,166.4,591.6,166z"/>
			<path class="st6" d="M602.8,168.6c-1,0-1.8-0.3-2.4-0.9c-0.5-0.6-0.8-1.3-0.8-2.2c0-0.7,0.2-1.3,0.5-1.8c0.3-0.5,0.8-0.9,1.3-1.3
				c0.5-0.3,1.1-0.6,1.8-0.9c0.6-0.2,1.3-0.4,1.9-0.6c0.6-0.2,1.1-0.3,1.6-0.5v-1.2c0-1.2-0.2-2-0.6-2.5c-0.4-0.5-1-0.7-1.8-0.7
				c-0.8,0-1.3,0.2-1.5,0.5c-0.2,0.3-0.3,0.9-0.3,1.7c0,0.4-0.1,0.7-0.3,0.9c-0.2,0.2-0.5,0.3-0.9,0.3c-0.3,0-0.5-0.1-0.8-0.3
				c-0.2-0.2-0.4-0.5-0.4-1c0-0.5,0.2-1,0.6-1.4c0.4-0.4,0.9-0.8,1.6-1.1s1.5-0.4,2.5-0.4c1.5,0,2.5,0.3,3.1,1
				c0.6,0.7,0.9,1.7,0.9,3.1v6.1c0,0.6,0.1,0.9,0.2,1.1c0.1,0.2,0.3,0.2,0.6,0.2c0.3,0,0.5-0.1,0.7-0.2c0.2-0.1,0.4-0.3,0.6-0.5
				l0.4,0.4c-0.4,0.6-0.9,1.1-1.3,1.4c-0.4,0.3-0.9,0.4-1.6,0.4c-0.6,0-1-0.2-1.2-0.5c-0.2-0.4-0.3-0.9-0.4-1.5l-0.2-0.3v-4.7
				c-0.8,0.2-1.6,0.4-2.3,0.7c-0.7,0.3-1.3,0.6-1.8,1c-0.4,0.4-0.7,1-0.7,1.7c0,0.7,0.2,1.2,0.5,1.6c0.4,0.4,0.8,0.6,1.4,0.6
				c0.5,0,1-0.1,1.5-0.3c0.5-0.2,1-0.6,1.5-1l0.2,1h-0.3c-0.4,0.4-0.8,0.7-1.2,1c-0.4,0.3-0.8,0.5-1.2,0.7
				C603.8,168.6,603.3,168.6,602.8,168.6z"/>
			<path class="st6" d="M618.5,168.5h-6.2v-0.8c0.6,0,1-0.1,1.3-0.2c0.3-0.1,0.4-0.3,0.5-0.6c0.1-0.3,0.1-0.7,0.1-1.2v-7.6
				c0-0.5-0.1-0.8-0.3-1c-0.2-0.2-0.5-0.2-0.8-0.2c-0.2,0-0.5,0-0.7,0.1v-0.8l3.4-0.8h0.6l0,2.5l0.1,0.6v7.2c0,0.5,0,0.9,0.1,1.2
				c0.1,0.3,0.3,0.5,0.5,0.6c0.3,0.1,0.8,0.2,1.4,0.2V168.5z M626.4,168.5h-6.2v-0.8c0.6,0,1.1-0.1,1.4-0.2c0.3-0.1,0.4-0.3,0.5-0.6
				c0.1-0.3,0.1-0.7,0.1-1.2v-4.9c0-1.1-0.1-1.9-0.4-2.4c-0.2-0.5-0.6-0.9-0.9-1.1c-0.4-0.2-0.8-0.3-1.2-0.3c-0.5,0-1,0.1-1.4,0.3
				c-0.4,0.2-0.8,0.5-1.1,0.7c-0.3,0.3-0.6,0.6-0.9,0.8l-0.2-1.3h0.4c0.7-0.6,1.4-1.2,2.1-1.6c0.7-0.4,1.4-0.6,2.2-0.6
				c1.2,0,2.1,0.4,2.7,1.2c0.6,0.8,0.9,2,0.9,3.6v5.5c0,0.5,0,0.9,0.1,1.2c0.1,0.3,0.3,0.5,0.6,0.6c0.3,0.1,0.7,0.2,1.3,0.2V168.5z"
				/>
			<path class="st6" d="M632.4,168.7c-1,0-1.9-0.3-2.5-0.8c-0.7-0.5-1.2-1.3-1.5-2.2c-0.3-0.9-0.5-2-0.5-3.1c0-1.5,0.3-2.8,0.8-3.8
				c0.6-1.1,1.3-1.9,2.2-2.5c0.9-0.6,2-0.9,3.1-0.9c0.4,0,0.9,0.1,1.3,0.2c0.4,0.1,0.8,0.3,1.2,0.5h0.1v-3.5c0-0.6-0.1-1-0.2-1.2
				c-0.1-0.2-0.5-0.3-1-0.3c-0.1,0-0.4,0-0.7,0.1v-0.8l3.4-0.9h0.7v16.1c0,0.7,0.1,1.2,0.3,1.4c0.2,0.2,0.5,0.3,1,0.3h0.6v0.7
				l-3.4,0.6h-0.6v-1.9h-0.1c-0.5,0.4-1.1,0.9-1.8,1.3C634.1,168.5,633.3,168.7,632.4,168.7z M633.7,166.7c0.6,0,1.2-0.1,1.6-0.3
				c0.4-0.2,0.9-0.4,1.3-0.7v-7.1c-0.1-0.6-0.4-1.1-0.8-1.5c-0.4-0.4-1-0.7-1.9-0.7c-1.1,0-2,0.4-2.7,1.2c-0.7,0.8-1.1,2.1-1.1,3.8
				c0,1.8,0.3,3.2,0.9,4C631.7,166.3,632.6,166.7,633.7,166.7z"/>
			<path class="st6" d="M654.7,168.5h-6.1v-0.8c0.6,0,1-0.1,1.3-0.2c0.3-0.1,0.4-0.3,0.5-0.6c0.1-0.3,0.1-0.7,0.1-1.2v-7.5
				c0-0.6-0.1-0.9-0.3-1.1c-0.2-0.1-0.5-0.2-0.9-0.2c-0.2,0-0.4,0-0.7,0.1v-0.8l3.4-0.8h0.7v10.3c0,0.5,0,0.9,0.1,1.2
				c0.1,0.3,0.2,0.5,0.5,0.6c0.3,0.1,0.7,0.2,1.3,0.2V168.5z M651.7,153.4c-0.4,0-0.8-0.2-1.1-0.5c-0.3-0.3-0.4-0.7-0.4-1.1
				c0-0.4,0.1-0.8,0.4-1.1c0.3-0.3,0.7-0.4,1.1-0.4c0.5,0,0.8,0.1,1.1,0.4c0.3,0.3,0.4,0.7,0.4,1.1c0,0.4-0.1,0.8-0.4,1.1
				S652.2,153.4,651.7,153.4z"/>
			<path class="st6" d="M662.5,168.5h-6.2v-0.8c0.6,0,1-0.1,1.3-0.2c0.3-0.1,0.4-0.3,0.5-0.6c0.1-0.3,0.1-0.7,0.1-1.2v-7.6
				c0-0.5-0.1-0.8-0.3-1c-0.2-0.2-0.5-0.2-0.8-0.2c-0.2,0-0.5,0-0.7,0.1v-0.8l3.4-0.8h0.6l0,2.5l0.1,0.6v7.2c0,0.5,0,0.9,0.1,1.2
				c0.1,0.3,0.3,0.5,0.5,0.6c0.3,0.1,0.8,0.2,1.4,0.2V168.5z M670.4,168.5h-6.2v-0.8c0.6,0,1.1-0.1,1.4-0.2c0.3-0.1,0.4-0.3,0.5-0.6
				c0.1-0.3,0.1-0.7,0.1-1.2v-4.9c0-1.1-0.1-1.9-0.4-2.4c-0.2-0.5-0.6-0.9-0.9-1.1c-0.4-0.2-0.8-0.3-1.2-0.3c-0.5,0-1,0.1-1.4,0.3
				c-0.4,0.2-0.8,0.5-1.1,0.7c-0.3,0.3-0.6,0.6-0.9,0.8l-0.2-1.3h0.4c0.7-0.6,1.4-1.2,2.1-1.6c0.7-0.4,1.4-0.6,2.2-0.6
				c1.2,0,2.1,0.4,2.7,1.2c0.6,0.8,0.9,2,0.9,3.6v5.5c0,0.5,0,0.9,0.1,1.2c0.1,0.3,0.3,0.5,0.6,0.6c0.3,0.1,0.7,0.2,1.3,0.2V168.5z"
				/>
			<path class="st6" d="M678,168.5h-6.2v-0.8c0.6,0,1-0.1,1.3-0.2c0.3-0.1,0.4-0.3,0.5-0.6c0.1-0.3,0.1-0.7,0.1-1.2v-7.6
				c0-0.5-0.1-0.8-0.3-1c-0.2-0.2-0.5-0.2-0.8-0.2c-0.2,0-0.5,0-0.7,0.1v-0.8l3.4-0.8h0.6l0,2.5l0.1,0.6v7.2c0,0.5,0,0.9,0.1,1.2
				c0.1,0.3,0.3,0.5,0.5,0.6c0.3,0.1,0.8,0.2,1.4,0.2V168.5z M685.9,168.5h-6.2v-0.8c0.6,0,1.1-0.1,1.4-0.2c0.3-0.1,0.4-0.3,0.5-0.6
				c0.1-0.3,0.1-0.7,0.1-1.2v-4.9c0-1.1-0.1-1.9-0.4-2.4c-0.2-0.5-0.6-0.9-0.9-1.1c-0.4-0.2-0.8-0.3-1.2-0.3c-0.5,0-1,0.1-1.4,0.3
				c-0.4,0.2-0.8,0.5-1.1,0.7c-0.3,0.3-0.6,0.6-0.9,0.8l-0.2-1.3h0.4c0.7-0.6,1.4-1.2,2.1-1.6c0.7-0.4,1.4-0.6,2.2-0.6
				c1.2,0,2.1,0.4,2.7,1.2c0.6,0.8,0.9,2,0.9,3.6v5.5c0,0.5,0,0.9,0.1,1.2c0.1,0.3,0.3,0.5,0.6,0.6c0.3,0.1,0.7,0.2,1.3,0.2V168.5z"
				/>
			<path class="st6" d="M693.4,168.7c-1.9,0-3.4-0.6-4.4-1.8c-1.1-1.2-1.6-2.8-1.6-5c0-1.3,0.3-2.5,0.8-3.4c0.5-1,1.2-1.7,2.1-2.3
				c0.9-0.5,2-0.8,3.2-0.8c1.8,0,3.3,0.6,4.4,1.7s1.6,2.7,1.6,4.7c0,1.5-0.3,2.8-0.8,3.8c-0.5,1-1.2,1.8-2.1,2.3
				C695.6,168.5,694.6,168.7,693.4,168.7z M693.5,167.6c0.7,0,1.4-0.2,1.9-0.5c0.5-0.3,0.9-0.9,1.1-1.8c0.3-0.8,0.4-2,0.4-3.4
				c0-1.7-0.3-3-0.9-4c-0.6-1-1.5-1.5-2.7-1.5c-1,0-1.8,0.4-2.5,1.3c-0.6,0.9-0.9,2.2-0.9,3.9c0,2.1,0.3,3.7,1,4.6
				C691.5,167.2,692.4,167.7,693.5,167.6z"/>
			<path class="st6" d="M707.4,168.6h-1.3l-4-10.1c-0.2-0.6-0.4-1-0.6-1.3c-0.2-0.3-0.4-0.5-0.6-0.6c-0.2-0.1-0.5-0.1-0.9-0.1v-0.8
				h5.7v0.8c-0.5,0-0.9,0.1-1.1,0.2c-0.2,0.1-0.3,0.3-0.3,0.5c0,0.2,0,0.3,0.1,0.5c0.1,0.2,0.1,0.3,0.2,0.5l2.3,6l0.5,1.6h0.2
				l0.6-1.6l2.3-6.1c0-0.1,0.1-0.2,0.1-0.3c0.1-0.2,0.1-0.3,0.1-0.6c0-0.3-0.1-0.5-0.4-0.6c-0.3-0.1-0.6-0.1-1.1-0.1v-0.8h4.7v0.8
				c-0.5,0-0.9,0.1-1.2,0.4c-0.3,0.2-0.6,0.7-0.8,1.4L707.4,168.6z"/>
			<path class="st6" d="M717.1,168.6c-1,0-1.8-0.3-2.4-0.9c-0.5-0.6-0.8-1.3-0.8-2.2c0-0.7,0.2-1.3,0.5-1.8c0.3-0.5,0.8-0.9,1.3-1.3
				c0.5-0.3,1.1-0.6,1.8-0.9c0.6-0.2,1.3-0.4,1.9-0.6c0.6-0.2,1.1-0.3,1.6-0.5v-1.2c0-1.2-0.2-2-0.6-2.5s-1-0.7-1.8-0.7
				c-0.8,0-1.3,0.2-1.5,0.5c-0.2,0.3-0.3,0.9-0.3,1.7c0,0.4-0.1,0.7-0.3,0.9c-0.2,0.2-0.5,0.3-0.9,0.3c-0.3,0-0.5-0.1-0.8-0.3
				c-0.2-0.2-0.4-0.5-0.4-1c0-0.5,0.2-1,0.6-1.4c0.4-0.4,0.9-0.8,1.6-1.1s1.5-0.4,2.5-0.4c1.5,0,2.5,0.3,3.1,1
				c0.6,0.7,0.9,1.7,0.9,3.1v6.1c0,0.6,0.1,0.9,0.2,1.1c0.1,0.2,0.3,0.2,0.6,0.2c0.3,0,0.5-0.1,0.7-0.2c0.2-0.1,0.4-0.3,0.6-0.5
				l0.4,0.4c-0.4,0.6-0.9,1.1-1.3,1.4c-0.4,0.3-0.9,0.4-1.6,0.4c-0.6,0-1-0.2-1.2-0.5c-0.2-0.4-0.3-0.9-0.4-1.5l-0.2-0.3v-4.7
				c-0.8,0.2-1.6,0.4-2.3,0.7c-0.7,0.3-1.3,0.6-1.8,1c-0.4,0.4-0.7,1-0.7,1.7c0,0.7,0.2,1.2,0.5,1.6c0.4,0.4,0.8,0.6,1.4,0.6
				c0.5,0,1-0.1,1.5-0.3c0.5-0.2,1-0.6,1.5-1l0.2,1H721c-0.4,0.4-0.8,0.7-1.2,1c-0.4,0.3-0.8,0.5-1.2,0.7
				C718.2,168.6,717.6,168.6,717.1,168.6z"/>
			<path class="st6" d="M733.7,166l0.5,0.4c-0.3,0.5-0.7,0.9-1,1.2c-0.3,0.3-0.6,0.6-1,0.8c-0.4,0.2-0.8,0.3-1.4,0.3
				c-0.9,0-1.6-0.3-2-0.8c-0.4-0.5-0.6-1.4-0.6-2.6V157h-1.5v-0.6c0.6-0.4,1.2-0.9,1.6-1.6c0.5-0.7,0.9-1.6,1.4-2.7h0.7v3.8h3v1.1
				h-3v7.6c0,1,0.1,1.6,0.3,2c0.2,0.4,0.5,0.6,1,0.6c0.4,0,0.8-0.1,1-0.3C733,166.7,733.3,166.4,733.7,166z"/>
			<path class="st6" d="M741.2,168.5h-6.1v-0.8c0.6,0,1-0.1,1.3-0.2c0.3-0.1,0.4-0.3,0.5-0.6c0.1-0.3,0.1-0.7,0.1-1.2v-7.5
				c0-0.6-0.1-0.9-0.3-1.1c-0.2-0.1-0.5-0.2-0.9-0.2c-0.2,0-0.4,0-0.7,0.1v-0.8l3.4-0.8h0.7v10.3c0,0.5,0,0.9,0.1,1.2
				c0.1,0.3,0.2,0.5,0.5,0.6c0.3,0.1,0.7,0.2,1.3,0.2V168.5z M738.1,153.4c-0.4,0-0.8-0.2-1.1-0.5c-0.3-0.3-0.4-0.7-0.4-1.1
				c0-0.4,0.1-0.8,0.4-1.1c0.3-0.3,0.7-0.4,1.1-0.4c0.5,0,0.8,0.1,1.1,0.4c0.3,0.3,0.4,0.7,0.4,1.1c0,0.4-0.1,0.8-0.4,1.1
				C739,153.2,738.6,153.4,738.1,153.4z"/>
			<path class="st6" d="M749,168.6h-1.3l-4-10.1c-0.2-0.6-0.4-1-0.6-1.3c-0.2-0.3-0.4-0.5-0.6-0.6c-0.2-0.1-0.5-0.1-0.9-0.1v-0.8
				h5.7v0.8c-0.5,0-0.9,0.1-1.1,0.2c-0.2,0.1-0.3,0.3-0.3,0.5c0,0.2,0,0.3,0.1,0.5s0.1,0.3,0.2,0.5l2.3,6l0.5,1.6h0.2l0.6-1.6
				l2.3-6.1c0-0.1,0.1-0.2,0.1-0.3c0.1-0.2,0.1-0.3,0.1-0.6c0-0.3-0.1-0.5-0.4-0.6c-0.3-0.1-0.6-0.1-1.1-0.1v-0.8h4.7v0.8
				c-0.5,0-0.9,0.1-1.2,0.4c-0.3,0.2-0.6,0.7-0.8,1.4L749,168.6z"/>
			<path class="st6" d="M761.4,168.7c-1.1,0-2-0.3-2.9-0.8s-1.6-1.3-2.1-2.3c-0.5-1-0.8-2.2-0.8-3.6c0-1.5,0.3-2.7,0.8-3.7
				c0.5-1,1.2-1.7,2.1-2.2c0.9-0.5,1.8-0.7,2.9-0.7c1.5,0,2.7,0.5,3.6,1.5c0.9,1,1.4,2.5,1.5,4.4h-8.7l0-1h6.2
				c0-0.7-0.1-1.3-0.3-1.9c-0.2-0.6-0.5-1.1-0.9-1.4c-0.4-0.4-0.9-0.5-1.6-0.5c-1,0-1.8,0.4-2.3,1.2c-0.5,0.8-0.8,2-0.8,3.5
				c0,1.2,0.2,2.3,0.6,3.1c0.4,0.8,0.9,1.4,1.6,1.8c0.6,0.4,1.3,0.6,2.1,0.6s1.3-0.1,1.8-0.3c0.5-0.2,0.8-0.5,1.2-0.8
				c0.3-0.3,0.6-0.7,0.9-1l0.5,0.4c-0.2,0.5-0.5,1-0.8,1.4c-0.3,0.5-0.7,0.9-1,1.2c-0.4,0.3-0.8,0.6-1.4,0.8
				C762.7,168.6,762.1,168.7,761.4,168.7z"/>
			<path class="st6" d="M779,168.7c-1,0-1.9-0.3-2.5-0.8c-0.7-0.5-1.2-1.3-1.5-2.2c-0.3-0.9-0.5-2-0.5-3.1c0-1.5,0.3-2.8,0.8-3.8
				c0.6-1.1,1.3-1.9,2.2-2.5c0.9-0.6,2-0.9,3.1-0.9c0.4,0,0.9,0.1,1.3,0.2c0.4,0.1,0.8,0.3,1.2,0.5h0.1v-3.5c0-0.6-0.1-1-0.2-1.2
				c-0.1-0.2-0.5-0.3-1-0.3c-0.1,0-0.4,0-0.7,0.1v-0.8l3.4-0.9h0.7v16.1c0,0.7,0.1,1.2,0.3,1.4c0.2,0.2,0.5,0.3,1,0.3h0.6v0.7
				l-3.4,0.6h-0.6v-1.9h-0.1c-0.5,0.4-1.1,0.9-1.8,1.3C780.7,168.5,779.9,168.7,779,168.7z M780.3,166.7c0.6,0,1.2-0.1,1.6-0.3
				c0.4-0.2,0.9-0.4,1.3-0.7v-7.1c-0.1-0.6-0.4-1.1-0.8-1.5c-0.4-0.4-1-0.7-1.9-0.7c-1.1,0-2,0.4-2.7,1.2c-0.7,0.8-1.1,2.1-1.1,3.8
				c0,1.8,0.3,3.2,0.9,4C778.3,166.3,779.2,166.7,780.3,166.7z"/>
			<path class="st6" d="M795,168.5h-6.1v-0.8c0.6,0,1-0.1,1.3-0.2c0.3-0.1,0.4-0.3,0.5-0.6c0.1-0.3,0.1-0.7,0.1-1.2v-7.5
				c0-0.6-0.1-0.9-0.3-1.1c-0.2-0.1-0.5-0.2-0.9-0.2c-0.2,0-0.4,0-0.7,0.1v-0.8l3.4-0.8h0.7v10.3c0,0.5,0,0.9,0.1,1.2
				c0.1,0.3,0.2,0.5,0.5,0.6c0.3,0.1,0.7,0.2,1.3,0.2V168.5z M792,153.4c-0.4,0-0.8-0.2-1.1-0.5c-0.3-0.3-0.4-0.7-0.4-1.1
				c0-0.4,0.1-0.8,0.4-1.1c0.3-0.3,0.7-0.4,1.1-0.4c0.5,0,0.8,0.1,1.1,0.4c0.3,0.3,0.4,0.7,0.4,1.1c0,0.4-0.1,0.8-0.4,1.1
				C792.8,153.2,792.4,153.4,792,153.4z"/>
			<path class="st6" d="M800.9,174.8c-1.2,0-2.1-0.1-2.8-0.4c-0.7-0.3-1.1-0.7-1.4-1.1c-0.3-0.5-0.4-0.9-0.4-1.4
				c0-0.4,0.2-0.9,0.6-1.4c0.4-0.5,0.9-1.1,1.6-1.8v-0.3l0.8,0.2c-0.3,0.6-0.6,1-0.7,1.4c-0.1,0.4-0.2,0.7-0.2,1
				c0,0.8,0.3,1.4,1,1.7c0.7,0.4,1.7,0.6,3,0.6c1.1,0,1.9-0.1,2.6-0.4c0.7-0.3,1.1-0.6,1.4-1c0.3-0.4,0.4-0.8,0.4-1.2
				c0-0.5-0.2-0.9-0.5-1.1c-0.3-0.3-0.7-0.4-1.2-0.6c-0.5-0.1-1-0.2-1.5-0.2c-0.5,0-1,0-1.5,0c-0.8,0-1.4,0-1.8,0
				c-0.4,0-0.7,0-0.9,0c-0.2,0-0.3,0-0.5,0l-0.3-0.1c-0.3-0.1-0.5-0.2-0.8-0.4c-0.3-0.2-0.5-0.4-0.7-0.7c-0.2-0.3-0.3-0.6-0.3-0.9
				c0-0.3,0.1-0.7,0.3-1c0.2-0.4,0.5-0.7,0.8-1c0.3-0.3,0.7-0.7,1.1-1v-0.2l0.7,0.5c-0.1,0.1-0.2,0.3-0.3,0.5
				c-0.1,0.2-0.2,0.5-0.3,0.7c-0.1,0.3-0.1,0.5-0.1,0.7c0,0.3,0.1,0.5,0.3,0.6c0.2,0.2,0.5,0.3,1,0.3c0.5,0.1,1.1,0.1,1.9,0.1
				c1.1,0,2.1,0.1,3.1,0.2c0.9,0.1,1.6,0.4,2.1,0.8c0.5,0.4,0.8,1.2,0.8,2.2c0,0.9-0.2,1.7-0.7,2.3c-0.4,0.6-1,1.1-1.8,1.5
				c-0.7,0.4-1.5,0.7-2.4,0.8C802.6,174.7,801.7,174.8,800.9,174.8z M802.1,164.3c-0.5,0-0.9,0-1.3-0.1c-0.4-0.1-0.8-0.2-1.2-0.3
				l-0.3-0.3c-0.5-0.3-0.9-0.5-1.2-0.9c-0.3-0.3-0.6-0.7-0.8-1.2c-0.2-0.5-0.3-1-0.3-1.6c0-0.9,0.2-1.7,0.6-2.3
				c0.4-0.7,1-1.2,1.7-1.5c0.7-0.4,1.6-0.5,2.5-0.5c0.5,0,1,0,1.5,0.1c0.5,0.1,0.9,0.2,1.3,0.4c0.4,0.2,0.8,0.4,1.1,0.7v0.7
				c0.2,0.3,0.4,0.6,0.6,1.1c0.2,0.4,0.3,1,0.3,1.7c0,0.8-0.2,1.5-0.6,2.2c-0.4,0.6-1,1.1-1.7,1.4
				C803.9,164.1,803.1,164.3,802.1,164.3z M802.1,163.3c0.7,0,1.2-0.2,1.7-0.7c0.4-0.5,0.7-1.3,0.7-2.6c0-1.1-0.2-2-0.7-2.6
				c-0.5-0.7-1.1-1-2-1c-0.7,0-1.3,0.3-1.7,0.8c-0.4,0.5-0.6,1.4-0.6,2.5c0,1.1,0.2,2,0.7,2.7C800.6,163,801.2,163.3,802.1,163.3z
				 M808.4,155.9v1.5l-2.9-0.1l-0.9-1.2L808.4,155.9z"/>
			<path class="st6" d="M815.7,168.5h-6.1v-0.8c0.6,0,1-0.1,1.3-0.2c0.3-0.1,0.4-0.3,0.5-0.6c0.1-0.3,0.1-0.7,0.1-1.2v-7.5
				c0-0.6-0.1-0.9-0.3-1.1c-0.2-0.1-0.5-0.2-0.9-0.2c-0.2,0-0.4,0-0.7,0.1v-0.8l3.4-0.8h0.7v10.3c0,0.5,0,0.9,0.1,1.2
				c0.1,0.3,0.2,0.5,0.5,0.6c0.3,0.1,0.7,0.2,1.3,0.2V168.5z M812.7,153.4c-0.4,0-0.8-0.2-1.1-0.5c-0.3-0.3-0.4-0.7-0.4-1.1
				c0-0.4,0.1-0.8,0.4-1.1c0.3-0.3,0.7-0.4,1.1-0.4c0.5,0,0.8,0.1,1.1,0.4c0.3,0.3,0.4,0.7,0.4,1.1c0,0.4-0.1,0.8-0.4,1.1
				S813.1,153.4,812.7,153.4z"/>
			<path class="st6" d="M824.3,166l0.5,0.4c-0.3,0.5-0.7,0.9-1,1.2c-0.3,0.3-0.6,0.6-1,0.8c-0.4,0.2-0.8,0.3-1.4,0.3
				c-0.9,0-1.6-0.3-2-0.8c-0.4-0.5-0.6-1.4-0.6-2.6V157h-1.5v-0.6c0.6-0.4,1.2-0.9,1.6-1.6c0.5-0.7,0.9-1.6,1.4-2.7h0.7v3.8h3v1.1
				h-3v7.6c0,1,0.1,1.6,0.3,2c0.2,0.4,0.5,0.6,1,0.6c0.4,0,0.8-0.1,1-0.3C823.7,166.7,824,166.4,824.3,166z"/>
			<path class="st6" d="M829.1,168.6c-1,0-1.8-0.3-2.4-0.9c-0.5-0.6-0.8-1.3-0.8-2.2c0-0.7,0.2-1.3,0.5-1.8c0.3-0.5,0.8-0.9,1.3-1.3
				c0.5-0.3,1.1-0.6,1.8-0.9c0.6-0.2,1.3-0.4,1.9-0.6c0.6-0.2,1.1-0.3,1.6-0.5v-1.2c0-1.2-0.2-2-0.6-2.5s-1-0.7-1.8-0.7
				c-0.8,0-1.3,0.2-1.5,0.5c-0.2,0.3-0.3,0.9-0.3,1.7c0,0.4-0.1,0.7-0.3,0.9c-0.2,0.2-0.5,0.3-0.9,0.3c-0.3,0-0.5-0.1-0.8-0.3
				c-0.2-0.2-0.4-0.5-0.4-1c0-0.5,0.2-1,0.6-1.4c0.4-0.4,0.9-0.8,1.6-1.1c0.7-0.3,1.5-0.4,2.5-0.4c1.5,0,2.5,0.3,3.1,1
				c0.6,0.7,0.9,1.7,0.9,3.1v6.1c0,0.6,0.1,0.9,0.2,1.1c0.1,0.2,0.3,0.2,0.6,0.2c0.3,0,0.5-0.1,0.7-0.2c0.2-0.1,0.4-0.3,0.6-0.5
				l0.4,0.4c-0.4,0.6-0.9,1.1-1.3,1.4c-0.4,0.3-0.9,0.4-1.6,0.4c-0.6,0-1-0.2-1.2-0.5c-0.2-0.4-0.3-0.9-0.4-1.5l-0.2-0.3v-4.7
				c-0.8,0.2-1.6,0.4-2.3,0.7c-0.7,0.3-1.3,0.6-1.8,1c-0.4,0.4-0.7,1-0.7,1.7c0,0.7,0.2,1.2,0.5,1.6c0.4,0.4,0.8,0.6,1.4,0.6
				c0.5,0,1-0.1,1.5-0.3c0.5-0.2,1-0.6,1.5-1l0.2,1h-0.3c-0.4,0.4-0.8,0.7-1.2,1c-0.4,0.3-0.8,0.5-1.2,0.7
				C830.2,168.6,829.7,168.6,829.1,168.6z"/>
			<path class="st6" d="M844.8,168.5h-6.2v-0.8c0.6,0,1-0.1,1.3-0.2c0.3-0.1,0.4-0.3,0.5-0.6c0.1-0.3,0.1-0.7,0.1-1.2v-13.5
				c0-0.6-0.1-0.9-0.3-1c-0.2-0.1-0.5-0.2-0.8-0.2c-0.2,0-0.5,0-0.9,0.1v-0.7l3.6-0.9h0.7v16.3c0,0.5,0,0.9,0.1,1.2
				c0.1,0.3,0.3,0.5,0.6,0.6c0.3,0.1,0.8,0.2,1.4,0.2V168.5z"/>
			<path class="st6" d="M852.9,168.7l-0.1-4.6h0.7c0.3,1.4,0.7,2.3,1.3,2.9c0.6,0.5,1.3,0.8,2.3,0.8c0.7,0,1.2-0.1,1.7-0.4
				c0.4-0.3,0.6-0.7,0.6-1.4c0-0.4-0.1-0.8-0.2-1.1c-0.2-0.3-0.4-0.6-0.9-0.9c-0.4-0.3-1.1-0.7-1.9-1.1c-0.8-0.4-1.5-0.8-2-1.2
				c-0.5-0.4-0.9-0.8-1.2-1.3c-0.3-0.5-0.4-1-0.4-1.7c0-1.1,0.4-2,1.2-2.5c0.8-0.6,1.8-0.9,2.9-0.9c0.7,0,1.2,0.1,1.7,0.2
				c0.4,0.2,0.8,0.3,1.2,0.5h0l0.5-0.6h0.5l0.1,4.1h-0.7c-0.3-1.3-0.7-2.1-1.2-2.6c-0.5-0.5-1.2-0.7-2-0.7c-0.6,0-1.1,0.1-1.5,0.4
				c-0.4,0.3-0.6,0.7-0.6,1.3c0,0.5,0.2,1,0.7,1.4c0.5,0.4,1.3,0.9,2.4,1.5c0.8,0.4,1.5,0.8,2.1,1.3c0.6,0.4,1,0.8,1.3,1.3
				c0.3,0.5,0.4,1,0.4,1.7c0,0.8-0.2,1.5-0.6,2c-0.4,0.5-1,0.9-1.7,1.1c-0.7,0.2-1.4,0.3-2.2,0.3c-0.8,0-1.4-0.1-1.8-0.2
				c-0.5-0.2-0.9-0.3-1.2-0.5H854l-0.6,0.6H852.9z"/>
			<path class="st6" d="M869.3,168.7c-1.9,0-3.4-0.6-4.4-1.8c-1.1-1.2-1.6-2.8-1.6-5c0-1.3,0.3-2.5,0.8-3.4c0.5-1,1.2-1.7,2.1-2.3
				c0.9-0.5,2-0.8,3.2-0.8c1.8,0,3.3,0.6,4.4,1.7c1.1,1.1,1.6,2.7,1.6,4.7c0,1.5-0.3,2.8-0.8,3.8c-0.5,1-1.2,1.8-2.1,2.3
				C871.5,168.5,870.5,168.7,869.3,168.7z M869.4,167.6c0.7,0,1.4-0.2,1.9-0.5c0.5-0.3,0.9-0.9,1.1-1.8c0.3-0.8,0.4-2,0.4-3.4
				c0-1.7-0.3-3-0.9-4c-0.6-1-1.5-1.5-2.7-1.5c-1,0-1.8,0.4-2.5,1.3c-0.6,0.9-0.9,2.2-0.9,3.9c0,2.1,0.3,3.7,1,4.6
				C867.4,167.2,868.3,167.7,869.4,167.6z"/>
			<path class="st6" d="M883.2,168.5H877v-0.8c0.6,0,1-0.1,1.3-0.2s0.4-0.3,0.5-0.6c0.1-0.3,0.1-0.7,0.1-1.2v-13.5
				c0-0.6-0.1-0.9-0.3-1c-0.2-0.1-0.5-0.2-0.8-0.2c-0.2,0-0.5,0-0.9,0.1v-0.7l3.6-0.9h0.7v16.3c0,0.5,0,0.9,0.1,1.2
				c0.1,0.3,0.3,0.5,0.6,0.6c0.3,0.1,0.8,0.2,1.4,0.2V168.5z"/>
			<path class="st6" d="M889.8,168.7c-1.1,0-2-0.4-2.6-1.1c-0.6-0.7-0.9-2-0.9-3.8v-5.5c0-0.5-0.1-0.8-0.1-1.1
				c-0.1-0.2-0.3-0.4-0.6-0.4c-0.3-0.1-0.6-0.1-1.1-0.1V156l3.5-0.4h0.6v7.9c0,0.9,0.1,1.6,0.3,2.1c0.2,0.5,0.5,0.9,0.9,1.1
				c0.4,0.2,0.8,0.3,1.3,0.3c0.7,0,1.3-0.2,1.8-0.5s1-0.7,1.5-1.2v-7.1c0-0.5-0.1-0.8-0.2-1c-0.1-0.2-0.3-0.4-0.7-0.4
				c-0.3-0.1-0.8-0.1-1.3-0.1V156l3.8-0.4h0.6v9.9c0,0.8,0.1,1.3,0.3,1.5c0.2,0.2,0.6,0.3,1.3,0.3h0.3v0.7l-3.4,0.6h-0.6v-2.1h-0.1
				c-0.5,0.5-0.9,0.9-1.4,1.2c-0.5,0.3-0.9,0.6-1.4,0.8S890.4,168.7,889.8,168.7z"/>
			<path class="st6" d="M907.1,166l0.5,0.4c-0.3,0.5-0.7,0.9-1,1.2c-0.3,0.3-0.6,0.6-1,0.8c-0.4,0.2-0.8,0.3-1.4,0.3
				c-0.9,0-1.6-0.3-2-0.8c-0.4-0.5-0.6-1.4-0.6-2.6V157h-1.5v-0.6c0.6-0.4,1.2-0.9,1.6-1.6c0.5-0.7,0.9-1.6,1.4-2.7h0.7v3.8h3v1.1
				h-3v7.6c0,1,0.1,1.6,0.3,2c0.2,0.4,0.5,0.6,1,0.6c0.4,0,0.8-0.1,1-0.3C906.4,166.7,906.7,166.4,907.1,166z"/>
			<path class="st6" d="M914.6,168.5h-6.1v-0.8c0.6,0,1-0.1,1.3-0.2c0.3-0.1,0.4-0.3,0.5-0.6c0.1-0.3,0.1-0.7,0.1-1.2v-7.5
				c0-0.6-0.1-0.9-0.3-1.1c-0.2-0.1-0.5-0.2-0.9-0.2c-0.2,0-0.4,0-0.7,0.1v-0.8l3.4-0.8h0.7v10.3c0,0.5,0,0.9,0.1,1.2
				c0.1,0.3,0.2,0.5,0.5,0.6c0.3,0.1,0.7,0.2,1.3,0.2V168.5z M911.6,153.4c-0.4,0-0.8-0.2-1.1-0.5c-0.3-0.3-0.4-0.7-0.4-1.1
				c0-0.4,0.1-0.8,0.4-1.1c0.3-0.3,0.7-0.4,1.1-0.4c0.5,0,0.8,0.1,1.1,0.4c0.3,0.3,0.4,0.7,0.4,1.1c0,0.4-0.1,0.8-0.4,1.1
				S912,153.4,911.6,153.4z"/>
			<path class="st6" d="M922.3,168.7c-1.9,0-3.4-0.6-4.4-1.8c-1.1-1.2-1.6-2.8-1.6-5c0-1.3,0.3-2.5,0.8-3.4c0.5-1,1.2-1.7,2.1-2.3
				c0.9-0.5,2-0.8,3.2-0.8c1.8,0,3.3,0.6,4.4,1.7c1.1,1.1,1.6,2.7,1.6,4.7c0,1.5-0.3,2.8-0.8,3.8c-0.5,1-1.2,1.8-2.1,2.3
				C924.5,168.5,923.4,168.7,922.3,168.7z M922.4,167.6c0.7,0,1.4-0.2,1.9-0.5c0.5-0.3,0.9-0.9,1.1-1.8c0.3-0.8,0.4-2,0.4-3.4
				c0-1.7-0.3-3-0.9-4c-0.6-1-1.5-1.5-2.7-1.5c-1,0-1.8,0.4-2.5,1.3c-0.6,0.9-0.9,2.2-0.9,3.9c0,2.1,0.3,3.7,1,4.6
				C920.3,167.2,921.2,167.7,922.4,167.6z"/>
			<path class="st6" d="M936.2,168.5H930v-0.8c0.6,0,1-0.1,1.3-0.2c0.3-0.1,0.4-0.3,0.5-0.6c0.1-0.3,0.1-0.7,0.1-1.2v-7.6
				c0-0.5-0.1-0.8-0.3-1c-0.2-0.2-0.5-0.2-0.8-0.2c-0.2,0-0.5,0-0.7,0.1v-0.8l3.4-0.8h0.6l0,2.5l0.1,0.6v7.2c0,0.5,0,0.9,0.1,1.2
				c0.1,0.3,0.3,0.5,0.5,0.6c0.3,0.1,0.8,0.2,1.4,0.2V168.5z M944.1,168.5h-6.2v-0.8c0.6,0,1.1-0.1,1.4-0.2c0.3-0.1,0.4-0.3,0.5-0.6
				c0.1-0.3,0.1-0.7,0.1-1.2v-4.9c0-1.1-0.1-1.9-0.4-2.4c-0.2-0.5-0.6-0.9-0.9-1.1c-0.4-0.2-0.8-0.3-1.2-0.3c-0.5,0-1,0.1-1.4,0.3
				c-0.4,0.2-0.8,0.5-1.1,0.7c-0.3,0.3-0.6,0.6-0.9,0.8l-0.2-1.3h0.4c0.7-0.6,1.4-1.2,2.1-1.6c0.7-0.4,1.4-0.6,2.2-0.6
				c1.2,0,2.1,0.4,2.7,1.2c0.6,0.8,0.9,2,0.9,3.6v5.5c0,0.5,0,0.9,0.1,1.2c0.1,0.3,0.3,0.5,0.6,0.6c0.3,0.1,0.7,0.2,1.3,0.2V168.5z"
				/>
			<path class="st6" d="M945.8,168.7l-0.1-4.6h0.7c0.3,1.4,0.7,2.3,1.3,2.9c0.6,0.5,1.3,0.8,2.3,0.8c0.7,0,1.2-0.1,1.7-0.4
				c0.4-0.3,0.6-0.7,0.6-1.4c0-0.4-0.1-0.8-0.2-1.1c-0.2-0.3-0.4-0.6-0.9-0.9c-0.4-0.3-1.1-0.7-1.9-1.1c-0.8-0.4-1.5-0.8-2-1.2
				c-0.5-0.4-0.9-0.8-1.2-1.3c-0.3-0.5-0.4-1-0.4-1.7c0-1.1,0.4-2,1.2-2.5c0.8-0.6,1.8-0.9,2.9-0.9c0.7,0,1.2,0.1,1.7,0.2
				c0.4,0.2,0.8,0.3,1.2,0.5h0l0.5-0.6h0.5l0.1,4.1h-0.7c-0.3-1.3-0.7-2.1-1.2-2.6c-0.5-0.5-1.2-0.7-2-0.7c-0.6,0-1.1,0.1-1.5,0.4
				c-0.4,0.3-0.6,0.7-0.6,1.3c0,0.5,0.2,1,0.7,1.4c0.5,0.4,1.3,0.9,2.4,1.5c0.8,0.4,1.5,0.8,2.1,1.3c0.6,0.4,1,0.8,1.3,1.3
				c0.3,0.5,0.4,1,0.4,1.7c0,0.8-0.2,1.5-0.6,2c-0.4,0.5-1,0.9-1.7,1.1c-0.7,0.2-1.4,0.3-2.2,0.3c-0.8,0-1.4-0.1-1.8-0.2
				c-0.5-0.2-0.9-0.3-1.2-0.5h-0.1l-0.6,0.6H945.8z"/>
			<path class="st6" d="M958.6,168.7c-0.5,0-0.9-0.2-1.2-0.5c-0.3-0.3-0.4-0.7-0.4-1.1c0-0.5,0.1-0.9,0.4-1.2
				c0.3-0.3,0.7-0.5,1.2-0.5c0.5,0,0.9,0.2,1.2,0.5c0.3,0.3,0.4,0.7,0.4,1.2c0,0.4-0.1,0.8-0.4,1.1
				C959.5,168.5,959.1,168.7,958.6,168.7z"/>
		</g>
	</g>
</g>
</svg>
